<svg width="15" height="15" viewBox="0 0 15 15" fill="none" xmlns="http://www.w3.org/2000/svg">
<g clip-path="url(#clip0_65_841)">
<path d="M14.4388 3.68446L7.49609 10.6279L0.553334 3.68446C0.423812 3.55934 0.217377 3.56295 0.092257 3.69247C-0.0297758 3.81885 -0.0297758 4.01917 0.092257 4.14551L7.26587 11.3191C7.39319 11.4464 7.59959 11.4464 7.72695 11.3191L14.9006 4.14551C15.0301 4.02039 15.0337 3.81399 14.9086 3.68443C14.7834 3.55491 14.577 3.55133 14.4475 3.67642C14.4448 3.67905 14.4421 3.68171 14.4395 3.68443L14.4388 3.68446Z" fill="#FFC107"/>
<path d="M7.49601 11.415C7.40947 11.4152 7.32641 11.381 7.26515 11.3198L0.091536 4.14621C-0.0335842 4.01669 -0.029977 3.81026 0.0995452 3.68514C0.225919 3.5631 0.42624 3.5631 0.552583 3.68514L7.49598 10.6279L14.4387 3.68449C14.5638 3.55497 14.7703 3.5514 14.8998 3.67649C15.0293 3.80161 15.0329 4.00801 14.9078 4.13756C14.9052 4.14028 14.9025 4.14294 14.8998 4.14557L7.72623 11.3192C7.66521 11.3804 7.5824 11.4148 7.49601 11.415Z" fill="#7E64F6"/>
</g>
<defs>
<clipPath id="clip0_65_841">
<rect width="15" height="15" fill="white"/>
</clipPath>
</defs>
</svg>
