<svg width="20" height="20" viewBox="0 0 20 20" fill="none" xmlns="http://www.w3.org/2000/svg">
<g clip-path="url(#clip0_65_843)">
<path d="M17.0413 14.0942C15.836 13.0292 15.145 11.4725 15.145 9.82333V7.5C15.145 4.5675 13.0613 2.14 10.3624 1.73333V0.833333C10.3624 0.3725 10.0053 0 9.56525 0C9.12525 0 8.76815 0.3725 8.76815 0.833333V1.73333C6.06837 2.14 3.98554 4.5675 3.98554 7.5V9.82333C3.98554 11.4725 3.29446 13.0292 2.08206 14.1008C1.77199 14.3783 1.59424 14.7817 1.59424 15.2083C1.59424 16.0125 2.21996 16.6667 2.98917 16.6667H16.1413C16.9105 16.6667 17.5363 16.0125 17.5363 15.2083C17.5363 14.7817 17.3585 14.3783 17.0413 14.0942Z" fill="#646464"/>
<path d="M9.56527 20C11.0088 20 12.2164 18.9242 12.4938 17.5H6.63672C6.91411 18.9242 8.12172 20 9.56527 20Z" fill="#646464"/>
</g>
<defs>
<clipPath id="clip0_65_843">
<rect width="19.1304" height="20" fill="white"/>
</clipPath>
</defs>
</svg>
