<svg width="21" height="20" viewBox="0 0 21 20" fill="none" xmlns="http://www.w3.org/2000/svg">
<g clip-path="url(#clip0_265_2683)">
<path d="M0.962891 6.98716V5.83331C0.96401 4.9156 1.32907 4.03579 1.97799 3.38687C2.62691 2.73795 3.50672 2.37289 4.42443 2.37177H5.57828V3.52562C5.57828 3.93365 5.74036 4.32496 6.02888 4.61348C6.3174 4.90199 6.70871 5.06408 7.11674 5.06408C7.52476 5.06408 7.91608 4.90199 8.20459 4.61348C8.49311 4.32496 8.6552 3.93365 8.6552 3.52562V2.37177H13.2706V3.52562C13.2706 3.93365 13.4327 4.32496 13.7212 4.61348C14.0097 4.90199 14.401 5.06408 14.809 5.06408C15.2171 5.06408 15.6084 4.90199 15.8969 4.61348C16.1854 4.32496 16.3475 3.93365 16.3475 3.52562V2.37177H17.5014C18.4191 2.37289 19.2989 2.73795 19.9478 3.38687C20.5967 4.03579 20.9618 4.9156 20.9629 5.83331V6.98716H0.962891ZM6.34751 3.52562C6.34751 3.72963 6.42855 3.92529 6.57281 4.06955C6.71707 4.21381 6.91272 4.29485 7.11674 4.29485C7.32075 4.29485 7.51641 4.21381 7.66067 4.06955C7.80492 3.92529 7.88597 3.72963 7.88597 3.52562V1.60254C7.88597 1.39853 7.80492 1.20287 7.66067 1.05862C7.51641 0.914357 7.32075 0.833313 7.11674 0.833313C6.91272 0.833313 6.71707 0.914357 6.57281 1.05862C6.42855 1.20287 6.34751 1.39853 6.34751 1.60254V3.52562ZM14.0398 1.60254V3.52562C14.0398 3.72963 14.1209 3.92529 14.2651 4.06955C14.4094 4.21381 14.605 4.29485 14.809 4.29485C15.0131 4.29485 15.2087 4.21381 15.353 4.06955C15.4972 3.92529 15.5783 3.72963 15.5783 3.52562V1.60254C15.5783 1.39853 15.4972 1.20287 15.353 1.05862C15.2087 0.914357 15.0131 0.833313 14.809 0.833313C14.605 0.833313 14.4094 0.914357 14.2651 1.05862C14.1209 1.20287 14.0398 1.39853 14.0398 1.60254ZM20.9629 7.75639V15.8333C20.9618 16.751 20.5967 17.6308 19.9478 18.2798C19.2989 18.9287 18.4191 19.2937 17.5014 19.2948H4.42443C3.50672 19.2937 2.62691 18.9287 1.97799 18.2798C1.32907 17.6308 0.96401 16.751 0.962891 15.8333V7.75639H20.9629ZM13.7733 12.106H12.1852L11.6937 10.5956C11.6431 10.4417 11.5452 10.3077 11.414 10.2127C11.2828 10.1177 11.1249 10.0666 10.9629 10.0666C10.8009 10.0666 10.643 10.1177 10.5118 10.2127C10.3806 10.3077 10.2827 10.4417 10.2321 10.5956L9.74135 12.106H8.15251C7.99005 12.106 7.83175 12.1574 7.70031 12.2528C7.56887 12.3483 7.47102 12.4829 7.4208 12.6374C7.37058 12.7919 7.37057 12.9584 7.42076 13.1129C7.47095 13.2674 7.56877 13.402 7.7002 13.4975L8.9852 14.431L8.49443 15.9414C8.44421 16.0959 8.4442 16.2623 8.4944 16.4169C8.5446 16.5714 8.64244 16.706 8.77388 16.8015C8.90533 16.897 9.06363 16.9484 9.2261 16.9484C9.38857 16.9484 9.54686 16.8969 9.67828 16.8014L10.9629 15.8679L12.2475 16.8014C12.3789 16.8969 12.5372 16.9484 12.6997 16.9484C12.8622 16.9484 13.0205 16.897 13.1519 16.8015C13.2833 16.706 13.3812 16.5714 13.4314 16.4169C13.4816 16.2623 13.4816 16.0959 13.4314 15.9414L12.9406 14.431L14.2256 13.4975C14.357 13.402 14.4548 13.2674 14.505 13.1129C14.5552 12.9584 14.5552 12.7919 14.505 12.6374C14.4548 12.4829 14.3569 12.3483 14.2255 12.2528C14.094 12.1574 13.9357 12.106 13.7733 12.106Z" fill="#70D978"/>
</g>
<defs>
<clipPath id="clip0_265_2683">
<rect width="20" height="20" fill="white" transform="translate(0.962891)"/>
</clipPath>
</defs>
</svg>
