<svg width="20" height="20" viewBox="0 0 20 20" fill="none" xmlns="http://www.w3.org/2000/svg">
<path d="M12.8339 2.83387C11.8278 2.83387 10.8697 3.04271 10 3.41871C9.13033 3.04275 8.17221 2.83387 7.16613 2.83387C3.21467 2.83387 0 6.04858 0 10C0 13.9514 3.21467 17.1661 7.16608 17.1661C8.17217 17.1661 9.13033 16.9573 9.99996 16.5813C10.8696 16.9572 11.8278 17.1661 12.8338 17.1661C16.7853 17.1661 20 13.9514 20 10C20 6.04858 16.7853 2.83387 12.8339 2.83387ZM11.3297 5.23275L6.78875 8.11317C7.30446 6.46408 8.47775 5.10312 10 4.33796C10.4814 4.57992 10.9279 4.88133 11.3297 5.23275ZM7.05729 12.5932C6.91529 12.2781 6.7985 11.9493 6.70917 11.6095L13.0391 7.63312C13.1573 7.92554 13.2544 8.22862 13.3283 8.54062L7.05729 12.5932ZM13.4732 9.43916C13.4895 9.62404 13.4983 9.811 13.4983 10C13.4983 10.2745 13.4807 10.545 13.4466 10.8105L8.16429 14.2726C7.89846 13.9823 7.65946 13.6671 7.45083 13.3311L13.4732 9.43916ZM6.54392 10.7291C6.51638 10.4898 6.50171 10.2466 6.50171 10C6.50171 9.74762 6.517 9.49879 6.54588 9.25404L11.9334 5.83662C12.2136 6.15712 12.4621 6.50604 12.6739 6.87842L6.54392 10.7291ZM7.16608 16.3328C3.67421 16.3328 0.833333 13.4919 0.833333 10C0.833333 6.50808 3.67421 3.66721 7.16608 3.66721C7.80758 3.66721 8.42696 3.76342 9.01096 3.94167C7.00383 5.21292 5.66838 7.45333 5.66838 10C5.66838 11.1863 5.95838 12.306 6.47075 13.2924C6.48104 13.3405 6.49963 13.3877 6.52792 13.4315C6.54367 13.4559 6.56204 13.4774 6.58167 13.4973C7.16663 14.5392 8.00417 15.4207 9.011 16.0585C8.427 16.2366 7.80758 16.3328 7.16608 16.3328ZM8.783 14.8635L13.1805 11.9812C12.6501 13.5877 11.493 14.9116 9.99996 15.662C9.56312 15.4425 9.15504 15.1739 8.783 14.8635ZM12.8339 16.3328C12.1924 16.3328 11.573 16.2366 10.989 16.0584C12.9962 14.7871 14.3317 12.5467 14.3317 10C14.3317 9.54487 14.2885 9.09975 14.207 8.66796C14.2062 8.66254 14.205 8.65717 14.2039 8.65175C13.8259 6.67433 12.633 4.98287 10.989 3.94162C11.573 3.76342 12.1924 3.66721 12.8339 3.66721C16.3258 3.66721 19.1667 6.50808 19.1667 10C19.1667 13.4919 16.3258 16.3328 12.8339 16.3328Z" fill="#FFA500"/>
</svg>
