<svg width="20" height="20" viewBox="0 0 20 20" fill="none" xmlns="http://www.w3.org/2000/svg">
<path d="M2.2507 10.7393H0.844255C0.480271 10.7393 0.184021 11.0353 0.184021 11.3992V19.1558C0.184021 19.5198 0.480271 19.816 0.844255 19.816H2.2507C2.61469 19.816 2.91062 19.5198 2.91062 19.1558V11.3992C2.91062 11.0353 2.61465 10.7393 2.2507 10.7393V10.7393ZM2.29711 19.1558C2.29711 19.1816 2.27613 19.2025 2.25066 19.2025H0.844255C0.818474 19.2025 0.797537 19.1815 0.797537 19.1558V11.3992C0.797537 11.3738 0.818513 11.3528 0.844255 11.3528H2.2507C2.27617 11.3528 2.29715 11.3738 2.29715 11.3992V19.1558H2.29711Z" fill="rgba(52, 69, 105, 1)"/>
<path d="M6.4769 13.081H5.07045C4.70647 13.081 4.41022 13.3772 4.41022 13.7412V19.1558C4.41022 19.5198 4.70647 19.8161 5.07045 19.8161H6.4769C6.84088 19.8161 7.13713 19.5198 7.13713 19.1558V13.7412C7.13713 13.3772 6.84088 13.081 6.4769 13.081V13.081ZM6.52366 19.1558C6.52366 19.1816 6.50268 19.2025 6.47694 19.2025H5.07049C5.04471 19.2025 5.02377 19.1815 5.02377 19.1558V13.7412C5.02377 13.7154 5.04475 13.6945 5.07049 13.6945H6.47694C6.50272 13.6945 6.52366 13.7155 6.52366 13.7412V19.1558Z" fill="rgba(52, 69, 105, 1)"/>
<path d="M10.7031 10.7393H9.29695C8.93297 10.7393 8.63672 11.0353 8.63672 11.3992V19.1558C8.63672 19.5198 8.93297 19.816 9.29695 19.816H10.7031C11.0671 19.816 11.3633 19.5198 11.3633 19.1558V11.3992C11.3633 11.0353 11.067 10.7393 10.7031 10.7393ZM10.7498 19.1558C10.7498 19.1816 10.7288 19.2025 10.7031 19.2025H9.29695C9.27117 19.2025 9.25023 19.1815 9.25023 19.1558V11.3992C9.25023 11.3738 9.27121 11.3528 9.29695 11.3528H10.7031C10.7289 11.3528 10.7498 11.3738 10.7498 11.3992V19.1558Z" fill="rgba(52, 69, 105, 1)"/>
<path d="M14.9295 12.0454H13.5231C13.1591 12.0454 12.8629 12.3414 12.8629 12.7053V19.1558C12.8629 19.5198 13.1591 19.816 13.5231 19.816H14.9295C15.2935 19.816 15.5898 19.5198 15.5898 19.1558V12.7053C15.5898 12.3413 15.2935 12.0454 14.9295 12.0454ZM14.9763 19.1558C14.9763 19.1816 14.9553 19.2025 14.9295 19.2025H13.5231C13.4973 19.2025 13.4764 19.1815 13.4764 19.1558V12.7053C13.4764 12.6799 13.4973 12.6589 13.5231 12.6589H14.9295C14.9553 12.6589 14.9763 12.6799 14.9763 12.7053V19.1558Z" fill="rgba(52, 69, 105, 1)"/>
<path d="M19.1561 8.47883H17.7496C17.3857 8.47883 17.0897 8.7748 17.0897 9.13875V19.1558C17.0897 19.5198 17.3857 19.8161 17.7496 19.8161H19.1561C19.5201 19.8161 19.8163 19.5198 19.8163 19.1558V9.13875C19.8163 8.7748 19.5201 8.47883 19.1561 8.47883ZM19.2028 19.1558C19.2028 19.1816 19.1819 19.2025 19.1561 19.2025H17.7497C17.7242 19.2025 17.7032 19.1816 17.7032 19.1558V9.13875C17.7032 9.11328 17.7242 9.0923 17.7497 9.0923H19.1561C19.1819 9.0923 19.2028 9.11328 19.2028 9.13875V19.1558Z" fill="rgba(52, 69, 105, 1)"/>
<path d="M5.59226 11.6326C5.69921 11.7116 5.84714 11.7126 5.95534 11.6326L10.0381 8.63461L14.1016 10.441C14.2271 10.4961 14.3748 10.462 14.4629 10.3559L18.1465 5.89609L18.1463 6.82258C18.1463 6.99184 18.2835 7.12934 18.4531 7.12934C18.6223 7.12934 18.7598 6.99215 18.7598 6.82258L18.7601 5.04406C18.7601 4.88016 18.6073 4.71824 18.4186 4.73949C18.4184 4.73949 18.4182 4.73941 18.418 4.73941L16.6488 4.94492C16.4805 4.96437 16.36 5.11656 16.3795 5.28492C16.399 5.45328 16.5509 5.57668 16.7195 5.55422L17.7299 5.43695L14.1382 9.78586L10.1246 8.0016C10.0243 7.95727 9.90745 7.96926 9.81847 8.03484L5.77378 11.005L1.72882 8.03488C1.59163 7.93453 1.39991 7.96418 1.30015 8.10047C1.1998 8.23707 1.22913 8.4291 1.36573 8.52914L5.59226 11.6326Z" fill="rgba(52, 69, 105, 1)"/>
<path d="M6.16723 7.57176C8.20606 7.57176 9.86473 5.91457 9.86473 3.87785C9.86473 1.84113 8.20606 0.183943 6.16723 0.183943C4.13052 0.183943 2.47333 1.84113 2.47333 3.87785C2.47333 5.91457 4.13048 7.57176 6.16723 7.57176ZM6.16723 0.797419C7.86786 0.797419 9.25122 2.17929 9.25122 3.87781C9.25122 5.57633 7.86782 6.9582 6.16723 6.9582C4.46872 6.9582 3.08684 5.57633 3.08684 3.87781C3.08684 2.17929 4.46872 0.797419 6.16723 0.797419Z" fill="rgba(52, 69, 105, 1)"/>
<path d="M6.22604 4.90952H5.44299C5.27342 4.90952 5.13623 5.04671 5.13623 5.21628C5.13623 5.38585 5.27342 5.52304 5.44299 5.52304H5.86326V5.68449C5.86326 5.85406 6.00045 5.99124 6.17002 5.99124C6.33959 5.99124 6.47678 5.85406 6.47678 5.68449V5.48624C6.89287 5.37472 7.20174 4.99784 7.20174 4.54702C7.20174 4.00902 6.76408 3.57105 6.22607 3.57105C6.19236 3.57105 6.08135 3.57105 6.11225 3.57105C5.91244 3.57105 5.74979 3.40839 5.74979 3.20859C5.74979 3.00878 5.91244 2.8464 6.11225 2.8464H6.89502C7.06459 2.8464 7.20178 2.70921 7.20178 2.53964C7.20178 2.37007 7.06459 2.23288 6.89502 2.23288H6.47678V2.07148C6.47678 1.90191 6.33959 1.76472 6.17002 1.76472C6.00045 1.76472 5.86326 1.90191 5.86326 2.07148V2.26913C5.44615 2.37999 5.13623 2.75745 5.13623 3.2089C5.13623 3.74691 5.5742 4.18456 6.11221 4.18456H6.22604C6.42584 4.18456 6.58822 4.34722 6.58822 4.54702C6.58822 4.74683 6.42584 4.90952 6.22604 4.90952V4.90952Z" fill="rgba(52, 69, 105, 1)"/>
</svg>
