<svg width="20" height="20" viewBox="0 0 20 20" fill="none" xmlns="http://www.w3.org/2000/svg">
<g clip-path="url(#clip0_313_4768)">
<path d="M19.6094 18.7847H18.4027V12.482C18.4027 12.2663 18.2278 12.0914 18.0121 12.0914C17.7964 12.0914 17.6215 12.2663 17.6215 12.482V18.7847H14.8165V15.5367C14.8165 15.321 14.6416 15.1461 14.4259 15.1461H11.8787C11.663 15.1461 11.488 15.321 11.488 15.5367V18.7847H8.74875V8.80522V2.70452H17.6215V9.03308C17.6215 9.24878 17.7964 9.4237 18.0121 9.4237C18.2278 9.4237 18.4027 9.24878 18.4027 9.03308V2.3139C18.4027 2.09819 18.2278 1.92327 18.0121 1.92327H17.0511V0.824677C17.0511 0.608973 16.8761 0.434052 16.6604 0.434052H9.80836C9.59266 0.434052 9.41773 0.608973 9.41773 0.824677V1.92327H8.35816C8.14246 1.92327 7.96754 2.09819 7.96754 2.3139V8.4146H4.90547V7.18831C4.90547 6.97261 4.73055 6.79768 4.51484 6.79768H1.82313C1.60742 6.79768 1.4325 6.97261 1.4325 7.18831V8.80522V18.7847H0.390625C0.174922 18.7847 0 18.9596 0 19.1753C0 19.391 0.174922 19.5659 0.390625 19.5659H19.6094C19.8251 19.5659 20 19.391 20 19.1753C20 18.9596 19.8251 18.7847 19.6094 18.7847V18.7847ZM10.199 1.2153H16.2698V1.92327H10.199V1.2153ZM2.21375 7.57893H4.12422V8.4146H2.21375V7.57893ZM5.54137 18.7845H4.5907V17.3897H5.54137V18.7845ZM7.96754 18.7847H6.32266V16.9991C6.32266 16.7834 6.14773 16.6085 5.93203 16.6085H4.20012C3.98441 16.6085 3.80949 16.7834 3.80949 16.9991V18.7847H2.21375V9.19585H4.51484H7.96754V18.7847ZM14.0353 18.7845H12.2693V15.9273H14.0353V18.7845Z" fill="#FFA500"/>
<path d="M18.3365 10.5844C18.1427 10.2939 17.6778 10.3985 17.6257 10.744C17.5726 11.0961 18.003 11.3286 18.2693 11.0952C18.4157 10.9668 18.4426 10.7463 18.3365 10.5844V10.5844Z" fill="#FFA500"/>
<path d="M12.5178 4.49451C12.5178 4.2788 12.3428 4.10388 12.1271 4.10388H10.4713C10.2556 4.10388 10.0807 4.2788 10.0807 4.49451V6.15032C10.0807 6.36603 10.2556 6.54095 10.4713 6.54095H12.1271C12.3428 6.54095 12.5178 6.36603 12.5178 6.15032V4.49451ZM11.7365 5.75966H10.8619V4.88509H11.7365V5.75966Z" fill="#FFA500"/>
<path d="M16.1785 4.49451C16.1785 4.2788 16.0036 4.10388 15.7879 4.10388H14.1321C13.9164 4.10388 13.7415 4.2788 13.7415 4.49451V6.15032C13.7415 6.36603 13.9164 6.54095 14.1321 6.54095H15.7879C16.0036 6.54095 16.1785 6.36603 16.1785 6.15032V4.49451ZM15.3973 5.75966H14.5227V4.88509H15.3973V5.75966Z" fill="#FFA500"/>
<path d="M12.5178 7.9101C12.5178 7.69439 12.3428 7.51947 12.1271 7.51947H10.4713C10.2556 7.51947 10.0807 7.69439 10.0807 7.9101V9.56592C10.0807 9.78162 10.2556 9.95654 10.4713 9.95654H12.1271C12.3428 9.95654 12.5178 9.78162 12.5178 9.56592V7.9101ZM11.7365 9.17529H10.8619V8.30072H11.7365V9.17529Z" fill="#FFA500"/>
<path d="M16.1785 7.9101C16.1785 7.69439 16.0036 7.51947 15.7879 7.51947H14.1321C13.9164 7.51947 13.7415 7.69439 13.7415 7.9101V9.56592C13.7415 9.78162 13.9164 9.95654 14.1321 9.95654H15.7879C16.0036 9.95654 16.1785 9.78162 16.1785 9.56592V7.9101ZM15.3973 9.17529H14.5227V8.30072H15.3973V9.17529Z" fill="#FFA500"/>
<path d="M12.1271 10.9351H10.4713C10.2556 10.9351 10.0807 11.11 10.0807 11.3257V12.9815C10.0807 13.1972 10.2556 13.3721 10.4713 13.3721H12.1271C12.3428 13.3721 12.5178 13.1972 12.5178 12.9815V11.3257C12.5178 11.11 12.3429 10.9351 12.1271 10.9351ZM11.7365 12.5909H10.8619V11.7163H11.7365V12.5909Z" fill="#FFA500"/>
<path d="M15.7879 10.9351H14.1321C13.9164 10.9351 13.7415 11.11 13.7415 11.3257V12.9815C13.7415 13.1972 13.9164 13.3721 14.1321 13.3721H15.7879C16.0036 13.3721 16.1785 13.1972 16.1785 12.9815V11.3257C16.1785 11.11 16.0036 10.9351 15.7879 10.9351ZM15.3973 12.5909H14.5227V11.7163H15.3973V12.5909Z" fill="#FFA500"/>
<path d="M3.46228 10.0959C3.24658 10.0959 3.07166 10.2709 3.07166 10.4866V15.3804C3.07166 15.5961 3.24658 15.7711 3.46228 15.7711C3.67798 15.7711 3.85291 15.5961 3.85291 15.3804V10.4866C3.85291 10.2709 3.67798 10.0959 3.46228 10.0959Z" fill="#FFA500"/>
<path d="M5.06225 15.7711C5.27796 15.7711 5.45288 15.5961 5.45288 15.3804V10.4866C5.45288 10.2709 5.27796 10.0959 5.06225 10.0959C4.84655 10.0959 4.67163 10.2709 4.67163 10.4866V15.3804C4.67163 15.5962 4.84651 15.7711 5.06225 15.7711Z" fill="#FFA500"/>
<path d="M6.66193 15.7711C6.87763 15.7711 7.05255 15.5961 7.05255 15.3804V10.4866C7.05255 10.2709 6.87763 10.0959 6.66193 10.0959C6.44622 10.0959 6.2713 10.2709 6.2713 10.4866V15.3804C6.2713 15.5962 6.44618 15.7711 6.66193 15.7711Z" fill="#FFA500"/>
</g>
<defs>
<clipPath id="clip0_313_4768">
<rect width="20" height="20" fill="white"/>
</clipPath>
</defs>
</svg>
