<svg width="20" height="20" viewBox="0 0 20 20" fill="none" xmlns="http://www.w3.org/2000/svg">
<g clip-path="url(#clip0_311_5323)">
<path d="M19.9666 12.1951L19.9696 12.1941L16.686 5.02952L17.4823 4.63319L17.1843 4.03653L16.408 4.42319L16.303 4.1942C16.2263 4.02686 16.0284 3.95341 15.8611 4.03011C15.7885 4.06341 15.7303 4.12161 15.697 4.1942L15.6033 4.39886C15.0383 4.13645 14.423 4.00028 13.8 3.99986H11.0001V3.3332H11.6667V2.66654H11.0937L11.3334 1.70755C11.5174 0.971182 11.0696 0.225063 10.3333 0.0410233C9.59689 -0.142975 8.85078 0.304771 8.66674 1.04114C8.61207 1.25989 8.61207 1.48876 8.66674 1.70751L8.9064 2.6665H8.33341V3.33316H9.00007V3.99982H6.20176C5.57818 4.00032 4.96218 4.13682 4.39677 4.39982L4.30311 4.19516C4.2264 4.02782 4.02852 3.95437 3.86119 4.03107C3.78861 4.06436 3.7304 4.12257 3.69711 4.19516L3.59211 4.42415L2.81578 4.03582L2.51779 4.63315L3.31411 5.03115L0.0304748 12.1941C0.010225 12.2377 -0.000108239 12.2851 0.000141759 12.3331C0.00160008 13.6212 1.04542 14.665 2.33346 14.6664H5.66676C6.95479 14.665 7.99862 13.6212 8.00007 12.3331C7.99924 12.2853 7.98787 12.2381 7.96674 12.1951L4.6741 5.00352C5.15272 4.78136 5.67409 4.66636 6.20176 4.66653H9.00007V16.8618L7.86208 17.9997H6.66675C5.74676 18.0008 5.00118 18.7464 5.0001 19.6664C5.0001 19.8505 5.14935 19.9997 5.33343 19.9997H14.6667C14.8508 19.9997 15 19.8505 15 19.6664C14.9989 18.7464 14.2534 18.0008 13.3334 17.9997H12.138L11.0001 16.8618V4.66653H13.8C14.3277 4.66636 14.8491 4.78136 15.3277 5.00352L12.0304 12.1941C12.0101 12.2377 11.9998 12.2851 12 12.3331C12.0015 13.6212 13.0453 14.665 14.3334 14.6664H17.6667C18.9547 14.665 19.9985 13.6212 20 12.3331C19.9992 12.2853 19.9878 12.2381 19.9666 12.1951ZM5.66676 13.9998H2.33346C1.54171 13.9989 0.85951 13.442 0.700136 12.6665H7.30008C7.14075 13.442 6.4585 13.9989 5.66676 13.9998ZM7.14742 11.9998H0.852801L3.91478 5.31952C3.97069 5.33452 4.02952 5.33452 4.08544 5.31952L7.14742 11.9998ZM9.4424 0.938557C9.70198 0.63056 10.1621 0.591352 10.4701 0.850933C10.5017 0.8776 10.5311 0.906933 10.5577 0.938557C10.6926 1.11006 10.7402 1.33439 10.6867 1.54589L10.4064 2.66654H9.59373L9.3134 1.54589C9.25994 1.33439 9.30761 1.11006 9.4424 0.938557ZM9.66673 3.99986V3.3332H10.3334V3.99986H9.66673ZM10.3334 4.66653V16.6664H9.66673V4.66653H10.3334ZM13.3334 18.6664C13.757 18.6669 14.1346 18.9338 14.2764 19.3331H5.72376C5.86555 18.9338 6.24309 18.6669 6.66675 18.6664H13.3334ZM11.1954 17.9997H8.80473L9.4714 17.3331H10.5287L11.1954 17.9997ZM15.914 5.32052C15.969 5.3399 16.0294 5.3374 16.0827 5.31352L19.1473 11.9998H12.8527L15.914 5.32052ZM17.6667 13.9998H14.3334C13.5416 13.9989 12.8594 13.442 12.7 12.6665H19.3C19.1406 13.442 18.4584 13.9989 17.6667 13.9998Z" fill="#FFA500"/>
</g>
<defs>
<clipPath id="clip0_311_5323">
<rect width="20" height="20" fill="white"/>
</clipPath>
</defs>
</svg>
