<svg width="20" height="20" viewBox="0 0 20 20" fill="none" xmlns="http://www.w3.org/2000/svg">
<path d="M11.528 16.6144C11.3661 16.6144 11.235 16.7456 11.235 16.9074C11.235 17.0692 11.3661 17.2003 11.528 17.2003H13.3614C13.5233 17.2003 13.6544 17.0692 13.6544 16.9074C13.6544 16.7456 13.5233 16.6144 13.3614 16.6144H11.528Z" fill="#FFA500"/>
<path d="M8.46401 16.6144H6.63049C6.46866 16.6144 6.33752 16.7456 6.33752 16.9074C6.33752 17.0692 6.46866 17.2003 6.63049 17.2003H8.46401C8.62585 17.2003 8.75698 17.0692 8.75698 16.9074C8.75698 16.7456 8.62581 16.6144 8.46401 16.6144Z" fill="#FFA500"/>
<path d="M15.7419 5.74713V5.24334C15.7419 4.84619 15.4188 4.52307 15.0216 4.52307H14.546C14.4186 3.35796 13.8488 2.31316 12.9872 1.58038V1.29593C12.9872 1.13414 12.8561 1.00296 12.6942 1.00296C12.5758 1.00296 12.4741 1.07332 12.4279 1.17441C12.1362 0.995074 11.8209 0.847692 11.4866 0.736481C11.4395 0.322655 11.0877 0 10.6614 0H9.33883C8.90848 0 8.5536 0.328905 8.51204 0.748513C8.17966 0.858512 7.8661 1.00425 7.57583 1.18168C7.5313 1.07664 7.42728 1.00293 7.30599 1.00293C7.14415 1.00293 7.01302 1.1341 7.01302 1.29589V1.58855C6.15212 2.31862 5.58252 3.36046 5.45463 4.52307H4.97869C4.58151 4.52307 4.25842 4.84619 4.25842 5.24334V5.74709C4.25842 6.14423 4.58151 6.46736 4.97869 6.46736H5.47416C5.36404 6.67505 5.30385 6.90454 5.30385 7.1372C5.30385 7.88364 5.90568 8.52887 6.71986 8.59032C6.8229 9.49578 7.29817 10.3138 8.04216 10.849V11.6794L7.99305 11.6985C7.99298 11.6986 7.99286 11.6986 7.99278 11.6987C7.74981 11.7935 4.04745 13.2396 3.83499 13.3225C3.83334 13.3232 3.8317 13.3238 3.83006 13.3245C2.95913 13.6829 2.02179 14.7102 2.02179 16.1186V19.1648C2.02179 19.6253 2.3964 19.9999 2.85686 19.9999H17.1434C17.6039 19.9999 17.9785 19.6253 17.9785 19.1648V18.0335C17.9785 17.8717 17.8474 17.7406 17.6855 17.7406C17.5237 17.7406 17.3925 17.8717 17.3925 18.0335V19.1648C17.3925 19.3022 17.2808 19.4139 17.1434 19.4139H15.1865V16.0597C15.1865 15.8979 15.0553 15.7667 14.8935 15.7667C14.7317 15.7667 14.6005 15.8979 14.6005 16.0597V19.4139H10.2889V15.201C10.2889 15.0392 10.1578 14.908 9.99598 14.908C9.83414 14.908 9.70301 15.0392 9.70301 15.201V19.4141H5.39967V16.0598C5.39967 15.898 5.26853 15.7668 5.1067 15.7668C4.94486 15.7668 4.81373 15.898 4.81373 16.0598V19.4141H2.85683C2.71944 19.4141 2.60769 19.3023 2.60769 19.1649V16.1188C2.60769 14.9042 3.46979 14.1076 4.05077 13.8674L6.53247 12.8981L8.0672 14.8198C8.25411 15.0538 8.59399 15.0891 8.82493 14.9046L9.61988 14.2697C9.66996 14.2297 9.71043 14.1823 9.74215 14.1306H10.258C10.2897 14.1823 10.3302 14.2297 10.3803 14.2697L11.1753 14.9046C11.4082 15.0907 11.7493 15.0498 11.933 14.8198L13.4628 12.9043L15.95 13.8676C16.6673 14.1643 17.3925 15.0321 17.3925 16.1188V16.6665C17.3925 16.8283 17.5237 16.9595 17.6855 16.9595C17.8474 16.9595 17.9785 16.8283 17.9785 16.6665V16.1188C17.9785 14.9118 17.2349 13.7628 16.1703 13.3246C16.1684 13.3239 16.1665 13.3231 16.1646 13.3223C15.693 13.1397 12.4903 11.8994 11.9983 11.7088H11.9983L11.9613 11.6945C11.9589 11.6935 11.9564 11.6909 11.9564 11.6878L11.9557 10.8528C12.6757 10.3291 13.1737 9.51848 13.2804 8.59008C14.0972 8.52637 14.6965 7.87782 14.6965 7.13333C14.6965 6.90189 14.6415 6.67372 14.5411 6.46747H15.0217C15.4188 6.4674 15.7419 6.14427 15.7419 5.74713ZM12.9873 2.39698C13.5097 2.98007 13.8555 3.71698 13.9569 4.52307H12.9873V2.39698ZM11.4924 1.36074C11.8209 1.48902 12.1256 1.65898 12.4013 1.86331V4.52307H11.4924V1.36074ZM9.09379 0.830973C9.09379 0.695857 9.20368 0.585935 9.33879 0.585935H10.6614C10.7965 0.585935 10.9064 0.695857 10.9064 0.830973V4.52307H9.09375C9.09379 4.08385 9.09379 1.2655 9.09379 0.830973ZM7.59892 1.87214C7.87466 1.66855 8.17938 1.49933 8.50786 1.37183V4.52307H7.59892V1.87214ZM7.01298 2.40413V4.52307H6.04373C6.14556 3.71928 6.49115 2.98491 7.01298 2.40413ZM6.69779 7.99942C6.24736 7.93665 5.88974 7.58017 5.88974 7.13728C5.88974 6.89407 6.01013 6.64454 6.20877 6.46744H6.69779V7.99942ZM8.49587 14.4176L7.10407 12.6749L8.00524 12.3229L9.2177 13.841L8.49587 14.4176ZM10.2955 13.5119C10.287 13.5226 10.2789 13.5335 10.2713 13.5446H9.72899C9.72137 13.5335 9.71332 13.5226 9.70481 13.512L8.5204 12.0289C8.56434 11.9683 8.59544 11.8998 8.61255 11.8256C8.62282 11.7811 8.62805 11.7344 8.62805 11.6862V11.1844C9.46731 11.5542 10.4817 11.5897 11.37 11.1922L11.3704 11.6888C11.3708 11.8148 11.4099 11.9331 11.4787 12.0304L11.4751 12.0349L10.2955 13.5119ZM11.987 12.3328L12.8901 12.6825L11.5044 14.4176L10.7825 13.8411L11.987 12.3328ZM13.3024 7.99876V6.4674H13.8324C14.008 6.64263 14.1105 6.88505 14.1105 7.13325C14.1105 7.57712 13.7529 7.9343 13.3024 7.99876ZM10.6837 5.88146C10.5219 5.88146 10.3907 6.01263 10.3907 6.17443C10.3907 6.33623 10.5219 6.4674 10.6837 6.4674H12.7165V8.21591C12.7165 9.68528 11.5182 10.8893 10.043 10.8893C8.4036 10.8893 7.28372 9.61418 7.28372 8.21591V6.4674H9.31653C9.47836 6.4674 9.60949 6.33623 9.60949 6.17443C9.60949 6.01263 9.47836 5.88146 9.31653 5.88146C8.65313 5.88146 5.46955 5.88146 4.97865 5.88146C4.90459 5.88146 4.84432 5.82119 4.84432 5.74713V5.24334C4.84432 5.16928 4.90459 5.109 4.97865 5.109H15.0216C15.0957 5.109 15.156 5.16928 15.156 5.24334V5.74709C15.156 5.82115 15.0957 5.88142 15.0216 5.88142C14.1706 5.88146 11.6503 5.88146 10.6837 5.88146Z" fill="#FFA500"/>
</svg>
