<svg width="20" height="20" viewBox="0 0 20 20" fill="none" xmlns="http://www.w3.org/2000/svg">
<g clip-path="url(#clip0_311_5244)">
<path d="M19.7257 9.68023C19.7254 9.68019 19.7251 9.6801 19.7248 9.68006C19.5436 9.64773 19.3705 9.76847 19.3382 9.9497C19.0599 11.4902 18.3663 12.9255 17.332 14.1006C15.9787 15.6527 14.0479 16.5817 11.9905 16.6707C11.2494 16.7019 10.5087 16.6018 9.8024 16.3751C8.66855 16.025 7.67731 15.3195 6.975 14.363C5.98376 13.0174 5.79178 11.3716 6.47505 10.067C6.73873 9.53874 7.16048 9.1057 7.6816 8.82814C8.07531 8.62166 8.52831 8.55771 8.96381 8.64716C9.01581 8.67016 9.0718 8.68949 9.12813 8.70815C9.5083 8.82414 9.77332 9.16819 9.7884 9.56541C9.59125 9.53295 9.38998 9.53474 9.19346 9.57074C8.72821 9.70052 8.34266 10.0267 8.13756 10.464C8.1071 10.5288 8.08115 10.5956 8.0599 10.664C8.04865 10.7022 8.03473 10.7396 8.01823 10.776C8.00819 10.7957 8.00028 10.8165 7.99457 10.838C7.85471 11.4367 7.93183 12.0656 8.21222 12.6128C8.55202 13.2628 9.08722 13.7898 9.74241 14.1196C11.2756 14.9219 13.1898 14.7096 14.7419 13.566C16.6293 12.1507 17.6059 9.82696 17.2964 7.48827C17.0753 5.42746 16.084 3.52622 14.521 2.1651C13.2509 1.05937 11.7077 0.314227 10.052 0.0072974C9.87185 -0.0305741 9.69512 0.0847485 9.65725 0.264898C9.61938 0.445048 9.7347 0.621782 9.91485 0.659653C9.92152 0.66107 9.92826 0.662278 9.93501 0.663236C11.4732 0.949626 12.9066 1.64269 14.0863 2.67038C15.5212 3.92031 16.4312 5.66589 16.6344 7.55793C16.9171 9.65994 16.0431 11.7508 14.3486 13.0264C13.0034 14.0177 11.3575 14.2093 10.053 13.5264C9.52459 13.2627 9.09147 12.841 8.81379 12.3198C8.60768 11.9257 8.54377 11.4726 8.6328 11.0369C8.6558 10.9849 8.67546 10.9289 8.69446 10.8726C8.70559 10.8344 8.7195 10.7971 8.73613 10.761C8.84978 10.5056 9.06576 10.31 9.33107 10.222C9.40819 10.2098 9.48635 10.2052 9.56438 10.2083C9.53047 10.407 9.53205 10.6101 9.56905 10.8083C9.69904 11.2733 10.0252 11.6587 10.4623 11.8639C10.527 11.8945 10.5938 11.9203 10.6623 11.9412C10.7005 11.9527 10.7379 11.9667 10.7743 11.9832C10.7941 11.9933 10.8148 12.0013 10.8363 12.0072C11.4349 12.1471 12.0638 12.0698 12.6108 11.7892C13.261 11.4496 13.7882 10.9142 14.1176 10.2587C14.9199 8.72782 14.7079 6.812 13.5647 5.25914C12.1488 3.37161 9.82432 2.39528 7.48524 2.70571C5.42539 2.92694 3.52511 3.91797 2.16474 5.48045C1.0588 6.75038 0.31354 8.29361 0.00661032 9.94937C-0.0288447 10.13 0.088811 10.3052 0.269461 10.3406C0.45011 10.3761 0.625261 10.2584 0.660716 10.0778C0.661382 10.0744 0.661966 10.0711 0.662549 10.0676C0.948647 8.52925 1.64146 7.09551 2.66903 5.91537C3.91929 4.48092 5.66491 3.57126 7.5569 3.36828C9.65904 3.08547 11.7501 3.95947 13.0257 5.65406C14.0173 6.9996 14.2086 8.64545 13.5257 9.95C13.262 10.4783 12.8402 10.9113 12.3191 11.1889C11.9253 11.395 11.4724 11.4589 11.0369 11.3699C10.9849 11.3469 10.9286 11.3269 10.8703 11.3082C10.8323 11.2972 10.7952 11.2834 10.7593 11.2669C10.504 11.153 10.3084 10.9371 10.22 10.6719C10.2073 10.5931 10.2027 10.5133 10.2063 10.4336C10.893 10.5434 11.5672 10.1758 11.8468 9.53903C11.8777 9.47437 11.9039 9.4075 11.9252 9.33905C11.9365 9.30093 11.9504 9.2636 11.9668 9.2274C11.9766 9.20761 11.9845 9.18698 11.9905 9.16573C12.1301 8.567 12.053 7.93818 11.7728 7.3909C11.4327 6.741 10.8975 6.21401 10.2423 5.88404C8.71146 5.08212 6.79564 5.2941 5.24045 6.43999C4.1753 7.22904 3.38825 8.3359 2.99266 9.60103C2.74594 10.3805 2.63524 11.1967 2.66536 12.0138C2.76127 14.2563 3.77338 16.3611 5.4651 17.8363C6.73052 18.9497 8.27617 19.696 9.93501 19.9947C9.95447 19.9983 9.97422 20.0001 9.99401 20.0001C10.1781 19.9995 10.3269 19.8498 10.3263 19.6657C10.3258 19.5049 10.2106 19.3674 10.0523 19.3388C8.51211 19.0609 7.07703 18.3675 5.90206 17.3336C4.3497 15.9804 3.42054 14.0496 3.33163 11.9921C3.30226 11.2511 3.40229 10.5107 3.62727 9.80401C3.97741 8.67016 4.68284 7.67891 5.63942 6.9766C6.98496 5.98536 8.63047 5.79405 9.93535 6.47665C10.4636 6.74054 10.8967 7.16221 11.1746 7.68321C11.3805 8.07734 11.4443 8.53042 11.3552 8.96609C11.3322 9.01775 11.3129 9.07374 11.2942 9.12974C11.2808 9.17373 11.2641 9.21673 11.2446 9.25839C11.1045 9.58132 10.7866 9.79068 10.4346 9.79168C10.5422 9.10595 10.1741 8.4338 9.53838 8.15516C9.47368 8.12446 9.40685 8.0985 9.3384 8.0775C9.3002 8.066 9.26278 8.05196 9.22641 8.03551C9.20679 8.02567 9.18625 8.01776 9.16509 8.01184C8.56639 7.87261 7.93778 7.94985 7.39059 8.22982C6.74048 8.56954 6.2134 9.10478 5.88373 9.76001C5.08147 11.2912 5.29378 13.207 6.43934 14.7615C7.2276 15.8267 8.33341 16.6142 9.59771 17.011C10.3008 17.2344 11.0345 17.346 11.7722 17.342C11.8515 17.342 11.9312 17.342 12.0112 17.3383C14.2539 17.2423 16.359 16.2299 17.8343 14.5379C18.948 13.2724 19.6949 11.7267 19.9941 10.0676C20.0269 9.88658 19.9068 9.7131 19.7257 9.68023Z" fill="#FFA500"/>
</g>
<defs>
<clipPath id="clip0_311_5244">
<rect width="20" height="20" fill="white"/>
</clipPath>
</defs>
</svg>
