<svg width="20" height="20" viewBox="0 0 20 20" fill="none" xmlns="http://www.w3.org/2000/svg">
<g clip-path="url(#clip0_311_5318)">
<path d="M15.9447 -1.14441e-05H7.69082C6.84501 -1.14441e-05 6.15685 0.690117 6.15685 1.53845V3.19875C6.11146 3.26965 3.12219 8.7746 3.12219 8.7746C2.28612 10.3111 2.32505 12.1978 3.22373 13.6983L4.63005 16.0464V18.4615C4.63005 19.3099 5.31821 20 6.16403 20H11.6541C12.4999 20 13.188 19.3099 13.188 18.4615L13.1952 13.4009H15.9447C16.7905 13.4009 17.4786 12.7108 17.4786 11.8625V1.53845C17.4787 0.690117 16.7905 -1.14441e-05 15.9447 -1.14441e-05V-1.14441e-05ZM4.32373 9.42815L6.15689 6.0593V11.8625C6.15689 12.7108 6.84505 13.4009 7.69086 13.4009H9.40407C9.7818 13.4009 10.088 13.0948 10.088 12.7172V10.4016C10.088 9.92862 10.4785 9.54383 10.9586 9.54383C11.4386 9.54383 11.8291 9.92862 11.8291 10.4012L11.8265 15.1736H5.70163L4.39736 12.9957C3.74612 11.9085 3.71796 10.5415 4.32373 9.42815ZM11.8203 18.4615C11.8203 18.5558 11.7458 18.6325 11.6542 18.6325H6.16411C6.07244 18.6325 5.99792 18.5558 5.99792 18.4615V16.5411H11.8204V18.4615H11.8203ZM16.1109 11.8625C16.1109 11.9567 16.0364 12.0334 15.9448 12.0334H13.196L13.1969 10.4016C13.1969 9.17456 12.1927 8.17631 10.9586 8.17631C9.72433 8.17631 8.72018 9.17456 8.72018 10.4016V12.0334H7.69086C7.59924 12.0334 7.52471 11.9567 7.52471 11.8625V1.53845C7.52471 1.44418 7.59924 1.36751 7.69086 1.36751H15.9448C16.0364 1.36751 16.1109 1.44418 16.1109 1.53845V11.8625Z" fill="#FFA500"/>
<path d="M11.8311 6.36204C11.4879 6.36204 11.2292 6.63503 11.2292 6.99699C11.2292 7.35896 11.4879 7.63195 11.8311 7.63195C12.1798 7.63195 12.4329 7.3649 12.4329 6.99699C12.4329 6.62909 12.1798 6.36204 11.8311 6.36204Z" fill="#FFA500"/>
<path d="M11.3861 5.45396C11.3992 5.68875 11.5957 5.88221 11.8311 5.88221C12.0665 5.88221 12.263 5.6887 12.2761 5.45396L12.4278 2.73742C12.4469 2.39627 12.1734 2.09328 11.8311 2.09328C11.4888 2.09328 11.2153 2.39631 11.2343 2.73742L11.3861 5.45396Z" fill="#FFA500"/>
</g>
<defs>
<clipPath id="clip0_311_5318">
<rect width="20" height="20" fill="white"/>
</clipPath>
</defs>
</svg>
