<svg width="20" height="20" viewBox="0 0 20 20" fill="none" xmlns="http://www.w3.org/2000/svg">
<path d="M16.1957 6.00834C16.2832 5.52499 16.2618 5.02822 16.1332 4.55417C15.9802 3.98562 15.6794 3.46772 15.2614 3.05315C14.8433 2.63858 14.3229 2.34213 13.7531 2.19396C13.1833 2.04579 12.5844 2.05119 12.0174 2.20961C11.4503 2.36802 10.9354 2.6738 10.5248 3.09584C10.1824 2.30434 9.57758 1.65506 8.81233 1.2574C8.04708 0.859737 7.16815 0.737989 6.32362 0.912669C5.47908 1.08735 4.72057 1.54778 4.17586 2.21639C3.63115 2.885 3.33354 3.72093 3.33318 4.58334C3.3311 4.62359 3.3311 4.66392 3.33318 4.70417C2.62395 4.89518 1.99627 5.31208 1.54517 5.89174C1.09408 6.4714 0.84413 7.18225 0.833176 7.91667V7.95834C0.861524 8.95894 1.28184 9.90835 2.00354 10.602C2.72525 11.2956 3.69057 11.678 4.69151 11.6667H8.14984L7.10817 14.4375C7.08459 14.5006 7.07666 14.5686 7.08509 14.6354C7.09351 14.7023 7.11803 14.7661 7.15655 14.8214C7.19506 14.8767 7.24641 14.9219 7.30621 14.953C7.366 14.9841 7.43244 15.0002 7.49984 15H8.60817L7.49984 18.6292C7.47191 18.721 7.47655 18.8197 7.513 18.9086C7.54944 18.9974 7.61544 19.0709 7.69984 19.1167C7.7662 19.1527 7.84109 19.1699 7.91651 19.1667C7.97669 19.1667 8.03616 19.1536 8.09083 19.1285C8.14549 19.1033 8.19406 19.0666 8.23318 19.0208L12.8165 13.6042C12.8683 13.5436 12.9016 13.4695 12.9126 13.3906C12.9235 13.3117 12.9116 13.2314 12.8783 13.159C12.845 13.0867 12.7916 13.0254 12.7246 12.9824C12.6575 12.9395 12.5795 12.9167 12.4998 12.9167H11.0332L11.5332 11.6667H16.6665C17.3295 11.6667 17.9654 11.4033 18.4343 10.9344C18.9031 10.4656 19.1665 9.82971 19.1665 9.16667C19.1827 8.76328 19.1182 8.36072 18.977 7.98252C18.8358 7.60431 18.6206 7.25806 18.3439 6.964C18.0673 6.66994 17.7349 6.43396 17.366 6.26987C16.9972 6.10579 16.5993 6.01687 16.1957 6.00834ZM10.0707 13.5667C10.1089 13.6232 10.1604 13.6695 10.2207 13.7015C10.281 13.7334 10.3483 13.7501 10.4165 13.75H11.5998L8.89151 16.9542L9.58317 14.7042C9.60197 14.6415 9.60573 14.5752 9.59415 14.5108C9.58257 14.4464 9.55597 14.3856 9.51651 14.3333C9.47604 14.2793 9.42304 14.2359 9.36207 14.2068C9.3011 14.1778 9.23399 14.164 9.16651 14.1667H8.09984L9.03734 11.6667H10.6332L10.029 13.1792C10.0038 13.2423 9.99448 13.3106 10.0017 13.3781C10.009 13.4456 10.0327 13.5104 10.0707 13.5667ZM16.6665 10.8333H4.69151C3.90483 10.8434 3.14592 10.5428 2.57955 9.99672C2.01319 9.45064 1.6851 8.7032 1.66651 7.91667C1.66651 7.00834 2.24568 5.80834 3.87484 5.41667C3.97566 5.3937 4.06433 5.33406 4.12362 5.24936C4.18292 5.16465 4.2086 5.06092 4.19568 4.95834C4.17771 4.83411 4.16796 4.70884 4.16651 4.58334C4.16919 3.85547 4.44394 3.15491 4.93677 2.61926C5.4296 2.08361 6.10491 1.7516 6.83003 1.68843C7.55516 1.62526 8.2777 1.83551 8.85573 2.27787C9.43376 2.72023 9.82551 3.36273 9.95401 4.07917C9.96918 4.1638 10.0102 4.24167 10.0713 4.3021C10.1325 4.36252 10.2109 4.40254 10.2957 4.41667C10.378 4.42739 10.4616 4.41329 10.5358 4.37617C10.6101 4.33905 10.6715 4.28061 10.7123 4.20834C10.9557 3.77845 11.3209 3.43029 11.7619 3.20778C12.2029 2.98528 12.7 2.89841 13.1903 2.95815C13.6807 3.01788 14.1423 3.22154 14.517 3.54341C14.8917 3.86528 15.1627 4.29094 15.2957 4.76667C15.434 5.26998 15.4078 5.80436 15.2207 6.29167C15.1931 6.36041 15.1844 6.43525 15.1954 6.50848C15.2064 6.58172 15.2367 6.6507 15.2832 6.70834C15.3265 6.76395 15.3833 6.80766 15.4482 6.83535C15.513 6.86304 15.5838 6.87382 15.654 6.86667C15.9948 6.81783 16.3421 6.84238 16.6727 6.93868C17.0032 7.03497 17.3094 7.20078 17.5707 7.425C17.8129 7.64552 18.006 7.91457 18.1374 8.21465C18.2687 8.51473 18.3355 8.8391 18.3332 9.16667C18.3332 9.6087 18.1576 10.0326 17.845 10.3452C17.5325 10.6577 17.1085 10.8333 16.6665 10.8333Z" fill="#FFA500"/>
<path d="M3.97894 13.7042C4.03657 13.735 4.10107 13.7508 4.16644 13.75C4.24338 13.7498 4.31876 13.7282 4.38421 13.6878C4.44967 13.6473 4.50265 13.5896 4.53727 13.5208L4.95394 12.6875C4.99438 12.5904 4.99659 12.4816 4.96011 12.3829C4.92364 12.2842 4.85118 12.203 4.7573 12.1555C4.66341 12.108 4.55504 12.0978 4.45394 12.1269C4.35285 12.1561 4.26651 12.2224 4.21227 12.3125L3.7956 13.1458C3.74618 13.2442 3.73772 13.3582 3.77208 13.4628C3.80643 13.5674 3.8808 13.6542 3.97894 13.7042Z" fill="#FFA500"/>
<path d="M16.0206 12.1292C15.9222 12.0798 15.8083 12.0713 15.7036 12.1056C15.599 12.14 15.5123 12.2144 15.4623 12.3125L15.0456 13.1458C14.9962 13.2442 14.9878 13.3582 15.0221 13.4628C15.0565 13.5675 15.1308 13.6542 15.229 13.7042C15.2866 13.735 15.3511 13.7508 15.4165 13.75C15.4934 13.7498 15.5688 13.7282 15.6342 13.6878C15.6997 13.6473 15.7527 13.5896 15.7873 13.5208L16.204 12.6875C16.2534 12.5891 16.2618 12.4751 16.2275 12.3705C16.1931 12.2659 16.1188 12.1791 16.0206 12.1292Z" fill="#FFA500"/>
<path d="M3.56228 17.8708C3.61991 17.9017 3.68442 17.9175 3.74978 17.9167C3.82673 17.9164 3.9021 17.8949 3.96756 17.8545C4.03301 17.814 4.08599 17.7562 4.12061 17.6875L4.53728 16.8542C4.57772 16.7571 4.57993 16.6482 4.54346 16.5496C4.50698 16.4509 4.43453 16.3696 4.34064 16.3222C4.24675 16.2747 4.13838 16.2645 4.03729 16.2936C3.93619 16.3228 3.84986 16.389 3.79561 16.4792L3.37895 17.3125C3.32953 17.4109 3.32107 17.5249 3.35542 17.6295C3.38977 17.7341 3.46415 17.8209 3.56228 17.8708Z" fill="#FFA500"/>
<path d="M11.2498 17.9167C11.3267 17.9164 11.4021 17.8949 11.4676 17.8545C11.533 17.814 11.586 17.7562 11.6206 17.6875L12.0373 16.8542C12.0777 16.7571 12.0799 16.6482 12.0435 16.5496C12.007 16.4509 11.9345 16.3696 11.8406 16.3222C11.7468 16.2747 11.6384 16.2645 11.5373 16.2936C11.4362 16.3228 11.3499 16.389 11.2956 16.4792L10.879 17.3125C10.8295 17.4109 10.8211 17.5249 10.8554 17.6295C10.8898 17.7341 10.9642 17.8209 11.0623 17.8708C11.1199 17.9017 11.1844 17.9175 11.2498 17.9167Z" fill="#FFA500"/>
<path d="M14.8123 17.8708C14.87 17.9017 14.9345 17.9175 14.9998 17.9167C15.0768 17.9164 15.1521 17.8949 15.2176 17.8545C15.2831 17.814 15.336 17.7562 15.3707 17.6875L15.7873 16.8542C15.8278 16.7571 15.83 16.6482 15.7935 16.5496C15.757 16.4509 15.6846 16.3696 15.5907 16.3222C15.4968 16.2747 15.3884 16.2645 15.2873 16.2936C15.1862 16.3228 15.0999 16.389 15.0457 16.4792L14.629 17.3125C14.5796 17.4109 14.5711 17.5249 14.6055 17.6295C14.6398 17.7341 14.7142 17.8209 14.8123 17.8708Z" fill="#FFA500"/>
<path d="M5.83325 15.8333C5.9102 15.8331 5.98558 15.8116 6.05103 15.7711C6.11649 15.7307 6.16946 15.6729 6.20409 15.6042L6.62075 14.7708C6.6612 14.6737 6.6634 14.5649 6.62693 14.4662C6.59045 14.3675 6.518 14.2863 6.42411 14.2388C6.33022 14.1914 6.22185 14.1812 6.12076 14.2103C6.01966 14.2394 5.93333 14.3057 5.87909 14.3958L5.46242 15.2292C5.413 15.3276 5.40454 15.4415 5.43889 15.5462C5.47325 15.6508 5.54762 15.7376 5.64575 15.7875C5.70339 15.8184 5.76789 15.8341 5.83325 15.8333Z" fill="#FFA500"/>
<path d="M13.3333 15.8333C13.4102 15.8331 13.4856 15.8116 13.551 15.7711C13.6165 15.7307 13.6695 15.6729 13.7041 15.6042L14.1208 14.7708C14.1503 14.7218 14.1694 14.6671 14.1769 14.6103C14.1843 14.5535 14.18 14.4957 14.1641 14.4407C14.1483 14.3856 14.1212 14.3344 14.0847 14.2903C14.0481 14.2462 14.0029 14.21 13.9518 14.1842C13.9006 14.1583 13.8447 14.1433 13.7875 14.14C13.7303 14.1368 13.673 14.1453 13.6193 14.1652C13.5656 14.1851 13.5165 14.2158 13.4752 14.2555C13.4338 14.2952 13.4011 14.3429 13.3791 14.3958L12.9624 15.2292C12.913 15.3276 12.9046 15.4415 12.9389 15.5462C12.9733 15.6508 13.0476 15.7376 13.1458 15.7875C13.2034 15.8184 13.2679 15.8341 13.3333 15.8333Z" fill="#FFA500"/>
<path d="M16.8958 15.7875C16.9534 15.8184 17.0179 15.8341 17.0833 15.8333C17.1602 15.8331 17.2356 15.8116 17.3011 15.7711C17.3665 15.7307 17.4195 15.6729 17.4541 15.6042L17.8708 14.7708C17.9112 14.6737 17.9135 14.5649 17.877 14.4662C17.8405 14.3675 17.768 14.2863 17.6742 14.2388C17.5803 14.1914 17.4719 14.1812 17.3708 14.2103C17.2697 14.2394 17.1834 14.3057 17.1291 14.3958L16.7125 15.2292C16.663 15.3276 16.6546 15.4415 16.6889 15.5462C16.7233 15.6508 16.7977 15.7376 16.8958 15.7875Z" fill="#FFA500"/>
<path d="M2.08325 15.8333C2.16019 15.8331 2.23557 15.8116 2.30102 15.7711C2.36648 15.7307 2.41945 15.6729 2.45408 15.6042L2.87075 14.7708C2.91119 14.6737 2.91339 14.5649 2.87692 14.4662C2.84045 14.3675 2.76799 14.2863 2.6741 14.2388C2.58022 14.1914 2.47185 14.1812 2.37075 14.2103C2.26966 14.2394 2.18332 14.3057 2.12908 14.3958L1.71241 15.2292C1.66299 15.3276 1.65453 15.4415 1.68889 15.5462C1.72324 15.6508 1.79761 15.7376 1.89575 15.7875C1.95338 15.8184 2.01788 15.8341 2.08325 15.8333Z" fill="#FFA500"/>
</svg>
