<svg width="20" height="20" viewBox="0 0 20 20" fill="none" xmlns="http://www.w3.org/2000/svg">
<path d="M0.833742 9.95817H2.50149V12.4634H4.16923V9.12316C4.16923 8.62208 3.83562 8.28814 3.33528 8.28814H3.00182L10.0061 1.94148L17.0104 8.28814H16.6769C16.1766 8.28814 15.843 8.62208 15.843 9.12316V13.2986H17.5107V9.95817H19.1785C19.9289 9.95817 20.2624 9.03967 19.7622 8.5386L10.5898 0.187959C10.2562 -0.0626531 9.75601 -0.0626531 9.50577 0.187959L0.333556 8.5386C-0.250147 9.03967 0.0833105 9.95817 0.833742 9.95817Z" fill="rgba(254, 133, 37, 1)"/>
<path d="M7.50456 5.78294H9.17231V7.45297H7.50456V5.78294Z" fill="rgba(254, 133, 37, 1)"/>
<path d="M10.84 5.78294H12.5078V7.45297H10.84V5.78294Z" fill="rgba(254, 133, 37, 1)"/>
<path d="M7.50456 8.28814H9.17231V9.95818H7.50456V8.28814Z" fill="rgba(254, 133, 37, 1)"/>
<path d="M10.84 8.28814H12.5078V9.95818H10.84V8.28814Z" fill="rgba(254, 133, 37, 1)"/>
<path d="M16.3434 15.8038L15.7597 14.5512C15.4262 13.9666 14.5923 13.9666 14.2588 14.5512L13.4249 16.3047L11.5905 12.1294C11.3403 11.5449 10.4231 11.4614 10.0895 12.046L7.50462 17.3068L5.75351 13.7995C5.50342 13.2149 4.66947 13.2149 4.33601 13.716L2.91852 15.8038H0V17.4738H3.33534C3.58558 17.4738 3.83568 17.3068 4.0024 17.1399L4.83635 15.8038L6.67083 19.5616C7.00428 20.1461 7.83823 20.1461 8.17169 19.5616L10.6732 14.4675L12.5077 18.6429C12.7578 19.2275 13.6751 19.311 14.0086 18.7264L14.9259 16.8892L15.0092 17.0564C15.176 17.3068 15.4262 17.4738 15.7597 17.5573L19.929 17.6409V15.9707L16.3434 15.8038Z" fill="rgba(254, 133, 37, 1)"/>
</svg>
