<svg width="20" height="20" viewBox="0 0 20 20" fill="none" xmlns="http://www.w3.org/2000/svg">
    <path
        d="M9.83404 4.99347C7.39654 4.99347 5.41349 6.97652 5.41349 9.41406C5.41349 11.8516 7.39654 13.8346 9.83404 13.8346C12.2715 13.8346 14.2546 11.8516 14.2546 9.41406C14.2546 6.97656 12.2715 4.99347 9.83404 4.99347V4.99347ZM8.42498 5.84765C8.07841 6.3257 7.80709 6.9796 7.64517 7.74523H6.38201C6.79986 6.88441 7.53037 6.20234 8.42498 5.84765ZM5.99943 9.41406C5.99943 9.03812 6.05408 8.67472 6.15537 8.33116H7.54587C7.50111 8.67663 7.47728 9.03913 7.47728 9.41406C7.47728 9.78898 7.50111 10.1515 7.54587 10.4969H6.15537C6.05408 10.1534 5.99943 9.78999 5.99943 9.41406V9.41406ZM6.38205 11.0829H7.64521C7.80712 11.8485 8.07845 12.5025 8.42502 12.9805C7.53037 12.6258 6.79986 11.9437 6.38205 11.0829V11.0829ZM9.54107 13.1897C9.01209 12.9793 8.50248 12.2152 8.24228 11.0829H9.54107V13.1897ZM9.54107 10.4969H8.13548C8.08892 10.1594 8.06322 9.7973 8.06322 9.41406C8.06322 9.03081 8.08888 8.6687 8.13548 8.33116H9.54107V10.4969ZM9.54107 7.74523H8.24228C8.50248 6.61292 9.01209 5.84882 9.54107 5.63839V7.74523ZM10.127 5.63839C10.656 5.84882 11.1656 6.61292 11.4258 7.74523H10.127V5.63839ZM10.127 8.33116H11.5326C11.5792 8.6687 11.6049 9.03081 11.6049 9.41406C11.6049 9.7973 11.5792 10.1594 11.5326 10.4969H10.127V8.33116ZM10.127 13.1897V11.0829H11.4258C11.1656 12.2152 10.656 12.9793 10.127 13.1897ZM11.2431 12.9805C11.5897 12.5024 11.861 11.8485 12.0229 11.0829H13.2861C12.8682 11.9437 12.1377 12.6258 11.2431 12.9805ZM13.6687 9.41406C13.6687 9.78999 13.614 10.1534 13.5127 10.4969H12.1222C12.167 10.1515 12.1908 9.78898 12.1908 9.41406C12.1908 9.03913 12.167 8.67663 12.1222 8.33116H13.5127C13.614 8.67472 13.6687 9.03812 13.6687 9.41406V9.41406ZM12.0229 7.74523C11.861 6.9796 11.5896 6.32566 11.2431 5.84765C12.1377 6.20238 12.8682 6.88441 13.286 7.74523H12.0229Z"
        fill="#7A4CF5" />
    <path
        d="M19.707 4.6875H18.2031C18.0413 4.6875 17.9102 4.81867 17.9102 4.98047C17.9102 5.14227 18.0413 5.27344 18.2031 5.27344H19.4141V18.2422H17.0305C17.2148 17.9972 17.3242 17.6928 17.3242 17.3633V3.80859C17.3242 3.00086 16.6671 2.34375 15.8594 2.34375H2.9002C2.7834 1.77063 2.33094 1.31816 1.75781 1.20137V0.878906C1.75781 0.394258 1.36352 0 0.878906 0C0.394297 0 0 0.394258 0 0.878906V19.707C0 19.8688 0.131133 20 0.292969 20H1.46484C1.62668 20 1.75781 19.8688 1.75781 19.707V17.6268C2.33094 17.51 2.7834 17.0575 2.9002 16.4844H14.3945V17.3633C14.3945 18.171 15.0516 18.8281 15.8594 18.8281H19.707C19.8689 18.8281 20 18.697 20 18.5352V4.98047C20 4.81867 19.8689 4.6875 19.707 4.6875ZM1.17188 19.4141H0.585938V0.878906C0.585938 0.717344 0.717344 0.585938 0.878906 0.585938C1.04047 0.585938 1.17188 0.717344 1.17188 0.878906V19.4141ZM2.34375 16.1914C2.34375 16.5733 2.09879 16.899 1.75781 17.0199V1.8082C2.09879 1.92914 2.34375 2.25477 2.34375 2.63672V16.1914ZM15.8594 18.2422C15.3748 18.2422 14.9805 17.8479 14.9805 17.3633V16.4844H15.8594C16.344 16.4844 16.7383 16.8786 16.7383 17.3633C16.7383 17.8479 16.344 18.2422 15.8594 18.2422ZM16.7383 16.1922C16.4933 16.0079 16.1889 15.8984 15.8594 15.8984H2.92969V2.92969H15.8594C16.344 2.92969 16.7383 3.32395 16.7383 3.80859V16.1922Z"
        fill="#7A4CF5" />
</svg>