<svg width="20" height="20" viewBox="0 0 20 20" fill="none" xmlns="http://www.w3.org/2000/svg">
<path d="M7.03328 12.6208C7.26766 12.8549 7.58536 12.9864 7.91661 12.9864C8.24787 12.9864 8.56557 12.8549 8.79995 12.6208L8.87078 12.55C9.09625 12.3239 9.22663 12.02 9.23515 11.7008C9.24367 11.3816 9.1297 11.0712 8.91661 10.8333L9.99995 9.75L16.6166 16.3708C16.851 16.6049 17.1687 16.7364 17.4999 16.7364C17.8312 16.7364 18.1489 16.6049 18.3833 16.3708L18.4541 16.3C18.6882 16.0656 18.8197 15.7479 18.8197 15.4167C18.8197 15.0854 18.6882 14.7677 18.4541 14.5333L11.8374 7.91667L12.9166 6.83333C13.1542 7.0452 13.4637 7.15842 13.7819 7.14991C14.1002 7.14139 14.4032 7.01177 14.6291 6.7875L14.6999 6.71667C14.934 6.48229 15.0655 6.16459 15.0655 5.83333C15.0655 5.50208 14.934 5.18438 14.6999 4.95L11.2999 1.54583C11.0656 1.31175 10.7479 1.18027 10.4166 1.18027C10.0854 1.18027 9.76766 1.31175 9.53328 1.54583L9.46245 1.61667C9.23698 1.84281 9.1066 2.14666 9.09808 2.46588C9.08956 2.78511 9.20353 3.09549 9.41661 3.33333L5.41662 7.33334C5.17901 7.12147 4.86951 7.00825 4.55128 7.01676C4.23305 7.02528 3.93005 7.1549 3.70412 7.37917L3.63328 7.45C3.3992 7.68438 3.26772 8.00208 3.26772 8.33333C3.26772 8.66459 3.3992 8.98229 3.63328 9.21667L7.03328 12.6208ZM17.8666 15.1208C17.9057 15.1596 17.9367 15.2057 17.9578 15.2564C17.979 15.3072 17.9899 15.3617 17.9899 15.4167C17.9899 15.4717 17.979 15.5261 17.9578 15.5769C17.9367 15.6277 17.9057 15.6738 17.8666 15.7125L17.7958 15.7833C17.757 15.8224 17.711 15.8534 17.6602 15.8745C17.6094 15.8957 17.555 15.9066 17.4999 15.9066C17.4449 15.9066 17.3905 15.8957 17.3397 15.8745C17.2889 15.8534 17.2428 15.8224 17.2041 15.7833L10.5874 9.16667L11.2499 8.50417L17.8666 15.1208ZM10.9541 7.62084L10.6249 7.95417L8.29578 5.625L9.99995 3.92083L12.3291 6.25L10.9541 7.62084ZM10.0499 2.20417L10.1208 2.13333C10.1595 2.09428 10.2056 2.06328 10.2564 2.04213C10.3071 2.02098 10.3616 2.01008 10.4166 2.01008C10.4716 2.01008 10.5261 2.02098 10.5769 2.04213C10.6276 2.06328 10.6737 2.09428 10.7124 2.13333L14.1166 5.5375C14.1557 5.57624 14.1867 5.62232 14.2078 5.67309C14.229 5.72387 14.2399 5.77833 14.2399 5.83333C14.2399 5.88834 14.229 5.9428 14.2078 5.99358C14.1867 6.04435 14.1557 6.09043 14.1166 6.12917L14.0458 6.2C14.007 6.23905 13.961 6.27005 13.9102 6.29121C13.8594 6.31236 13.805 6.32325 13.7499 6.32325C13.6949 6.32325 13.6405 6.31236 13.5897 6.29121C13.5389 6.27005 13.4928 6.23905 13.4541 6.2L13.2124 5.95417L10.2958 3.0375L10.0499 2.79583C10.0109 2.7571 9.9799 2.71102 9.95874 2.66024C9.93759 2.60947 9.9267 2.55501 9.9267 2.5C9.9267 2.445 9.93759 2.39054 9.95874 2.33976C9.9799 2.28899 10.0109 2.2429 10.0499 2.20417V2.20417ZM7.70828 6.2125L10.0374 8.54167L9.70411 8.87084L8.33328 10.2458L6.00411 7.91667L7.70828 6.2125ZM4.21662 8.0375L4.28745 7.96667C4.32618 7.92762 4.37227 7.89662 4.42304 7.87546C4.47382 7.85431 4.52828 7.84342 4.58328 7.84342C4.63829 7.84342 4.69275 7.85431 4.74352 7.87546C4.7943 7.89662 4.84038 7.92762 4.87912 7.96667L5.12078 8.2125L8.03745 11.1292L8.28328 11.3708C8.32233 11.4096 8.35333 11.4557 8.37449 11.5064C8.39564 11.5572 8.40653 11.6117 8.40653 11.6667C8.40653 11.7217 8.39564 11.7761 8.37449 11.8269C8.35333 11.8777 8.32233 11.9238 8.28328 11.9625L8.21245 12.0333C8.17371 12.0724 8.12763 12.1034 8.07686 12.1245C8.02608 12.1457 7.97162 12.1566 7.91661 12.1566C7.86161 12.1566 7.80715 12.1457 7.75637 12.1245C7.7056 12.1034 7.65952 12.0724 7.62078 12.0333L4.21662 8.62917C4.17756 8.59043 4.14656 8.54435 4.12541 8.49358C4.10426 8.4428 4.09337 8.38834 4.09337 8.33333C4.09337 8.27833 4.10426 8.22387 4.12541 8.17309C4.14656 8.12232 4.17756 8.07624 4.21662 8.0375V8.0375Z" fill="#FFA500"/>
<path d="M1.24984 19.1667H11.2498C11.3603 19.1667 11.4663 19.1228 11.5445 19.0446C11.6226 18.9665 11.6665 18.8605 11.6665 18.75V17.0833C11.6665 16.9728 11.6226 16.8668 11.5445 16.7887C11.4663 16.7106 11.3603 16.6667 11.2498 16.6667H10.7915C10.6955 16.1961 10.4398 15.7732 10.0677 15.4695C9.69567 15.1657 9.23011 14.9999 8.74984 15H3.74984C3.26957 14.9999 2.80401 15.1657 2.43197 15.4695C2.05992 15.7732 1.80423 16.1961 1.70818 16.6667H1.24984C1.13934 16.6667 1.03335 16.7106 0.955214 16.7887C0.877074 16.8668 0.833176 16.9728 0.833176 17.0833V18.75C0.833176 18.8605 0.877074 18.9665 0.955214 19.0446C1.03335 19.1228 1.13934 19.1667 1.24984 19.1667ZM3.74984 15.8333H8.74984C9.00845 15.8332 9.26073 15.9133 9.47192 16.0625C9.68311 16.2118 9.84281 16.4229 9.92901 16.6667H2.57068C2.65688 16.4229 2.81658 16.2118 3.02777 16.0625C3.23896 15.9133 3.49124 15.8332 3.74984 15.8333V15.8333ZM1.66651 17.5H10.8332V18.3333H1.66651V17.5Z" fill="#FFA500"/>
</svg>
