<svg width="20" height="20" viewBox="0 0 20 20" fill="none" xmlns="http://www.w3.org/2000/svg">
<g clip-path="url(#clip0_311_5327)">
<path d="M18.3417 4.48489C17.0181 2.4829 15.0186 1.02371 12.7083 0.373725C10.398 -0.276261 7.93102 -0.0736857 5.75771 0.944467C3.58439 1.96262 1.84973 3.72843 0.870425 5.91953C-0.108882 8.11062 -0.267514 10.5808 0.423492 12.8792C1.1145 15.1776 2.60905 17.1507 4.63428 18.4385C6.65952 19.7263 9.08035 20.2427 11.4548 19.8936C13.8293 19.5445 15.999 18.353 17.5678 16.5368C19.1366 14.7205 19.9999 12.4006 20 10.0006C20.0009 8.03911 19.4241 6.12076 18.3417 4.48489V4.48489ZM5.75183 5.74431C7.03652 5.89039 8.32791 5.96975 9.62082 5.98207V9.62613H5.2104C5.23345 8.31507 5.41525 7.01164 5.75183 5.74431V5.74431ZM10.3698 5.97971C11.6641 5.96955 12.957 5.89227 14.2433 5.74816C14.5781 7.01445 14.7586 8.31654 14.7809 9.62613H10.3698V5.97971ZM10.3698 5.2307V0.777053C11.845 1.00604 13.1998 2.57469 14.0186 5.01434C12.8315 5.14488 11.6087 5.21722 10.3698 5.22834V5.2307ZM5.75333 14.2593C5.53927 13.4712 5.38835 12.6673 5.30199 11.8552C5.24999 11.3707 5.2196 10.8746 5.2089 10.3762H9.62082V14.022C9.09758 14.0271 8.57391 14.0398 8.05859 14.0648C7.27982 14.1046 6.50727 14.172 5.75333 14.2593V14.2593ZM8.09646 14.8136C8.59895 14.7886 9.1102 14.7734 9.62082 14.7682V19.2272C8.60965 19.0695 7.63978 18.2773 6.85588 16.9562C6.49167 16.3315 6.19441 15.6702 5.96905 14.9831C6.66563 14.9065 7.37934 14.8496 8.09646 14.8136ZM10.3698 10.3751H14.7828C14.7592 11.6864 14.5767 12.99 14.2395 14.2574C12.9545 14.1128 11.6629 14.0348 10.3698 14.0239V10.3751ZM15.5295 9.62613C15.5064 8.28435 15.3254 6.94996 14.99 5.65057C15.9546 5.52177 16.9121 5.34449 17.8589 5.11942C18.7021 6.47647 19.1774 8.02964 19.2382 9.62613H15.5295ZM17.4024 4.45408C16.5753 4.6439 15.6955 4.80119 14.7753 4.9236C14.2403 3.26935 13.4624 1.95729 12.5443 1.10576C14.4861 1.66088 16.1926 2.83698 17.4024 4.45408V4.45408ZM9.62082 0.777053V5.22834C8.38216 5.21636 7.15977 5.14403 5.97226 5.01327C6.79104 2.57469 8.14569 1.00604 9.62082 0.777053V0.777053ZM7.45103 1.09999C6.53081 1.9513 5.75269 3.26678 5.21639 4.92382C4.29617 4.8014 3.41662 4.64411 2.58927 4.45429C3.79927 2.83444 5.50713 1.65613 7.45103 1.09999V1.09999ZM2.13195 5.11942C3.07774 5.34547 4.03434 5.5236 4.99811 5.65314C4.66313 6.95174 4.48212 8.28523 4.45882 9.62613H0.747339C0.809913 8.02918 1.28709 6.47602 2.13195 5.11942V5.11942ZM4.45882 10.3751C4.46952 10.9003 4.50162 11.4238 4.55705 11.934C4.64286 12.7487 4.79023 13.5557 4.99789 14.3481C4.71969 14.3862 4.44533 14.4273 4.17762 14.4712C3.46819 14.587 2.78166 14.7248 2.13195 14.8819C1.28709 13.5253 0.809913 11.9721 0.747339 10.3751H4.45882ZM2.58628 15.5444C3.13456 15.4188 3.7083 15.3067 4.29831 15.2104C4.59664 15.1616 4.90523 15.1175 5.21639 15.076C5.46363 15.8646 5.79744 16.6235 6.21173 17.3386C6.54377 17.912 6.9558 18.4352 7.4354 18.8923C5.49693 18.3356 3.79389 17.1598 2.58628 15.5444V15.5444ZM10.3698 19.2242V14.7729C11.6087 14.7849 12.8309 14.8573 14.0186 14.9869C13.1998 17.4266 11.845 18.9952 10.3698 19.2242ZM12.5398 18.9013C13.4611 18.0487 14.2435 16.7351 14.7798 15.0751C15.7 15.1977 16.5792 15.355 17.4059 15.5446C16.1949 17.1659 14.4855 18.3451 12.5398 18.9013V18.9013ZM17.8519 14.8834C16.9074 14.6581 15.9523 14.4804 14.99 14.3511C15.3253 13.0516 15.5064 11.7171 15.5295 10.3751H19.2435C19.1792 11.9733 18.6995 13.527 17.8519 14.8834V14.8834Z" fill="#FFA500"/>
</g>
<defs>
<clipPath id="clip0_311_5327">
<rect width="20" height="20" fill="white"/>
</clipPath>
</defs>
</svg>
