<svg width="20" height="20" viewBox="0 0 20 20" fill="none" xmlns="http://www.w3.org/2000/svg">
<g clip-path="url(#clip0_311_5339)">
<path d="M18.3096 8.30965C17.512 8.30965 16.8422 8.86508 16.6654 9.60938H15.4998C15.4135 8.38242 14.9242 7.26492 14.1635 6.38898L14.9896 5.56285C15.2475 5.72227 15.5511 5.81457 15.8759 5.81457C16.8079 5.81457 17.5662 5.05625 17.5662 4.12422C17.5662 3.19219 16.8079 2.43387 15.8759 2.43387C14.9438 2.43387 14.1855 3.19219 14.1855 4.12422C14.1855 4.44902 14.2778 4.75254 14.4372 5.01043L13.6111 5.83656C12.7352 5.07586 11.6177 4.58656 10.3907 4.50027V3.33469C11.135 3.15785 11.6904 2.48797 11.6904 1.69035C11.6904 0.758281 10.9321 0 10 0C9.06793 0 8.30965 0.758281 8.30965 1.69035C8.30965 2.48797 8.86508 3.15785 9.60938 3.33469V4.50027C8.38242 4.58656 7.26492 5.07582 6.38898 5.83656L5.56285 5.01043C5.72227 4.75258 5.81457 4.44902 5.81457 4.12422C5.81457 3.19215 5.05629 2.43387 4.12422 2.43387C3.19219 2.43387 2.43391 3.19219 2.43391 4.12422C2.43391 5.05625 3.19219 5.81457 4.12422 5.81457C4.44902 5.81457 4.75258 5.72227 5.01047 5.56285L5.8366 6.38898C5.07586 7.26492 4.5866 8.38242 4.50031 9.60938H3.33469C3.15789 8.86508 2.48801 8.30965 1.69039 8.30965C0.758281 8.30965 0 9.06793 0 10C0 10.9321 0.758281 11.6904 1.69035 11.6904C2.48797 11.6904 3.15785 11.135 3.33465 10.3907H4.50023C4.58652 11.6176 5.07582 12.7351 5.83652 13.6111L5.01039 14.4372C4.75254 14.2778 4.44898 14.1855 4.12418 14.1855C3.19215 14.1855 2.43387 14.9437 2.43387 15.8758C2.43387 16.8079 3.19215 17.5662 4.12418 17.5662C5.05625 17.5662 5.81453 16.8079 5.81453 15.8758C5.81453 15.551 5.72223 15.2475 5.56281 14.9896L6.38895 14.1635C7.26488 14.9242 8.38238 15.4135 9.60934 15.4998V16.6654C8.86504 16.8421 8.30961 17.512 8.30961 18.3096C8.30965 19.2417 9.06793 20 10 20C10.9321 20 11.6904 19.2417 11.6904 18.3096C11.6904 17.512 11.1349 16.8421 10.3906 16.6654V15.4998C11.6176 15.4135 12.7351 14.9242 13.611 14.1635L14.4371 14.9896C14.2777 15.2475 14.1854 15.551 14.1854 15.8758C14.1854 16.8079 14.9437 17.5662 15.8758 17.5662C16.8078 17.5662 17.5661 16.8079 17.5661 15.8758C17.5661 14.9437 16.8078 14.1855 15.8758 14.1855C15.551 14.1855 15.2474 14.2778 14.9896 14.4372L14.1634 13.6111C14.9242 12.7351 15.4134 11.6176 15.4997 10.3907H16.6653C16.8421 11.135 17.512 11.6904 18.3096 11.6904C19.2417 11.6904 20 10.9321 20 10C20 9.06793 19.2417 8.30965 18.3096 8.30965ZM1.69035 10.9091C1.18906 10.9091 0.78125 10.5013 0.78125 10C0.78125 9.49871 1.18906 9.0909 1.69035 9.0909C2.19164 9.0909 2.59949 9.49871 2.59949 10C2.59949 10.5013 2.19164 10.9091 1.69035 10.9091ZM15.8758 3.21508C16.3771 3.21508 16.7849 3.62289 16.7849 4.12418C16.7849 4.62547 16.3771 5.03328 15.8758 5.03328C15.3745 5.03328 14.9667 4.62547 14.9667 4.12418C14.9667 3.62289 15.3745 3.21508 15.8758 3.21508ZM9.0909 1.69035C9.0909 1.18906 9.49871 0.78125 10 0.78125C10.5013 0.78125 10.9091 1.18906 10.9091 1.69035C10.9091 2.19164 10.5013 2.59949 10 2.59949C9.49871 2.59949 9.0909 2.19164 9.0909 1.69035ZM4.12418 5.03332C3.62293 5.03332 3.21512 4.62551 3.21512 4.12422C3.21512 3.62293 3.62293 3.21512 4.12418 3.21512C4.62547 3.21512 5.03328 3.62293 5.03328 4.12422C5.03328 4.62551 4.62547 5.03332 4.12418 5.03332ZM4.12418 16.7849C3.62293 16.7849 3.21512 16.3771 3.21512 15.8758C3.21512 15.3745 3.62293 14.9667 4.12418 14.9667C4.62547 14.9667 5.03328 15.3745 5.03328 15.8758C5.03328 16.3771 4.62547 16.7849 4.12418 16.7849ZM10.9091 18.3096C10.9091 18.8109 10.5013 19.2188 10 19.2188C9.49871 19.2188 9.0909 18.8109 9.0909 18.3096C9.0909 17.8084 9.49871 17.4005 10 17.4005C10.5013 17.4005 10.9091 17.8084 10.9091 18.3096ZM15.8758 14.9667C16.3771 14.9667 16.7849 15.3745 16.7849 15.8758C16.7849 16.3771 16.3771 16.7849 15.8758 16.7849C15.3745 16.7849 14.9667 16.3771 14.9667 15.8758C14.9667 15.3745 15.3745 14.9667 15.8758 14.9667ZM10 14.7325C7.39047 14.7325 5.2675 12.6095 5.2675 9.99996C5.2675 7.39047 7.39051 5.26746 10 5.26746C12.6095 5.26746 14.7325 7.39047 14.7325 10C14.7325 12.6095 12.6095 14.7325 10 14.7325ZM18.3096 10.9091C17.8084 10.9091 17.4005 10.5013 17.4005 10C17.4005 9.49871 17.8084 9.0909 18.3096 9.0909C18.8109 9.0909 19.2188 9.49871 19.2188 10C19.2188 10.5013 18.8109 10.9091 18.3096 10.9091ZM10.0001 9.25852C10.7814 9.25852 11.4171 8.62281 11.4171 7.84144C11.4171 7.06016 10.7814 6.42457 10.0001 6.42457C9.21871 6.42457 8.58305 7.06016 8.58305 7.84144C8.58305 8.62281 9.21871 9.25852 10.0001 9.25852ZM10.0001 7.20578C10.3507 7.20578 10.6359 7.49094 10.6359 7.84141C10.6359 8.19199 10.3506 8.47723 10.0001 8.47723C9.64953 8.47723 9.3643 8.19199 9.3643 7.84141C9.3643 7.49094 9.64949 7.20578 10.0001 7.20578ZM10.0001 9.49734C8.56008 9.49734 7.38855 10.6688 7.38855 12.1087C7.38855 13.076 8.79535 13.4192 10 13.4192C11.2047 13.4192 12.6115 13.076 12.6115 12.1087C12.6115 10.6688 11.44 9.49734 10.0001 9.49734ZM10 12.6379C8.79836 12.6379 8.16977 12.2934 8.16977 12.1087C8.16977 11.0996 8.99086 10.2786 10 10.2786C11.0092 10.2786 11.8302 11.0996 11.8302 12.1087C11.8302 12.2934 11.2016 12.6379 10 12.6379Z" fill="#FFA500"/>
</g>
<defs>
<clipPath id="clip0_311_5339">
<rect width="20" height="20" fill="white"/>
</clipPath>
</defs>
</svg>
