<svg width="20" height="20" viewBox="0 0 20 20" fill="none" xmlns="http://www.w3.org/2000/svg">
<g clip-path="url(#clip0_311_5345)">
<path d="M11.3351 9.03115C11.3351 8.28918 10.7333 7.68555 9.99364 7.68555C9.2539 7.68555 8.6521 8.28918 8.6521 9.03115C8.6521 9.65516 9.07778 10.1812 9.65313 10.3328L9.65992 11.7586C9.66082 11.9468 9.81373 12.094 10.0018 12.094H10.0034C10.1922 12.094 10.3445 11.9461 10.3437 11.7573L10.3369 10.332C10.9109 10.1794 11.3351 9.65414 11.3351 9.03115ZM9.99368 9.69303C9.63099 9.69303 9.3359 9.3961 9.3359 9.03115C9.3359 8.66619 9.63095 8.36931 9.99368 8.36931C10.3563 8.36931 10.6514 8.66619 10.6514 9.03115C10.6514 9.3961 10.3563 9.69303 9.99368 9.69303Z" fill="#FFA500"/>
<path d="M18.7167 8.63274C18.1276 8.63274 17.6303 9.0171 17.4801 9.57265H15.1789C15.3139 8.93163 15.4121 8.2906 15.4884 7.60684H17.1582C17.347 7.60684 17.4786 7.46705 17.4786 7.27825V4.01329C18.0342 3.86402 18.4326 3.36671 18.4326 2.77752C18.4326 2.07073 17.8623 1.49573 17.1547 1.49573C16.4471 1.49573 15.8634 2.07073 15.8634 2.77752C15.8634 3.36539 16.2821 3.86175 16.7949 4.01227V6.92308H15.5591C15.6088 6.41026 15.6484 5.85791 15.6852 5.31342C15.7 5.09517 15.5033 4.9288 15.2915 4.96171C14.8856 5.03936 14.475 5.09786 14.0609 5.09786C12.6853 5.09778 11.4212 4.47402 10.2172 3.20996C10.046 3.0641 9.87761 3.06722 9.71209 3.21932C8.43346 4.71936 6.65923 5.34295 4.70872 4.96158C4.49615 4.92 4.28722 5.09513 4.30201 5.31351C4.33949 5.86662 4.37893 6.41026 4.42709 6.92308H3.2906V4.01227C3.80342 3.86175 4.22654 3.36543 4.22654 2.77752C4.22654 2.07073 3.64906 1.49573 2.94145 1.49573C2.23385 1.49573 1.66085 2.07073 1.66085 2.77752C1.66085 3.36675 2.05128 3.86402 2.60684 4.01329V7.27821C2.60684 7.46701 2.75265 7.6068 2.94145 7.6068H4.49624C4.57179 8.29056 4.66816 8.93158 4.80111 9.57261H2.51991C2.3697 9.01705 1.87244 8.63269 1.28333 8.63269C0.575684 8.63274 0 9.20778 0 9.91457C0 10.6213 0.575684 11.1963 1.28329 11.1963C1.87239 11.1963 2.36966 10.812 2.51987 10.2564H4.96415C5.14722 10.9417 5.40603 11.5773 5.69436 12.2222H2.94145C2.75265 12.2222 2.60684 12.3621 2.60684 12.5509V15.9872C2.05128 16.1371 1.66184 16.6339 1.66184 17.2225C1.66184 17.9293 2.23568 18.5043 2.94329 18.5043C3.65094 18.5043 4.22932 17.9293 4.22932 17.2225C4.22932 16.6339 3.84615 16.1371 3.2906 15.9872V12.906H6.08573C6.96128 14.2735 8.21295 15.2367 9.87893 15.8579C9.95936 15.8821 10.0399 15.8823 10.1205 15.8585C11.7711 15.2271 13.0139 14.2308 13.8867 12.906H16.7949V15.9872C16.2821 16.1371 15.8641 16.6339 15.8641 17.2225C15.8641 17.9293 16.4452 18.5043 17.1528 18.5043C17.8605 18.5043 18.4281 17.9293 18.4281 17.2225C18.4281 16.6339 18.0342 16.1371 17.4786 15.9872V12.5509C17.4786 12.3621 17.347 12.2223 17.1582 12.2223H14.2803C14.5742 11.5792 14.8323 10.9409 15.015 10.2565H17.4801C17.6303 10.812 18.1276 11.1964 18.7167 11.1964C19.4243 11.1963 20 10.6213 20 9.91453C20 9.20774 19.4243 8.63274 18.7167 8.63274ZM16.5605 2.77752C16.5605 2.44774 16.8294 2.17949 17.16 2.17949C17.4906 2.17949 17.7595 2.44774 17.7595 2.77752C17.7595 3.10731 17.4906 3.37556 17.16 3.37556C16.8294 3.37556 16.5605 3.10731 16.5605 2.77752ZM2.34009 2.77752C2.34009 2.44774 2.60906 2.17949 2.93962 2.17949C3.27017 2.17949 3.53915 2.44774 3.53915 2.77752C3.53915 3.10731 3.27017 3.37556 2.93962 3.37556C2.60906 3.37556 2.34009 3.10731 2.34009 2.77752ZM1.28329 10.5126C0.952735 10.5126 0.683761 10.2443 0.683761 9.91457C0.683761 9.58479 0.952735 9.31654 1.28329 9.31654C1.61385 9.31654 1.88282 9.58479 1.88282 9.91457C1.88286 10.2443 1.61389 10.5126 1.28329 10.5126ZM3.54098 17.2225C3.54098 17.5523 3.27201 17.8205 2.94145 17.8205C2.6109 17.8205 2.34197 17.5523 2.34197 17.2225C2.34197 16.8927 2.6109 16.6244 2.94145 16.6244C3.27201 16.6244 3.54098 16.8927 3.54098 17.2225ZM17.7577 17.2225C17.7577 17.5523 17.4887 17.8205 17.1582 17.8205C16.8276 17.8205 16.5586 17.5523 16.5586 17.2225C16.5586 16.8927 16.8276 16.6244 17.1582 16.6244C17.4887 16.6244 17.7577 16.8927 17.7577 17.2225ZM5.01436 5.70333C6.85902 5.94107 8.74372 5.36641 9.98547 3.94526C11.3294 5.24825 13.082 6.01611 14.9731 5.70073C14.6535 10.0943 13.9949 13.5715 9.99684 15.1645C5.99637 13.609 5.3362 10.1193 5.01436 5.70333ZM18.7167 10.5126C18.3862 10.5126 18.1172 10.2443 18.1172 9.91457C18.1172 9.58479 18.3862 9.31654 18.7167 9.31654C19.0473 9.31654 19.3162 9.58479 19.3162 9.91457C19.3162 10.2443 19.0473 10.5126 18.7167 10.5126Z" fill="#FFA500"/>
</g>
<defs>
<clipPath id="clip0_311_5345">
<rect width="20" height="20" fill="white"/>
</clipPath>
</defs>
</svg>
