<svg width="20" height="20" viewBox="0 0 20 20" fill="none" xmlns="http://www.w3.org/2000/svg">
<path d="M15.727 7.95405L14.2892 4.28649H14.9459C15.0567 4.28649 15.1486 4.19459 15.1486 4.08378V2.82432C15.1486 2.71351 15.0567 2.62162 14.9459 2.62162H9.42159C9.51618 2.47838 9.57294 2.3054 9.57294 2.12162C9.57294 1.62432 9.16753 1.21892 8.66753 1.21892C8.16753 1.21892 7.76213 1.62432 7.76213 2.12162C7.76213 2.30811 7.81888 2.47838 7.91348 2.62162H2.38915C2.27834 2.62162 2.18645 2.71351 2.18645 2.82432V4.08378C2.18645 4.19459 2.27834 4.28649 2.38915 4.28649H3.4324L1.34861 9.6027C1.34861 9.60541 1.34861 9.61081 1.34591 9.61351C1.3378 9.63514 1.3324 9.65405 1.3324 9.67568C1.3324 10.4351 1.58915 11.0757 2.07564 11.527C2.50807 11.927 3.08645 12.1487 3.70537 12.1487C4.88375 12.1487 6.07834 11.3 6.07834 9.67568C6.07834 9.65405 6.07294 9.63514 6.06483 9.61622C6.06483 9.61081 6.06483 9.60811 6.06213 9.6027L6.05942 9.5973L3.97834 4.28649H7.90807V10.0108C7.38105 10.8838 7.07294 11.9 7.07294 12.9892C7.07294 13.2027 7.08645 13.4135 7.10807 13.6189C6.37294 13.9703 5.78645 14.5568 5.42969 15.2892H1.5378C1.42699 15.2892 1.3351 15.3811 1.3351 15.4919V16.7216C1.3351 16.8324 1.42699 16.9243 1.5378 16.9243H8.6351C9.69456 18.0649 11.2 18.7811 12.8756 18.7811C16.0702 18.7811 18.6675 16.1811 18.6675 12.9865C18.6648 10.8324 17.4783 8.95135 15.727 7.95405ZM3.70807 11.7459C3.19186 11.7459 2.71078 11.5649 2.35402 11.2324C1.99456 10.9 1.78645 10.4351 1.74861 9.88108H5.67023C5.57834 11.1595 4.61078 11.7459 3.70807 11.7459ZM1.8351 9.47568L3.70807 4.69459L5.58105 9.47568H1.8351ZM15.1837 7.68108C14.5216 7.39189 13.7919 7.22432 13.0297 7.20541L14.0135 4.69459L15.1837 7.68108ZM12.5919 7.21081C11.5243 7.26216 10.5324 7.6 9.69186 8.15405V4.28649H13.7378L12.5919 7.21081ZM8.16753 2.12162C8.16753 1.84594 8.39186 1.62432 8.66753 1.62432C8.94321 1.62432 9.16753 1.84865 9.16753 2.12162C9.16753 2.3973 8.94321 2.62162 8.66753 2.62162C8.39186 2.62162 8.16753 2.3973 8.16753 2.12162ZM2.59186 3.02703H14.7405V3.88108H2.59186V3.02703ZM8.31888 4.28649H9.28645V8.44865C8.92699 8.73243 8.60267 9.05946 8.31888 9.42162V4.28649ZM7.17834 14.0378C7.25942 14.473 7.38645 14.8946 7.55672 15.2892H5.89186C6.19186 14.7568 6.6378 14.3243 7.17834 14.0378ZM1.74051 16.5216V15.6973H5.56213H7.75402C7.90807 15.9892 8.08915 16.2622 8.28915 16.5216H1.74051ZM12.8729 18.3784C9.90267 18.3784 7.48375 15.9622 7.48375 12.9892C7.48375 10.0162 9.89997 7.6 12.8729 7.6C15.8432 7.6 18.2594 10.0162 18.2594 12.9892C18.2594 15.9622 15.8432 18.3784 12.8729 18.3784Z" fill="#FFA500"/>
<path d="M15.4622 9.57297C15.4568 9.51351 15.427 9.45946 15.3757 9.42432C14.6379 8.90541 13.773 8.62973 12.873 8.62973C10.4676 8.62973 8.51353 10.5865 8.51353 12.9892C8.51353 13.8892 8.7892 14.7541 9.30812 15.4919C9.34326 15.5405 9.39731 15.573 9.45677 15.5784H9.47299C9.52704 15.5784 9.57839 15.5568 9.61623 15.5189L15.4027 9.73243C15.446 9.68919 15.4649 9.63243 15.4622 9.57297ZM9.50542 15.0568C9.12163 14.4324 8.91893 13.7243 8.91893 12.9892C8.91893 10.8081 10.6919 9.03514 12.873 9.03514C13.6081 9.03514 14.3162 9.23784 14.9406 9.62162L9.50542 15.0568Z" fill="#FFA500"/>
<path d="M16.4379 10.4865C16.4028 10.4378 16.3487 10.4054 16.2893 10.4C16.2298 10.3946 16.1703 10.4162 16.1271 10.4595L10.3433 16.2459C10.3001 16.2892 10.2785 16.3459 10.2839 16.4054C10.2893 16.4649 10.319 16.5189 10.3703 16.5541C11.1082 17.073 11.9757 17.3486 12.8757 17.3486C15.2785 17.3486 17.2325 15.3919 17.2325 12.9892C17.2325 12.0919 16.9568 11.2243 16.4379 10.4865ZM12.873 16.9459C12.1379 16.9459 11.4271 16.7432 10.8055 16.3595L16.2406 10.9243C16.6244 11.5486 16.8271 12.2568 16.8271 12.9919C16.8271 15.1703 15.0541 16.9459 12.873 16.9459Z" fill="#FFA500"/>
</svg>
