<svg width="20" height="20" viewBox="0 0 20 20" fill="none" xmlns="http://www.w3.org/2000/svg">
<path d="M1.41079 17.4815C1.41079 17.4815 2.12091 18.5185 4.25128 18.5185C6.87872 18.5185 6.7367 16.2963 10.0033 16.2963C13.1988 16.2963 13.7669 18.5185 15.6842 18.5185C17.8146 18.5185 18.5247 17.6296 18.5957 17.4815C19.0218 16.5926 20.229 17.1852 19.8739 18.0741C19.8739 18.0741 19.2348 20 15.6842 20C13.1278 20 12.7017 17.7778 10.0033 17.7778C7.37581 17.7778 7.51783 20 4.25128 20C0.700669 20 0.0615597 18.0741 0.0615597 18.0741C-0.222489 17.1111 1.05573 16.5926 1.41079 17.4815ZM10.0033 11.8519C13.1988 11.8519 13.7669 14.0741 15.6842 14.0741C17.6016 14.0741 18.7378 12.8148 18.7378 12.8148C19.3769 12.0741 20.442 13.1111 19.8029 13.8519C19.7319 13.9259 18.2407 15.5556 15.6842 15.5556C13.1278 15.5556 12.7017 13.3333 10.0033 13.3333C7.37581 13.3333 7.51783 15.5556 4.25128 15.5556C0.700669 15.5556 0.0615597 13.6296 0.0615597 13.6296C-0.293501 12.7407 0.984717 12.2222 1.41079 13.037C1.41079 13.037 2.12091 14.0741 4.25128 14.0741C6.87872 14.0741 6.7367 11.8519 10.0033 11.8519ZM0.0615597 8.37037C0.0615597 8.37037 0.700669 11.1111 4.25128 11.1111C7.51783 11.1111 7.37581 8.88889 10.0033 8.88889C12.7017 8.88889 13.1278 11.1111 15.6842 11.1111C19.2348 11.1111 19.945 8.37037 19.945 8.37037C20.229 7.40741 18.8088 7.03704 18.5957 8C18.5957 8 18.0986 9.7037 15.7552 9.7037C13.8379 9.7037 13.2698 7.48148 10.0743 7.48148C6.80771 7.48148 6.94974 9.7037 4.32229 9.7037C1.97889 9.7037 1.4818 8 1.4818 8C1.19775 7.03704 -0.151477 7.40741 0.0615597 8.37037ZM14.051 0.222222L15.4712 1.7037C16.1103 2.37037 15.1161 3.40741 14.477 2.74074L14.264 2.51852V5.18519C14.264 6.14815 12.8437 6.14815 12.8437 5.18519V2.51852L12.6307 2.74074C11.9916 3.40741 10.9974 2.37037 11.6365 1.7037L13.0568 0.222222C13.3408 -0.0740741 13.7669 -0.0740741 14.051 0.222222ZM6.94974 0.222222L8.36998 1.7037C9.00909 2.37037 8.01492 3.40741 7.37581 2.74074L7.16277 2.51852V5.18519C7.16277 6.14815 5.74253 6.14815 5.74253 5.18519V2.51852L5.52949 2.74074C4.89038 3.40741 3.89621 2.37037 4.53532 1.7037L5.95557 0.222222C6.23962 -0.0740741 6.66569 -0.0740741 6.94974 0.222222Z" fill="#FFA500"/>
</svg>
