<svg width="20" height="20" viewBox="0 0 20 20" fill="none" xmlns="http://www.w3.org/2000/svg">
<path d="M4.53127 2.1875C3.24094 2.1875 2.18752 3.24092 2.18752 4.53125C2.18752 5.82158 3.24094 6.875 4.53127 6.875H16.875V16.875H4.53127C3.7441 16.875 3.12502 16.2559 3.12502 15.4688V7.34375C3.12589 7.28164 3.11442 7.21996 3.09126 7.16232C3.06809 7.10468 3.03371 7.05222 2.99009 7.00798C2.94648 6.96375 2.89451 6.92862 2.8372 6.90465C2.77989 6.88067 2.71839 6.86832 2.65627 6.86832C2.59415 6.86832 2.53264 6.88067 2.47534 6.90465C2.41803 6.92862 2.36606 6.96375 2.32244 7.00798C2.27883 7.05222 2.24444 7.10468 2.22128 7.16232C2.19811 7.21996 2.18664 7.28164 2.18752 7.34375V15.4688C2.18752 16.7591 3.24094 17.8125 4.53127 17.8125H17.3438C17.4681 17.8125 17.5873 17.7631 17.6752 17.6752C17.7631 17.5873 17.8125 17.4681 17.8125 17.3438V6.40625C17.8125 6.28193 17.7631 6.16271 17.6752 6.07481C17.5873 5.9869 17.4681 5.93751 17.3438 5.9375H4.53127C3.7441 5.9375 3.12502 5.31842 3.12502 4.53125C3.12502 3.74408 3.7441 3.125 4.53127 3.125H15V4.84375C14.9991 4.90586 15.0106 4.96754 15.0338 5.02518C15.0569 5.08282 15.0913 5.13528 15.1349 5.17952C15.1786 5.22375 15.2305 5.25888 15.2878 5.28285C15.3451 5.30683 15.4066 5.31918 15.4688 5.31918C15.5309 5.31918 15.5924 5.30683 15.6497 5.28285C15.707 5.25888 15.759 5.22375 15.8026 5.17952C15.8462 5.13528 15.8806 5.08282 15.9038 5.02518C15.9269 4.96754 15.9384 4.90586 15.9375 4.84375V2.65625C15.9375 2.53193 15.8881 2.41271 15.8002 2.32481C15.7123 2.2369 15.5931 2.18751 15.4688 2.1875H4.53127Z" fill="#FFA500"/>
<path d="M10.0001 13.125C9.03865 13.125 8.14522 13.4371 7.42259 13.9648C7.37038 14.0001 7.32581 14.0455 7.29154 14.0984C7.25728 14.1513 7.23402 14.2105 7.22317 14.2726C7.21231 14.3346 7.21408 14.3982 7.22836 14.4596C7.24264 14.521 7.26914 14.5788 7.30628 14.6297C7.34342 14.6806 7.39044 14.7235 7.44453 14.7558C7.49862 14.7881 7.55866 14.8092 7.62108 14.8178C7.6835 14.8264 7.747 14.8223 7.8078 14.8058C7.8686 14.7893 7.92545 14.7607 7.97496 14.7217C8.5432 14.3067 9.24072 14.0625 10.0001 14.0625C10.7595 14.0625 11.457 14.3067 12.0252 14.7217C12.0747 14.7607 12.1316 14.7893 12.1924 14.8058C12.2532 14.8223 12.3167 14.8264 12.3791 14.8178C12.4415 14.8092 12.5016 14.7881 12.5557 14.7558C12.6098 14.7235 12.6568 14.6806 12.6939 14.6297C12.7311 14.5788 12.7576 14.521 12.7718 14.4596C12.7861 14.3982 12.7879 14.3346 12.777 14.2726C12.7662 14.2105 12.7429 14.1513 12.7087 14.0984C12.6744 14.0455 12.6298 14.0001 12.5776 13.9648C11.855 13.4371 10.9616 13.125 10.0001 13.125Z" fill="#FFA500"/>
<path d="M11.6062 9.74154C11.5198 9.83074 11.4723 9.95062 11.4741 10.0748C11.476 10.199 11.5271 10.3174 11.6162 10.404L11.8371 10.625L11.6162 10.846C11.5716 10.8893 11.5361 10.941 11.5117 10.9981C11.4874 11.0553 11.4746 11.1167 11.4741 11.1788C11.4737 11.2409 11.4856 11.3025 11.5092 11.36C11.5328 11.4174 11.5675 11.4697 11.6114 11.5136C11.6554 11.5575 11.7076 11.5923 11.7651 11.6158C11.8225 11.6394 11.8841 11.6513 11.9462 11.6509C12.0084 11.6504 12.0698 11.6377 12.1269 11.6133C12.184 11.5889 12.2358 11.5534 12.2791 11.5089L12.5 11.2879L12.721 11.5089C12.7643 11.5534 12.816 11.5889 12.8732 11.6133C12.9303 11.6377 12.9917 11.6504 13.0538 11.6509C13.116 11.6513 13.1775 11.6394 13.235 11.6158C13.2925 11.5923 13.3447 11.5575 13.3886 11.5136C13.4326 11.4697 13.4673 11.4174 13.4909 11.36C13.5145 11.3025 13.5264 11.2409 13.5259 11.1788C13.5255 11.1167 13.5127 11.0553 13.4883 10.9981C13.464 10.941 13.4285 10.8893 13.3839 10.846L13.163 10.625L13.3839 10.404C13.4285 10.3607 13.464 10.309 13.4883 10.2519C13.5127 10.1947 13.5255 10.1333 13.5259 10.0712C13.5264 10.0091 13.5145 9.94748 13.4909 9.89001C13.4673 9.83253 13.4326 9.78031 13.3886 9.73639C13.3447 9.69246 13.2925 9.6577 13.235 9.63413C13.1775 9.61056 13.116 9.59865 13.0538 9.59909C12.9917 9.59953 12.9303 9.61231 12.8732 9.63669C12.816 9.66107 12.7643 9.69657 12.721 9.74111L12.5 9.96208L12.2791 9.74111C12.2353 9.69611 12.183 9.66035 12.1252 9.63594C12.0674 9.61153 12.0053 9.59897 11.9426 9.59901C11.8798 9.59905 11.8177 9.61169 11.7599 9.63617C11.7022 9.66065 11.6499 9.69648 11.6062 9.74154Z" fill="#FFA500"/>
<path d="M6.60626 9.74154C6.5198 9.83074 6.47228 9.95062 6.47414 10.0748C6.476 10.199 6.52709 10.3174 6.61619 10.404L6.83716 10.625L6.61619 10.846C6.57164 10.8893 6.53615 10.941 6.51177 10.9981C6.48739 11.0553 6.47461 11.1167 6.47417 11.1788C6.47373 11.2409 6.48564 11.3025 6.50921 11.36C6.53278 11.4174 6.56754 11.4697 6.61147 11.5136C6.65539 11.5575 6.70761 11.5923 6.76509 11.6158C6.82256 11.6394 6.88415 11.6513 6.94627 11.6509C7.00839 11.6504 7.0698 11.6377 7.12694 11.6133C7.18408 11.5889 7.2358 11.5534 7.2791 11.5089L7.50007 11.2879L7.72104 11.5089C7.76434 11.5534 7.81606 11.5889 7.8732 11.6133C7.93034 11.6377 7.99175 11.6504 8.05387 11.6509C8.11599 11.6513 8.17758 11.6394 8.23505 11.6158C8.29253 11.5923 8.34475 11.5575 8.38867 11.5136C8.4326 11.4697 8.46736 11.4174 8.49093 11.36C8.5145 11.3025 8.52641 11.2409 8.52597 11.1788C8.52553 11.1167 8.51275 11.0553 8.48837 10.9981C8.46399 10.941 8.4285 10.8893 8.38395 10.846L8.16298 10.625L8.38395 10.404C8.4285 10.3607 8.46399 10.309 8.48837 10.2519C8.51275 10.1947 8.52553 10.1333 8.52597 10.0712C8.52641 10.0091 8.5145 9.94748 8.49093 9.89001C8.46736 9.83253 8.4326 9.78031 8.38867 9.73639C8.34475 9.69246 8.29253 9.6577 8.23505 9.63413C8.17758 9.61056 8.11599 9.59865 8.05387 9.59909C7.99175 9.59953 7.93034 9.61231 7.8732 9.63669C7.81606 9.66107 7.76434 9.69657 7.72104 9.74111L7.50007 9.96208L7.2791 9.74111C7.23537 9.69611 7.18306 9.66035 7.12525 9.63594C7.06745 9.61153 7.00533 9.59897 6.94259 9.59901C6.87984 9.59905 6.81774 9.61169 6.75997 9.63617C6.7022 9.66065 6.64993 9.69648 6.60626 9.74154Z" fill="#FFA500"/>
</svg>
