<svg width="32" height="32" viewBox="0 0 32 32" fill="none" xmlns="http://www.w3.org/2000/svg">
<circle opacity="0.1" cx="16" cy="16" r="16" fill="#FE8525"/>
<g clip-path="url(#clip0_180_163)">
<path d="M15.312 19.0947C15.1807 19.0347 15.028 18.9976 14.8539 18.9906L14.844 18.9903H14.834H8.91621H8.90636L8.89653 18.9906C7.48339 19.0464 7.48025 21.1011 8.89634 21.1575L8.90627 21.1579H8.91621H14.8341H14.8439L14.8537 21.1575C15.4968 21.1321 15.8479 20.6927 15.9061 20.2161C16.268 20.5565 16.7481 20.7485 17.2495 20.7485C17.4058 20.7485 17.5619 20.7298 17.7143 20.6926L17.7144 20.6926L18.0858 20.602V23.9239C18.0858 24.7931 17.3779 25.501 16.5088 25.501H8.10732C7.23814 25.501 6.53024 24.7931 6.53024 23.9239V8.0761C6.53024 7.20694 7.23814 6.49903 8.10732 6.49903H9.16873L9.65404 8.07356C9.65405 8.07358 9.65406 8.0736 9.65406 8.07362C9.79412 8.52811 10.2141 8.83821 10.6898 8.83821H13.9258C14.4013 8.83821 14.8213 8.52824 14.9615 8.07384L14.9615 8.07381L15.4471 6.49903H16.5087C17.3779 6.49903 18.0858 7.20695 18.0858 8.0761V9.12088C16.0997 10.3877 15.0268 12.8363 15.3418 15.1714C15.215 15.0353 15.0753 14.9113 14.9248 14.8015C15.8954 12.9403 14.5483 10.5208 12.308 10.53C10.0676 10.5208 8.72076 12.9401 9.69131 14.8014C8.96771 15.3294 8.49516 16.184 8.49516 17.149V17.7496C8.49516 18.3481 8.98041 18.8334 9.57898 18.8334H15.0371C15.1234 18.8334 15.2074 18.8233 15.2879 18.8042C15.2887 18.9017 15.2968 18.9988 15.312 19.0947ZM11.8855 23.4581H11.8954L11.9052 23.4577C13.3184 23.4019 13.3215 21.3473 11.9054 21.2908L11.8955 21.2904H11.8855H8.91621H8.90636L8.89653 21.2908C7.48339 21.3466 7.48025 23.4013 8.89634 23.4577L8.90627 23.4581H8.91621H11.8855Z" fill="#FE8525" stroke="#FE8525" stroke-width="0.998051"/>
<path d="M11.4369 6.49903H13.1787L13.1258 6.67057H11.4898L11.4369 6.49903Z" fill="#FE8525" stroke="#FE8525" stroke-width="0.998051"/>
<path d="M12.308 14.731C13.0062 14.731 13.5742 14.163 13.5742 13.4648C13.5046 11.785 11.1111 11.7855 11.0417 13.4648C11.0418 14.163 11.6098 14.731 12.308 14.731Z" fill="#FE8525"/>
<path d="M13.2156 15.9122H11.4005C10.7186 15.9122 10.1638 16.467 10.1638 17.149V17.1648H14.4523V17.149C14.4523 16.467 13.8975 15.9122 13.2156 15.9122Z" fill="#FE8525"/>
<path d="M22.3095 13.4854C22.1613 13.4854 22.063 13.5788 22.0203 13.6664C21.8113 14.1018 21.1779 14.1016 20.969 13.6664C20.8301 13.3734 20.3659 13.4531 20.3586 13.8066C20.3586 13.9549 20.4831 14.2689 20.8338 14.6662C21.0995 14.9671 21.3663 15.1654 21.5009 15.2394C21.6356 15.1707 21.8991 14.9859 22.1561 14.7027C22.4533 14.3752 22.6307 14.0402 22.6307 13.8066C22.6307 13.6295 22.4866 13.4854 22.3095 13.4854Z" fill="#FE8525"/>
<path d="M21.4739 9.78231C17.9119 9.75104 15.7128 13.8499 17.706 16.7951L16.9767 18.6822C16.9375 18.7837 16.9579 18.8987 17.0298 18.9805C17.1017 19.0627 17.2144 19.0973 17.3188 19.0716L19.7503 18.4782C20.2973 18.7044 20.8766 18.819 21.4738 18.819C27.4686 18.5707 27.4658 10.0292 21.4739 9.78231ZM22.9311 15.586C21.82 16.6865 21.1866 16.7234 20.0525 15.545C19.7301 15.2014 19.1891 14.5184 19.1891 13.8066C19.1891 12.9846 19.8579 12.3158 20.6799 12.3158C20.9785 12.3158 21.2604 12.4024 21.4979 12.5581C21.736 12.4034 22.0175 12.3158 22.3096 12.3158C23.1316 12.3158 23.8004 12.9846 23.8004 13.8066C23.8003 14.5718 23.2557 15.2499 22.9311 15.586Z" fill="#FE8525"/>
</g>
<defs>
<clipPath id="clip0_180_163">
<rect width="20" height="20" fill="white" transform="translate(6 6)"/>
</clipPath>
</defs>
</svg>
