<svg width="32" height="32" viewBox="0 0 32 32" fill="none" xmlns="http://www.w3.org/2000/svg">
<circle opacity="0.1" cx="16" cy="16" r="16" fill="#FE8525"/>
<mask id="path-2-inside-1_179_144" fill="white">
<path d="M9.75 11.4759L10.6518 11.1152C10.8753 11.0254 11.1248 11.0254 11.3482 11.1152L12.25 11.4759V10.6875H9.75V11.4759Z"/>
</mask>
<path d="M9.75 11.4759L10.6518 11.1152C10.8753 11.0254 11.1248 11.0254 11.3482 11.1152L12.25 11.4759V10.6875H9.75V11.4759Z" fill="#FE8525"/>
<path d="M9.75 11.4759H8.75V12.953L10.1214 12.4044L9.75 11.4759ZM10.6518 11.1152L11.0232 12.0437L11.0248 12.043L10.6518 11.1152ZM11.3482 11.1152L10.9752 12.043L10.9768 12.0437L11.3482 11.1152ZM12.25 11.4759L11.8786 12.4044L13.25 12.953V11.4759H12.25ZM12.25 10.6875H13.25V9.6875H12.25V10.6875ZM9.75 10.6875V9.6875H8.75V10.6875H9.75ZM10.1214 12.4044L11.0232 12.0437L10.2804 10.1867L9.37861 10.5475L10.1214 12.4044ZM11.0248 12.043C11.0089 12.0494 10.9911 12.0494 10.9752 12.043L11.7212 10.1874C11.2584 10.0013 10.7416 10.0013 10.2789 10.1874L11.0248 12.043ZM10.9768 12.0437L11.8786 12.4044L12.6214 10.5475L11.7196 10.1867L10.9768 12.0437ZM13.25 11.4759V10.6875H11.25V11.4759H13.25ZM12.25 9.6875H9.75V11.6875H12.25V9.6875ZM8.75 10.6875V11.4759H10.75V10.6875H8.75Z" fill="#FE8525" mask="url(#path-2-inside-1_179_144)"/>
<path d="M13.5 11.1875H14V10.6875V10.0625V9.75344C14.163 10.1448 14.2495 10.568 14.25 11.0002C14.25 11.0003 14.25 11.0005 14.25 11.0006L14.25 14.25H11C10.138 14.25 9.3114 13.9076 8.7019 13.2981C8.09241 12.6886 7.75 11.862 7.75 11C7.75 10.5668 7.83652 10.1424 8 9.75005V10.0625V10.6875V11.1875H8.5H8.625V11.8172C8.625 12.4471 8.87522 13.0512 9.32062 13.4966C9.76602 13.942 10.3701 14.1922 11 14.1922C11.6299 14.1922 12.234 13.942 12.6794 13.4966C13.1248 13.0512 13.375 12.4471 13.375 11.8172V11.1875H13.5ZM13.9132 9.56255H13.5H13.2286L13.1472 9.15566L13.147 9.15461C13.0812 8.82937 12.9051 8.53682 12.6485 8.32645C12.3919 8.11607 12.0705 8.00077 11.7387 8.00005H11.7376L10.2624 8.00004L10.2613 8.00005C9.92948 8.00077 9.6081 8.11606 9.35149 8.32643C9.09488 8.5368 8.91879 8.82934 8.85301 9.15457L8.8528 9.15563L8.77141 9.56255H8.5H8.08519C8.24089 9.24681 8.44827 8.95558 8.7019 8.70195C9.31133 8.09252 10.1379 7.75012 10.9997 7.75005C11.8614 7.7511 12.6875 8.09387 13.2969 8.70319C13.5502 8.95651 13.7574 9.2473 13.9132 9.56255Z" fill="#FE8525" stroke="#FE8525"/>
<path d="M14.75 15.375H13.5V18.8125H14.75V15.375Z" fill="#FE8525"/>
<path d="M12.0439 9.37622C12.0296 9.30545 11.9913 9.2418 11.9355 9.19602C11.8796 9.15025 11.8097 9.12516 11.7375 9.12501H10.2623C10.1901 9.12516 10.1201 9.15024 10.0643 9.19602C10.0085 9.24179 9.97016 9.30544 9.95584 9.37621L9.81858 10.0625H12.1812L12.0439 9.37622Z" fill="#FE8525"/>
<path d="M9.75005 19.5669L9.25449 20.0625L9.76286 20.5708C9.89571 20.3762 10.0638 20.2081 10.2584 20.0753L9.75005 19.5669Z" fill="#FE8525"/>
<path d="M12.25 18.8125H12.875V17.25H11C10.2583 17.25 9.53325 17.4699 8.91657 17.882C8.29988 18.294 7.81924 18.8797 7.53541 19.5649C7.25158 20.2501 7.17732 21.0041 7.32201 21.7316C7.46671 22.459 7.82386 23.1272 8.34831 23.6516C8.87275 24.1761 9.54094 24.5332 10.2684 24.6779C10.9958 24.8226 11.7498 24.7484 12.435 24.4645C13.1202 24.1807 13.7059 23.7001 14.118 23.0834C14.53 22.4667 14.75 21.7417 14.75 21V19.4375H12.25V18.8125ZM13.1875 21.625C13.1876 21.8901 13.1315 22.1522 13.0229 22.3941C12.9143 22.636 12.7557 22.852 12.5574 23.0281C12.3592 23.2041 12.1259 23.3361 11.8729 23.4153C11.6199 23.4946 11.3529 23.5193 11.0897 23.4878C10.8264 23.4563 10.5729 23.3693 10.3457 23.2326C10.1185 23.0959 9.92295 22.9126 9.77184 22.6947C9.62073 22.4769 9.51753 22.2295 9.46906 21.9688C9.42059 21.7082 9.42794 21.4402 9.49064 21.1826L8.37052 20.0625L8.83926 19.5937L8.27897 19.0335L8.72094 18.5915L9.28121 19.1518L9.74996 18.6831L10.8701 19.8032C11.1459 19.736 11.4334 19.7324 11.7109 19.7926C11.9883 19.8528 12.2485 19.9753 12.4716 20.1508C12.6948 20.3262 12.8752 20.5501 12.9992 20.8055C13.1232 21.0609 13.1876 21.3411 13.1875 21.625Z" fill="#FE8525"/>
<path d="M19.125 14.75H21C21.7417 14.75 22.4667 14.5301 23.0834 14.118C23.7001 13.706 24.1807 13.1203 24.4645 12.4351C24.7484 11.7498 24.8226 10.9958 24.6779 10.2684C24.5332 9.54098 24.1761 8.8728 23.6516 8.34835C23.1272 7.8239 22.459 7.46675 21.7316 7.32206C21.0041 7.17736 20.2501 7.25162 19.5649 7.53545C18.8797 7.81928 18.294 8.29993 17.882 8.91661C17.4699 9.5333 17.25 10.2583 17.25 11V12.5625H19.125V14.75ZM20.9555 14.2858L20.4195 13.9642L21.073 12.875H20.1818L21.033 11.1728L21.592 11.4523L21.1931 12.25H22.1769L20.9555 14.2858ZM18.1875 10.375C18.1879 10.0436 18.3197 9.72587 18.554 9.49153C18.7884 9.25719 19.1061 9.12538 19.4375 9.125C19.448 9.125 19.4583 9.12554 19.4688 9.1258C19.5407 8.77275 19.7324 8.4554 20.0114 8.22747C20.2904 7.99953 20.6396 7.87502 20.9999 7.875C21.3602 7.87499 21.7094 7.99947 21.9885 8.22738C22.2675 8.45529 22.4592 8.77263 22.5312 9.12566C22.5416 9.1254 22.552 9.125 22.5625 9.125C22.894 9.125 23.2119 9.2567 23.4464 9.49112C23.6808 9.72554 23.8125 10.0435 23.8125 10.375C23.8125 10.7065 23.6808 11.0245 23.4464 11.2589C23.2119 11.4933 22.894 11.625 22.5625 11.625H21.9375V11H22.5625C22.7282 11 22.8872 10.9342 23.0044 10.8169C23.1216 10.6997 23.1875 10.5408 23.1875 10.375C23.1875 10.2092 23.1216 10.0503 23.0044 9.93306C22.8872 9.81585 22.7282 9.75 22.5625 9.75C22.5517 9.75 22.541 9.75081 22.5302 9.75135C22.4621 10.0836 22.2878 10.3848 22.0336 10.6093L21.62 10.1407C21.7331 10.041 21.8205 9.91547 21.8747 9.77478C21.929 9.63409 21.9485 9.48238 21.9316 9.33254C21.9147 9.1827 21.8619 9.03914 21.7778 8.91405C21.6936 8.78895 21.5804 8.68601 21.448 8.61396C21.3155 8.5419 21.1676 8.50286 21.0169 8.50015C20.8661 8.49744 20.7169 8.53113 20.5819 8.59837C20.447 8.66561 20.3302 8.76442 20.2416 8.88641C20.1529 9.00839 20.095 9.14996 20.0728 9.2991C20.2599 9.40956 20.415 9.56688 20.5228 9.75555C20.6306 9.94421 20.6873 10.1577 20.6875 10.375H20.0625C20.0625 10.2514 20.0258 10.1306 19.9572 10.0278C19.8885 9.92499 19.7909 9.84488 19.6767 9.79758C19.5625 9.75027 19.4368 9.7379 19.3156 9.76201C19.1943 9.78613 19.0829 9.84565 18.9955 9.93306C18.9081 10.0205 18.8486 10.1318 18.8245 10.2531C18.8004 10.3743 18.8128 10.5 18.8601 10.6142C18.9074 10.7284 18.9875 10.826 19.0903 10.8947C19.193 10.9633 19.3139 11 19.4375 11H20.0625V11.625H19.4375C19.1061 11.6246 18.7884 11.4928 18.554 11.2585C18.3197 11.0241 18.1879 10.7064 18.1875 10.375Z" fill="#FE8525"/>
<path d="M11.3125 22.875C12.0029 22.875 12.5625 22.3153 12.5625 21.625C12.5625 20.9346 12.0029 20.375 11.3125 20.375C10.6221 20.375 10.0625 20.9346 10.0625 21.625C10.0625 22.3153 10.6221 22.875 11.3125 22.875Z" fill="#FE8525"/>
<path d="M10.884 11.6955L9.79074 12.1328C9.86053 12.4004 10.0171 12.6373 10.2359 12.8063C10.4548 12.9754 10.7235 13.0671 11 13.0671C11.2766 13.0671 11.5453 12.9754 11.7641 12.8063C11.983 12.6373 12.1395 12.4004 12.2093 12.1328L11.1161 11.6955C11.0416 11.6655 10.9585 11.6655 10.884 11.6955Z" fill="#FE8525"/>
<path d="M21.125 20.9375L21.0735 21.0062C21.232 21.4017 21.3132 21.8239 21.3125 22.25H20.6875C20.6893 21.6139 20.4653 20.9979 20.0553 20.5116L19.4218 21.1451C19.2801 21.2869 19.1836 21.4674 19.1445 21.664C19.1054 21.8605 19.1254 22.0643 19.2021 22.2495C19.2788 22.4346 19.4087 22.5929 19.5753 22.7042C19.742 22.8156 19.9379 22.875 20.1383 22.875H21.8617C22.1303 22.8747 22.3879 22.7678 22.5778 22.5779C22.7678 22.3879 22.8747 22.1303 22.875 21.8617C22.8778 20.8834 22.5221 19.9379 21.8752 19.2041C21.7638 19.8325 21.5069 20.4261 21.125 20.9375Z" fill="#FE8525"/>
<path d="M21 17.25H19.125V18.8125H19.75V19.4375H17.25V21C17.25 21.7417 17.4699 22.4667 17.882 23.0834C18.294 23.7001 18.8797 24.1807 19.5649 24.4645C20.2501 24.7484 21.0041 24.8226 21.7316 24.6779C22.459 24.5332 23.1272 24.1761 23.6516 23.6516C24.1761 23.1272 24.5332 22.459 24.6779 21.7316C24.8226 21.0041 24.7484 20.2501 24.4645 19.5649C24.1807 18.8797 23.7001 18.294 23.0834 17.882C22.4667 17.4699 21.7417 17.25 21 17.25ZM21.8616 23.5H20.1383C19.8143 23.5 19.4975 23.4039 19.2281 23.2239C18.9587 23.0439 18.7487 22.788 18.6247 22.4886C18.5007 22.1893 18.4683 21.8599 18.5315 21.5421C18.5947 21.2243 18.7507 20.9323 18.9798 20.7032L20.0624 19.6206L20.3371 19.8951C20.4888 20.0467 20.6257 20.2125 20.746 20.3902C21.1142 19.8284 21.311 19.1717 21.3125 18.5V17.7456L22.1363 18.5693C22.57 19.0007 22.9138 19.5138 23.1479 20.0789C23.382 20.644 23.5017 21.25 23.5 21.8617C23.4995 22.296 23.3267 22.7124 23.0196 23.0196C22.7124 23.3267 22.296 23.4995 21.8616 23.5Z" fill="#FE8525"/>
<path d="M18.5 13.1875H15.375V18.8125H18.5V13.1875ZM16.625 18.1875H16V17.5625H16.625V18.1875ZM16.625 16.9375H16V16.3125H16.625V16.9375ZM16.625 15.6875H16V15.0625H16.625V15.6875ZM16.625 14.4375H16V13.8125H16.625V14.4375ZM17.875 18.1875H17.25V17.5625H17.875V18.1875ZM17.875 16.9375H17.25V16.3125H17.875V16.9375ZM17.875 15.6875H17.25V15.0625H17.875V15.6875ZM17.875 14.4375H17.25V13.8125H17.875V14.4375Z" fill="#FE8525"/>
</svg>