<svg width="25" height="25" viewBox="0 0 25 25" fill="none" xmlns="http://www.w3.org/2000/svg">
<g clip-path="url(#clip0_136_3110)">
<path d="M1.69495 18.612V22.6645C1.69495 22.911 1.89526 23.1165 2.14693 23.1165H5.28001C5.52654 23.1165 5.73199 22.9161 5.73199 22.6645V15.5354L3.45666 17.8108C2.97386 18.2884 2.35751 18.5658 1.69495 18.612Z" fill="white"/>
<path d="M7.29333 15.4841V22.6645C7.29333 22.911 7.49365 23.1165 7.74532 23.1165H10.8784C11.1249 23.1165 11.3304 22.9162 11.3304 22.6645V18.4374C10.6165 18.422 9.94875 18.1395 9.4454 17.6362L7.29333 15.4841Z" fill="white"/>
<path d="M12.8918 17.9906V22.6645C12.8918 22.911 13.0922 23.1165 13.3438 23.1165H16.4769C16.7234 23.1165 16.9289 22.9162 16.9289 22.6645V14.0408L13.3387 17.631C13.2 17.7697 13.0511 17.8878 12.8918 17.9906Z" fill="white"/>
<path d="M22.2242 8.7403L18.4902 12.4743V22.6645C18.4902 22.911 18.6905 23.1165 18.9422 23.1165H22.0753C22.3218 23.1165 22.5273 22.9162 22.5273 22.6645V9.02279C22.4246 8.93547 22.3475 8.85843 22.291 8.80707L22.2242 8.7403Z" fill="white"/>
<path d="M24.7872 2.12488C24.6383 1.96566 24.4123 1.88348 24.1247 1.88348C24.099 1.88348 24.0682 1.88348 24.0425 1.88348C22.5838 1.95025 21.1303 2.02216 19.6716 2.08893C19.4764 2.0992 19.2093 2.10948 18.9988 2.32006C18.932 2.38683 18.8806 2.46387 18.8395 2.55632C18.6238 3.02372 18.9269 3.32675 19.0707 3.47056L19.4353 3.84037C19.687 4.09718 19.9438 4.35399 20.2006 4.60566L11.3869 13.4245L7.42693 9.46449C7.19066 9.22823 6.87222 9.09469 6.53323 9.09469C6.19424 9.09469 5.88094 9.22823 5.64467 9.46449L0.369806 14.7342C-0.123269 15.2273 -0.123269 16.0234 0.369806 16.5165L0.60607 16.7527C0.842335 16.989 1.16078 17.1225 1.49977 17.1225C1.83876 17.1225 2.15206 16.989 2.38833 16.7527L6.53323 12.6078L10.4932 16.5678C10.7295 16.8041 11.0479 16.9376 11.3869 16.9376C11.7259 16.9376 12.0392 16.8041 12.2806 16.5678L22.2243 6.62418L23.3491 7.74387C23.4827 7.87741 23.6676 8.06231 23.95 8.06231C24.0682 8.06231 24.1863 8.0315 24.3096 7.96473C24.3918 7.9185 24.4637 7.86714 24.5253 7.8055C24.7462 7.58465 24.7872 7.30216 24.7975 7.0813C24.8386 6.13624 24.8848 5.19119 24.9311 4.24099L24.9978 2.81827C25.0132 2.52037 24.9465 2.28924 24.7872 2.12488Z" fill="white"/>
</g>
<defs>
<clipPath id="clip0_136_3110">
<rect width="25" height="25" fill="white"/>
</clipPath>
</defs>
</svg>
