<svg id="Layer_5" enable-background="new 0 0 64 64" height="512" viewBox="0 0 64 64" width="512" xmlns="http://www.w3.org/2000/svg">
    <g>
        <path
            d="m46 27c6.065 0 11-4.935 11-11s-4.935-11-11-11-11 4.935-11 11 4.935 11 11 11zm0-20c4.962 0 9 4.038 9 9s-4.038 9-9 9-9-4.038-9-9 4.038-9 9-9z" fill="rgba(34, 204, 98, 1)"/>
        <path
            d="m46 19c-.551 0-1-.449-1-1h-2c0 1.302.839 2.402 2 2.816v2.184h2v-2.184c1.161-.414 2-1.514 2-2.816 0-1.654-1.346-3-3-3-.551 0-1-.449-1-1s.449-1 1-1 1 .449 1 1h2c0-1.302-.839-2.402-2-2.816v-2.184h-2v2.184c-1.161.414-2 1.514-2 2.816 0 1.654 1.346 3 3 3 .551 0 1 .449 1 1s-.449 1-1 1z" fill="rgba(34, 204, 98, 1)"/>
        <path
            d="m58.002 24.959c1.874-2.504 2.998-5.599 2.998-8.959 0-8.271-6.729-15-15-15s-15 6.729-15 15c0 3.36 1.124 6.455 2.998 8.959-3.234 1.283-4.998 3.045-4.998 5.041v1.503l-8.616-13.212c-.528-.809-1.419-1.291-2.384-1.291s-1.856.482-2.384 1.291l-11.855 18.179c-1.806 2.769-2.761 5.98-2.761 9.286v.244c0 9.374 7.626 17 17 17 4.942 0 9.515-2.11 12.745-5.79 2.958 2.476 9.237 3.79 15.255 3.79 8.241 0 17-2.453 17-7v-24c0-1.996-1.764-3.758-4.998-5.041zm-12.002-21.959c7.168 0 13 5.832 13 13s-5.832 13-13 13-13-5.832-13-13 5.832-13 13-13zm-10.619 23.583c2.718 2.726 6.474 4.417 10.619 4.417s7.901-1.691 10.619-4.417c2.71.958 4.381 2.241 4.381 3.417 0 2.36-6.415 5-15 5s-15-2.64-15-5c0-1.176 1.671-2.459 4.381-3.417zm-17.381 34.417c-8.271 0-15-6.729-15-15v-.244c0-2.917.842-5.75 2.436-8.194l11.855-18.179c.313-.48 1.104-.48 1.418 0l10.291 15.781v18.836c0 .594.157 1.15.435 1.672-2.86 3.384-6.978 5.328-11.435 5.328zm28-2c-8.585 0-15-2.64-15-5v-4.587c3.053 2.344 9.149 3.587 15 3.587s11.947-1.243 15-3.587v4.587c0 2.36-6.415 5-15 5zm0-8c-8.585 0-15-2.64-15-5v-4.587c3.053 2.344 9.149 3.587 15 3.587s11.947-1.243 15-3.587v4.587c0 2.36-6.415 5-15 5zm0-8c-8.585 0-15-2.64-15-5v-4.587c3.053 2.344 9.149 3.587 15 3.587s11.947-1.243 15-3.587v4.587c0 2.36-6.415 5-15 5z" fill="rgba(34, 204, 98, 1)"/>
        <path d="m7.552 42.313-1.899-.627c-.231.702-.404 1.431-.513 2.167l1.979.293c.091-.623.237-1.239.433-1.833z" fill="rgba(34, 204, 98, 1)"/>
        <path d="m7 46h-2c0 7.168 5.832 13 13 13v-2c-6.065 0-11-4.935-11-11z" fill="rgba(34, 204, 98, 1)"/>
    </g>
</svg>