<svg width="25" height="26" viewBox="0 0 25 26" fill="none" xmlns="http://www.w3.org/2000/svg">
<g clip-path="url(#clip0_136_2708)">
<path d="M20.1498 23.9052C20.3642 23.9052 20.5757 23.9868 20.7366 24.1422C21.7651 25.1354 23.2654 25.466 24.5991 25.0521C23.7408 23.2639 23.6218 21.2153 24.287 19.3185C25.1125 16.9585 25.3194 14.593 24.3799 12.2206C23.5545 10.1365 21.9617 8.40501 19.946 7.41764C20.07 8.07878 20.1325 8.75241 20.1325 9.43317C20.1325 12.3227 19.0214 15.0404 17.004 17.0857C14.9863 19.1312 12.2815 20.2814 9.38817 20.3244C8.85061 20.3328 8.31546 20.3012 7.78638 20.2315C9.37654 23.0188 12.3755 24.8341 15.6711 24.883C17.1127 24.9053 18.497 24.6032 19.7861 23.9876C19.9022 23.9321 20.0265 23.9052 20.1498 23.9052Z" fill="white"/>
<path d="M9.41173 0.228506C4.27893 0.126588 0.0121599 4.27893 -0.000216309 9.41061C-0.00324849 10.6644 0.241492 11.88 0.727259 13.0238C0.734313 13.0404 0.740873 13.0573 0.746813 13.0743C1.41197 14.9712 1.2931 17.0198 0.434685 18.808C1.76853 19.2217 3.26866 18.8912 4.29725 17.898C4.55065 17.6532 4.9298 17.5915 5.24774 17.7435C6.53666 18.3591 7.92107 18.6621 9.36265 18.6389C14.4553 18.5633 18.4445 14.5197 18.4444 9.43326C18.4445 4.45783 14.3924 0.32863 9.41173 0.228506ZM4.30282 10.8083C3.56538 10.8083 2.96754 10.2114 2.96754 9.47521C2.96754 8.73901 3.56538 8.14217 4.30282 8.14217C5.04025 8.14217 5.63809 8.73901 5.63809 9.47521C5.63803 10.2114 5.04025 10.8083 4.30282 10.8083ZM9.22212 10.8083C8.48468 10.8083 7.88685 10.2114 7.88685 9.47521C7.88685 8.73901 8.48468 8.14217 9.22212 8.14217C9.95956 8.14217 10.5574 8.73901 10.5574 9.47521C10.5574 10.2114 9.95956 10.8083 9.22212 10.8083ZM14.1415 10.8083C13.4041 10.8083 12.8062 10.2114 12.8062 9.47521C12.8062 8.73901 13.4041 8.14217 14.1415 8.14217C14.8789 8.14217 15.4768 8.73901 15.4768 9.47521C15.4768 10.2114 14.8789 10.8083 14.1415 10.8083Z" fill="white"/>
</g>
<defs>
<clipPath id="clip0_136_2708">
<rect width="25" height="25" fill="white" transform="translate(0 0.226501)"/>
</clipPath>
</defs>
</svg>
