<?xml version="1.0" encoding="iso-8859-1"?>
<!-- Generator: Adobe Illustrator 18.0.0, SVG Export Plug-In . SVG Version: 6.00 Build 0)  -->
<!DOCTYPE svg PUBLIC "-//W3C//DTD SVG 1.1//EN" "http://www.w3.org/Graphics/SVG/1.1/DTD/svg11.dtd">
<svg version="1.1" id="Capa_1" xmlns="http://www.w3.org/2000/svg" xmlns:xlink="http://www.w3.org/1999/xlink" x="0px" y="0px"
	 viewBox="0 0 431.143 431.143" style="enable-background:new 0 0 431.143 431.143;" xml:space="preserve">
<g>
	<path d="M92.022,326.416c-2.933-5.883-5.376-12.052-7.263-18.337c-1.191-3.967-5.373-6.217-9.34-5.026
		c-3.968,1.191-6.218,5.373-5.027,9.34c2.132,7.101,4.893,14.07,8.204,20.715c1.313,2.633,3.964,4.156,6.719,4.156
		c1.124,0,2.266-0.253,3.34-0.789C92.362,334.626,93.869,330.123,92.022,326.416z" fill="rgb(141, 112, 68)"/>
	<path d="M164.757,386.784c-23.416-6.611-44.677-20.848-59.865-40.087c-2.567-3.251-7.283-3.806-10.534-1.239
		c-3.251,2.567-3.806,7.283-1.239,10.534c17.133,21.702,41.127,37.764,67.563,45.228c0.682,0.192,1.367,0.284,2.042,0.284
		c3.272,0,6.281-2.159,7.214-5.464C171.063,392.053,168.743,387.909,164.757,386.784z" fill="rgb(141, 112, 68)"/>
	<path d="M261.462,178.047c32.2,21.772,51.424,57.879,51.424,96.588c0,24.733-7.684,48.372-22.219,68.363
		c-2.437,3.35-1.695,8.041,1.654,10.477c1.332,0.968,2.875,1.435,4.405,1.435c2.318,0,4.604-1.071,6.071-3.09
		c16.413-22.571,25.088-49.261,25.088-77.184c0-43.696-21.69-84.448-58.021-109.014c-3.433-2.321-8.095-1.419-10.414,2.012
		C257.13,171.065,258.031,175.727,261.462,178.047z" fill="rgb(141, 112, 68)"/>
	<path d="M188.878,150.627c0,4.142,3.357,7.5,7.5,7.5c16.092,0,31.68,3.233,46.332,9.611c0.975,0.424,1.99,0.625,2.989,0.625
		c2.895,0,5.652-1.686,6.881-4.509c1.653-3.798-0.086-8.217-3.884-9.87c-16.553-7.204-34.155-10.857-52.318-10.857
		C192.236,143.127,188.878,146.485,188.878,150.627z" fill="rgb(141, 112, 68)"/>
	<path d="M361.774,52.036c-4.143,0-7.5,3.358-7.5,7.5v17.25c0,18.608-15.14,33.748-33.748,33.748s-33.748-15.139-33.748-33.748v-9
		c0-26.879-21.868-48.748-48.748-48.748h-0.404c-26.879,0-48.747,21.868-48.747,48.748v22.439h-30c-4.143,0-7.5,3.358-7.5,7.5
		v27.006C86.945,144.109,39.869,203.973,39.869,274.635c0,86.299,70.209,156.508,156.508,156.508s156.509-70.209,156.509-156.508
		c0-70.661-47.076-130.525-111.508-149.904V97.725c0-4.142-3.357-7.5-7.5-7.5h-30V67.785c0-18.608,15.139-33.748,33.747-33.748
		h0.404c18.608,0,33.748,15.139,33.748,33.748v9c0,26.879,21.868,48.748,48.748,48.748s48.748-21.868,48.748-48.748v-17.25
		C369.274,55.394,365.916,52.036,361.774,52.036z M337.886,274.635c0,78.028-63.48,141.508-141.509,141.508
		c-78.027,0-141.508-63.48-141.508-141.508s63.48-141.508,141.508-141.508C274.406,133.127,337.886,196.607,337.886,274.635z
		 M226.378,121.024c-9.714-1.894-19.742-2.897-30.001-2.897c-10.259,0-20.286,1.003-29.999,2.897v-15.798h60V121.024z" fill="rgb(141, 112, 68)"/>
	<path d="M372.381,29.5l16.697-16.697c2.929-2.929,2.929-7.678,0-10.606c-2.93-2.929-7.678-2.929-10.607,0l-16.696,16.696
		L345.077,2.197c-2.93-2.929-7.678-2.929-10.607,0c-2.929,2.929-2.929,7.678,0,10.606L351.167,29.5L334.47,46.197
		c-2.929,2.929-2.929,7.678,0,10.606c1.465,1.464,3.385,2.197,5.304,2.197s3.839-0.732,5.304-2.197l16.696-16.696l16.696,16.696
		c1.465,1.464,3.385,2.197,5.304,2.197s3.839-0.732,5.304-2.197c2.929-2.929,2.929-7.678,0-10.606L372.381,29.5z" fill="rgb(141, 112, 68)"/>
</g>
</svg>
