<svg width="20" height="20" viewBox="0 0 20 20" fill="none" xmlns="http://www.w3.org/2000/svg">
<circle cx="10" cy="10" r="10" fill="#344569" fill-opacity="0.5"/>
<path d="M14.7852 12.9844L12.5 10.6992C12.0312 10.25 11.3672 10.1523 10.8203 10.4258L8.75 8.35547V7.125L6.25 5.25L5 6.5L6.875 9H8.08594L10.1562 11.0898C9.90234 11.6367 9.98047 12.3008 10.4297 12.75L12.7148 15.0547C13.0078 15.3281 13.457 15.3281 13.75 15.0547L14.7852 14.0195C15.0586 13.7266 15.0586 13.2773 14.7852 12.9844ZM11.4648 9.64453C12.0312 9.64453 12.5391 9.85938 12.9297 10.25L13.3203 10.6406C13.6133 10.5039 13.9062 10.3086 14.1602 10.0547C14.8828 9.33203 15.1367 8.31641 14.9023 7.39844C14.8633 7.22266 14.6484 7.16406 14.5117 7.28125L13.0664 8.74609L11.7383 8.51172L11.5234 7.18359L12.9688 5.73828C13.1055 5.60156 13.0273 5.38672 12.8516 5.34766C11.9336 5.11328 10.918 5.36719 10.1953 6.08984C9.62891 6.63672 9.375 7.37891 9.375 8.10156L10.9961 9.70312C11.1523 9.66406 11.3086 9.64453 11.4648 9.64453ZM9.43359 11.2461L8.33984 10.1523L5.35156 13.1211C4.86328 13.6094 4.86328 14.4102 5.35156 14.8984C5.83984 15.3867 6.64062 15.3867 7.12891 14.8984L9.53125 12.4766C9.39453 12.0859 9.33594 11.6758 9.43359 11.2461ZM6.25 14.4688C5.97656 14.4688 5.78125 14.2734 5.78125 14C5.78125 13.7461 5.97656 13.5312 6.25 13.5312C6.50391 13.5312 6.71875 13.7461 6.71875 14C6.71875 14.2734 6.50391 14.4688 6.25 14.4688Z" fill="white"/>
</svg>
