<svg width="25" height="26" viewBox="0 0 25 26" fill="none" xmlns="http://www.w3.org/2000/svg">
<g clip-path="url(#clip0_136_2683)">
<path d="M12.5 10.5503C14.8461 10.5503 16.748 8.64835 16.748 6.30222C16.748 3.9561 14.8461 2.05418 12.5 2.05418C10.1539 2.05418 8.25195 3.9561 8.25195 6.30222C8.25195 8.64835 10.1539 10.5503 12.5 10.5503Z" fill="white"/>
<path d="M21.0938 10.5502C22.5769 10.5502 23.7793 9.34786 23.7793 7.86468C23.7793 6.3815 22.5769 5.17914 21.0938 5.17914C19.6106 5.17914 18.4082 6.3815 18.4082 7.86468C18.4082 9.34786 19.6106 10.5502 21.0938 10.5502Z" fill="white"/>
<path d="M3.90625 10.5502C5.38944 10.5502 6.5918 9.34786 6.5918 7.86468C6.5918 6.3815 5.38944 5.17914 3.90625 5.17914C2.42306 5.17914 1.2207 6.3815 1.2207 7.86468C1.2207 9.34786 2.42306 10.5502 3.90625 10.5502Z" fill="white"/>
<path d="M6.55225 12.9619C5.49512 12.0958 4.53774 12.2104 3.31543 12.2104C1.4873 12.2104 0 13.6889 0 15.5058V20.8383C0 21.6274 0.644043 22.269 1.43604 22.269C4.85527 22.269 4.44336 22.3309 4.44336 22.1215C4.44336 18.3429 3.9958 15.5719 6.55225 12.9619Z" fill="white"/>
<path d="M13.6626 12.2299C11.5277 12.0518 9.67194 12.232 8.07131 13.5531C5.39275 15.6986 5.90822 18.5875 5.90822 22.1215C5.90822 23.0565 6.66897 23.8314 7.61819 23.8314C17.9249 23.8314 18.3351 24.1639 18.9463 22.8105C19.1468 22.3527 19.0918 22.4982 19.0918 18.1195C19.0918 14.6417 16.0804 12.2299 13.6626 12.2299Z" fill="white"/>
<path d="M21.6846 12.2104C20.4556 12.2104 19.5035 12.0969 18.4478 12.9618C20.9851 15.5524 20.5566 18.1344 20.5566 22.1215C20.5566 22.3321 20.2147 22.2689 23.5127 22.2689C24.333 22.2689 25 21.6044 25 20.7875V15.5058C25 13.6889 23.5127 12.2104 21.6846 12.2104Z" fill="white"/>
</g>
<defs>
<clipPath id="clip0_136_2683">
<rect width="25" height="25" fill="white" transform="translate(0 0.460876)"/>
</clipPath>
</defs>
</svg>
