<svg width="46" height="46" viewBox="0 0 46 46" fill="none" xmlns="http://www.w3.org/2000/svg">
<g clip-path="url(#clip0_105_6001)">
<path d="M25.9277 10.6074C25.9277 12.5798 27.5316 14.1836 29.5039 14.1836H39.6387V40.666C39.6387 43.0553 37.694 45 35.3047 45H10.6953C8.306 45 6.36133 43.0553 6.36133 40.666V5.33398C6.36133 2.94467 8.306 1 10.6953 1H25.9277V10.6074ZM19.4598 31.6406H13.0684C12.0641 31.6406 11.25 32.4548 11.25 33.459C11.25 34.4632 12.0641 35.2773 13.0684 35.2773H19.4598C20.464 35.2773 21.2781 34.4632 21.2781 33.459C21.2781 32.4548 20.464 31.6406 19.4598 31.6406ZM13.0684 24.6094C12.0641 24.6094 11.25 25.4235 11.25 26.4277C11.25 27.432 12.0641 28.2461 13.0684 28.2461H32.4043C33.4085 28.2461 34.2227 27.432 34.2227 26.4277C34.2227 25.4235 33.4085 24.6094 32.4043 24.6094H13.0684ZM34.2227 19.3965C34.2227 18.3923 33.4085 17.5781 32.4043 17.5781H13.0684C12.0641 17.5781 11.25 18.3923 11.25 19.3965C11.25 20.4007 12.0641 21.2148 13.0684 21.2148H32.4043C33.4085 21.2148 34.2227 20.4007 34.2227 19.3965Z" fill="#03830C" stroke="#03830C"/>
<path d="M29.0645 10.6074C29.0645 10.8497 29.2616 11.0469 29.5039 11.0469H39.551C39.3099 10.6016 38.9996 10.1927 38.6269 9.83995L30.1522 1.82239C29.8233 1.51125 29.457 1.25171 29.0645 1.04675V10.6074H29.0645Z" fill="#03830C"/>
</g>
<defs>
<clipPath id="clip0_105_6001">
<rect width="45" height="45" fill="white" transform="translate(0.5 0.5)"/>
</clipPath>
</defs>
</svg>
