<svg id="Image" height="512" viewBox="0 0 64 64" width="512" xmlns="http://www.w3.org/2000/svg"><g><path d="m9 34.605c0-5.864 2.165-11.218 6.246-15.512 3.787-1.413 5.518-5.859 3.794-9.52-.219-.464-.755-.688-1.236-.517-3.567 1.252-5.453 5.255-4.201 8.878-.507.545-.991 1.102-1.441 1.677-.041-.215-.088-.429-.149-.64-.565-1.954-1.917-3.567-3.71-4.426-.464-.221-1.019-.057-1.286.381-1.947 3.189-1.14 7.536 2.114 9.707-.304.676-.575 1.365-.814 2.066-.704-1.215-1.744-2.204-3.013-2.812-.461-.221-1.019-.058-1.286.381-2.079 3.408-1.002 8.097 2.726 10.064l.256.298c.001.816.051 1.624.129 2.427-1.216-.903-2.683-1.359-4.186-1.263-.504.033-.905.438-.933.942-.228 4.086 2.863 7.616 6.78 7.53l.187.084c.399.945.854 1.865 1.365 2.752-1.691-.3-3.438.043-4.898.984-.418.27-.574.806-.366 1.258 1.631 3.544 5.924 5.217 9.561 3.23.842.805 1.737 1.559 2.698 2.242 1.069.757 2.248-.857 1.158-1.631-5.945-4.225-9.495-11.17-9.495-18.58zm-.711-17.735c1.773 1.353 2.476 3.778 1.69 5.923-1.8-1.378-2.464-3.813-1.69-5.923zm9.274-5.497c.515 2.114-.385 4.342-2.205 5.457-.512-2.109.382-4.337 2.205-5.457zm-12.272 14.839c1.773 1.353 2.476 3.778 1.69 5.923-1.794-1.372-2.467-3.804-1.69-5.923zm-1.25 11.626c2.038.343 3.637 2.128 3.916 4.374-2.094-.359-3.645-2.19-3.916-4.374zm5.953 13.38c-1.061-.318-1.979-.986-2.62-1.885 1.003-.396 2.116-.449 3.167-.133 1.062.318 1.981.986 2.622 1.886-1.018.4-2.123.447-3.169.132z"/><path d="m55.208 44.266c3.889.086 7.009-3.414 6.78-7.53-.028-.505-.429-.909-.933-.942-1.495-.094-2.966.361-4.186 1.265.079-.803.129-1.612.129-2.427l.256-.299c3.743-1.972 4.796-6.671 2.725-10.064-.267-.439-.823-.601-1.286-.381-1.268.608-2.308 1.597-3.012 2.812-.239-.701-.51-1.389-.814-2.065 3.244-2.163 4.066-6.51 2.114-9.708-.267-.438-.822-.601-1.286-.381-1.793.859-3.146 2.472-3.71 4.426-.061.211-.107.425-.149.639-.45-.575-.933-1.131-1.439-1.676 1.252-3.632-.642-7.628-4.202-8.878-.482-.17-1.018.054-1.236.518-1.724 3.67.01 8.106 3.796 9.518 1.492 1.57 2.735 3.277 3.701 5.105.001.001.002.003.002.004 1.675 3.17 2.542 6.685 2.542 10.403 0 7.41-3.55 14.356-9.495 18.58-1.09.774.09 2.387 1.158 1.631.96-.682 1.855-1.437 2.697-2.241 3.647 1.993 7.938.303 9.56-3.231.208-.452.052-.987-.366-1.257-1.457-.942-3.205-1.285-4.897-.985.511-.887.965-1.806 1.365-2.752zm.502-27.396c.781 2.128.095 4.559-1.69 5.923-.784-2.14-.086-4.567 1.69-5.923zm4.248 20.969c-.286 2.303-1.936 4.039-3.916 4.374.28-2.251 1.883-4.032 3.916-4.374zm-1.25-11.627c.782 2.132.092 4.562-1.69 5.924-.786-2.144-.083-4.57 1.69-5.924zm-12.272-14.838c.873.536 1.568 1.352 1.97 2.336.407.998.484 2.093.235 3.12-1.829-1.121-2.717-3.348-2.205-5.456zm10.19 37.959c-1.31 1.841-3.682 2.583-5.791 1.753.641-.9 1.56-1.568 2.622-1.886 1.055-.316 2.168-.264 3.169.133z"/><path d="m49 34c0-9.342-7.62-17-17-17-9.361 0-17 7.637-17 17 0 9.358 7.634 17 17 17 9.379 0 17-7.658 17-17zm-6.74 10.912c-.813-.719-1.684-1.347-2.608-1.875.766-2.342 1.234-5.074 1.322-8.037h5.975c-.259 3.899-2.008 7.389-4.689 9.912zm-9.26-1.863c1.439.106 2.837.427 4.148.97-1.073 2.522-2.529 4.279-4.148 4.802zm0-2v-6.049h5.976c-.085 2.602-.491 5.046-1.139 7.142-1.53-.623-3.159-.986-4.837-1.093zm0-8.049v-6.049c1.678-.107 3.308-.47 4.836-1.093.648 2.096 1.054 4.54 1.139 7.142zm0-8.049v-5.772c1.619.523 3.075 2.28 4.148 4.802-1.311.543-2.709.864-4.148.97zm4.098-5.04c1.293.47 2.503 1.107 3.604 1.894-.557.471-1.149.885-1.764 1.256-.531-1.207-1.15-2.267-1.84-3.15zm-6.098-.732v5.772c-1.439-.106-2.837-.427-4.148-.97 1.073-2.522 2.528-4.279 4.148-4.802zm-5.938 3.881c-.615-.371-1.206-.785-1.763-1.256 1.1-.787 2.31-1.424 3.602-1.893-.69.883-1.308 1.943-1.839 3.149zm5.938 3.891v6.049h-5.976c.085-2.603.491-5.047 1.139-7.143 1.529.624 3.159.987 4.837 1.094zm0 8.049v6.049c-1.678.107-3.307.47-4.836 1.094-.648-2.096-1.054-4.54-1.139-7.143zm0 8.049v5.772c-1.619-.523-3.075-2.28-4.148-4.802 1.311-.543 2.708-.864 4.148-.97zm-4.099 5.04c-1.293-.469-2.502-1.106-3.602-1.893.557-.471 1.148-.885 1.763-1.256.531 1.206 1.149 2.266 1.839 3.149zm12.036-3.15c.615.371 1.207.785 1.764 1.256-1.1.788-2.31 1.425-3.604 1.894.691-.883 1.31-1.943 1.84-3.15zm8.012-11.939h-5.975c-.087-2.962-.556-5.695-1.322-8.037.924-.528 1.796-1.156 2.608-1.875 2.681 2.523 4.43 6.013 4.689 9.912zm-25.209-9.913c.812.719 1.684 1.347 2.607 1.875-.766 2.342-1.235 5.075-1.322 8.038h-5.975c.259-3.9 2.008-7.39 4.69-9.913zm-4.69 11.913h5.975c.087 2.963.556 5.696 1.322 8.038-.924.528-1.795 1.156-2.607 1.875-2.682-2.523-4.431-6.013-4.69-9.913z"/></g></svg>