<svg width="19" height="20" viewBox="0 0 19 20" fill="none" xmlns="http://www.w3.org/2000/svg">
<g clip-path="url(#clip0_65_845)">
<path d="M12.3113 10.8301L10.72 12.5108C10.0747 13.1925 8.93931 13.2072 8.28006 12.5108L6.6887 10.8301L0.973267 16.8659C1.18601 16.9695 1.42058 17.0313 1.66996 17.0313H17.3301C17.5795 17.0313 17.814 16.9696 18.0267 16.866L12.3113 10.8301Z" fill="#646464"/>
<path d="M17.3302 2.96875H1.67001C1.42063 2.96875 1.18606 3.03055 0.973389 3.1341L7.08074 9.58422C7.08115 9.58465 7.08163 9.58473 7.08204 9.58516C7.08245 9.58559 7.08252 9.58617 7.08252 9.58617L9.06835 11.6834C9.27928 11.9055 9.72096 11.9055 9.93189 11.6834L11.9173 9.58652C11.9173 9.58652 11.9178 9.58559 11.9182 9.58516C11.9182 9.58516 11.9191 9.58465 11.9195 9.58422L18.0267 3.13406C17.814 3.03047 17.5795 2.96875 17.3302 2.96875Z" fill="#646464"/>
<path d="M0.177605 3.95361C0.0675391 4.18791 0 4.44799 0 4.72658V15.2735C0 15.5521 0.0674648 15.8121 0.177568 16.0464L5.90291 10.0002L0.177605 3.95361Z" fill="#646464"/>
<path d="M18.8224 3.95349L13.0972 10.0002L18.8224 16.0465C18.9325 15.8122 19 15.5521 19 15.2734V4.72654C19 4.44787 18.9325 4.18779 18.8224 3.95349Z" fill="#646464"/>
</g>
<defs>
<clipPath id="clip0_65_845">
<rect width="19" height="20" fill="white"/>
</clipPath>
</defs>
</svg>
