<svg width="25" height="21" viewBox="0 0 25 21" fill="none" xmlns="http://www.w3.org/2000/svg">
<path d="M12.5 4.38101L3.58388 11.7314C3.58388 11.7418 3.58127 11.757 3.57606 11.7778C3.57095 11.7985 3.56824 11.8135 3.56824 11.8241V19.2672C3.56824 19.5359 3.66649 19.7688 3.86294 19.9649C4.05933 20.1612 4.2919 20.2599 4.56069 20.2599H10.515V14.3053H14.4851V20.2601H20.4393C20.7081 20.2601 20.941 20.1616 21.1371 19.9649C21.3335 19.769 21.4321 19.536 21.4321 19.2672V11.8241C21.4321 11.7828 21.4265 11.7517 21.4165 11.7314L12.5 4.38101Z" fill="white"/>
<path d="M24.8275 10.0566L21.4318 7.23444V0.907723C21.4318 0.763088 21.3853 0.644144 21.292 0.551052C21.1994 0.458069 21.0805 0.411577 20.9355 0.411577H17.9583C17.8135 0.411577 17.6947 0.458069 17.6015 0.551052C17.5086 0.644144 17.4621 0.763143 17.4621 0.907723V3.93147L13.6786 0.768031C13.3482 0.499238 12.9553 0.364868 12.5004 0.364868C12.0455 0.364868 11.6526 0.499238 11.3219 0.768031L0.17231 10.0566C0.068953 10.1392 0.0123049 10.2503 0.00176828 10.3899C-0.00871406 10.5294 0.0274039 10.6512 0.110231 10.7545L1.07162 11.902C1.15445 11.995 1.26285 12.0519 1.39728 12.0727C1.52138 12.0831 1.64549 12.0468 1.76959 11.9641L12.5 3.01657L23.2306 11.9641C23.3135 12.0362 23.4218 12.0722 23.5562 12.0722H23.6028C23.737 12.0518 23.8452 11.9946 23.9285 11.9018L24.89 10.7544C24.9727 10.6509 25.0089 10.5293 24.9981 10.3897C24.9875 10.2505 24.9307 10.1394 24.8275 10.0566Z" fill="white"/>
</svg>
