<svg width="16" height="16" viewBox="0 0 16 16" fill="none" xmlns="http://www.w3.org/2000/svg">
<path d="M0 5.58976V4.66669C0.000895679 3.93252 0.292941 3.22867 0.812078 2.70953C1.33122 2.1904 2.03506 1.89835 2.76923 1.89746H3.69231V2.82053C3.69231 3.14695 3.82198 3.46 4.05279 3.69082C4.28361 3.92163 4.59666 4.0513 4.92308 4.0513C5.2495 4.0513 5.56255 3.92163 5.79336 3.69082C6.02418 3.46 6.15385 3.14695 6.15385 2.82053V1.89746H9.84615V2.82053C9.84615 3.14695 9.97582 3.46 10.2066 3.69082C10.4375 3.92163 10.7505 4.0513 11.0769 4.0513C11.4033 4.0513 11.7164 3.92163 11.9472 3.69082C12.178 3.46 12.3077 3.14695 12.3077 2.82053V1.89746H13.2308C13.9649 1.89835 14.6688 2.1904 15.1879 2.70953C15.7071 3.22867 15.9991 3.93252 16 4.66669V5.58976H0ZM4.30769 2.82053C4.30769 2.98374 4.37253 3.14027 4.48793 3.25568C4.60334 3.37108 4.75987 3.43592 4.92308 3.43592C5.08629 3.43592 5.24281 3.37108 5.35822 3.25568C5.47363 3.14027 5.53846 2.98374 5.53846 2.82053V1.28207C5.53846 1.11886 5.47363 0.962336 5.35822 0.846929C5.24281 0.731522 5.08629 0.666687 4.92308 0.666687C4.75987 0.666687 4.60334 0.731522 4.48793 0.846929C4.37253 0.962336 4.30769 1.11886 4.30769 1.28207V2.82053ZM10.4615 1.28207V2.82053C10.4615 2.98374 10.5264 3.14027 10.6418 3.25568C10.7572 3.37108 10.9137 3.43592 11.0769 3.43592C11.2401 3.43592 11.3967 3.37108 11.5121 3.25568C11.6275 3.14027 11.6923 2.98374 11.6923 2.82053V1.28207C11.6923 1.11886 11.6275 0.962336 11.5121 0.846929C11.3967 0.731522 11.2401 0.666687 11.0769 0.666687C10.9137 0.666687 10.7572 0.731522 10.6418 0.846929C10.5264 0.962336 10.4615 1.11886 10.4615 1.28207ZM16 6.20515V12.6667C15.9991 13.4009 15.7071 14.1047 15.1879 14.6238C14.6688 15.143 13.9649 15.435 13.2308 15.4359H2.76923C2.03506 15.435 1.33122 15.143 0.812078 14.6238C0.292941 14.1047 0.000895679 13.4009 0 12.6667V6.20515H16ZM10.2483 9.68484H8.97785L8.58462 8.47653C8.54415 8.35341 8.46584 8.24621 8.36087 8.17022C8.25589 8.09422 8.1296 8.0533 8 8.0533C7.8704 8.0533 7.74411 8.09422 7.63913 8.17022C7.53416 8.24621 7.45585 8.35341 7.41539 8.47653L7.02277 9.68484H5.75169C5.62173 9.68481 5.49509 9.72594 5.38994 9.80231C5.28478 9.87869 5.20651 9.9864 5.16633 10.11C5.12616 10.2336 5.12614 10.3667 5.1663 10.4903C5.20645 10.614 5.2847 10.7217 5.38985 10.7981L6.41785 11.5448L6.02523 12.7531C5.98505 12.8768 5.98504 13.0099 6.02521 13.1335C6.06537 13.2571 6.14364 13.3649 6.24879 13.4413C6.35395 13.5176 6.48059 13.5588 6.61057 13.5588C6.74054 13.5587 6.86717 13.5176 6.97231 13.4411L8 12.6944L9.02769 13.4411C9.13283 13.5176 9.25946 13.5587 9.38943 13.5588C9.51941 13.5588 9.64605 13.5176 9.75121 13.4413C9.85637 13.3649 9.93463 13.2571 9.9748 13.1335C10.015 13.0099 10.0149 12.8768 9.97477 12.7531L9.58215 11.5448L10.6102 10.7981C10.7153 10.7217 10.7936 10.614 10.8337 10.4903C10.8739 10.3667 10.8738 10.2336 10.8337 10.11C10.7935 9.9864 10.7152 9.87869 10.6101 9.80231C10.5049 9.72594 10.3783 9.68481 10.2483 9.68484Z" fill="#344569" fill-opacity="0.5"/>
</svg>
