<svg id="Layer_1" enable-background="new 0 0 512.007 512.007" height="512" viewBox="0 0 512.007 512.007" width="512" xmlns="http://www.w3.org/2000/svg">
    <g>
        <path
            d="m310.503 450.007c-4.142 0-7.5 3.358-7.5 7.5s3.358 7.5 7.5 7.5 7.5-3.358 7.5-7.5-3.358-7.5-7.5-7.5zm128.564-157.122c-15.963-15.972-37.76-24.057-59.736-22.519-.084-1.992-3.82-43.898-4.037-46.055 7.434-12.851 4.171-29.685-7.266-39.109-7.374-6.076-16.79-8.263-25.631-6.796-.063-9.158-4.176-17.768-11.316-23.648-7.376-6.075-16.792-8.262-25.634-6.794-.063-9.151-4.18-17.76-11.323-23.644-7.372-6.079-16.786-8.269-25.627-6.803-.065-9.156-4.181-17.765-11.326-23.65-13.309-10.959-33.267-9.282-44.489 3.744l-7.39 8.577-15.005-15.005c3.109-16.537.568-33.921-7.171-49.002-1.892-3.686-6.409-5.14-10.098-3.248-3.685 1.891-5.139 6.412-3.248 10.097 6.278 12.233 8.307 26.339 5.71 39.722-.897 4.636.561 9.398 3.899 12.738l16.094 16.093s-9.334 11.372-10.494 13.733c-9.57-2.693-19.602-1.481-28.019 3.061l-5.233-5.234c-3.335-3.335-8.103-4.788-12.748-3.89-20.061 3.88-40.781-2.548-55.432-17.2-11.988-11.989-18.445-27.75-18.318-44.185l36.597 36.597c7.545 7.528 19.733 7.602 27.172.164l21.862-21.864c7.443-7.364 7.2-19.886-.173-27.183l-36.583-36.583c.116 0 .234-.001.351-.001 12.331 0 24.445 3.726 34.813 10.816 3.419 2.337 8.087 1.463 10.424-1.958 2.339-3.419 1.462-8.086-1.957-10.424-15.818-10.815-34.917-15.325-53.796-12.704-4.211.586-7.665 3.456-9.014 7.491-1.366 4.086-.311 8.521 2.743 11.561l42.41 42.41c1.577 1.639 2.071 4.017.18 5.964l-21.869 21.87c-1.596 1.596-4.273 1.516-5.963-.17l-42.41-42.41c-3.062-3.061-7.499-4.108-11.575-2.741-4.027 1.351-6.893 4.804-7.478 9.011-3.284 23.622 4.931 47.9 21.976 64.946 18.083 18.082 43.661 26.063 68.486 21.396l4.019 4.018c-1.571 1.957-33.509 49.539-35.021 51.781-11.741 17.418-11.155 40.425 1.457 57.25l26.153 34.897c2.501 3.336 7.212 3.968 10.5 1.503 3.314-2.484 3.987-7.185 1.504-10.5l-26.154-34.898c-8.786-11.72-9.196-27.742-1.021-39.871l33.371-49.532c5.994-8.9 18.008-12.242 27.927-7.781l67.339 30.6c8.028 3.649 11.687 12.889 8.33 21.033-3.401 8.253-13.148 12.29-21.377 8.816-.488-.206-23.9-10.073-24.357-10.228-11.534-3.917-24.339-.21-31.862 9.221l-8.41 10.53c-2.585 3.237-2.057 7.956 1.18 10.541 3.235 2.585 7.955 2.055 10.541-1.18l8.413-10.533c5.516-6.936 14.121-5.802 21.283-1.844l106.48 106.481c-3.508 18.645.123 37.713 9.813 53.718v38.301c-2.035-.343-4.122-.531-6.253-.531h-115.208c-1.758 0-3.485.131-5.18.366v-43.428c0-10.848-3.461-21.2-10.008-29.938l-24.064-32.11c-2.484-3.314-7.186-3.989-10.5-1.503-3.314 2.484-3.987 7.185-1.504 10.499l24.064 32.11c4.587 6.122 7.012 13.363 7.012 20.942v48.979c-10.405 6.672-17.32 18.331-17.32 31.583v55.159c0 4.142 3.357 7.5 7.5 7.5s7.5-3.358 7.5-7.5v-55.159c0-12.407 10.094-22.5 22.5-22.5h115.208c12.406 0 22.5 10.093 22.5 22.5v55.159c0 4.142 3.357 7.5 7.5 7.5s7.5-3.358 7.5-7.5v-55.159c0-12.792-6.442-24.102-16.247-30.873v-26.438c14.183 12.545 32.543 19.488 51.229 19.488 3.438 0 6.892-.235 10.327-.713 4.202-.598 7.648-3.471 8.992-7.497 1.36-4.076.309-8.506-2.745-11.562l-42.416-42.416c-1.54-1.597-2.047-3.997-.173-5.949l21.861-21.873c1.598-1.593 4.278-1.516 5.97.174l42.412 42.411c3.06 3.059 7.494 4.108 11.575 2.74 4.026-1.351 6.892-4.804 7.477-9.011 3.286-23.631-4.93-47.91-21.975-64.944zm-104.169-94.154c5.98-6.942 16.576-7.732 23.593-1.952 6.807 5.607 7.818 15.919 1.996 22.603l-23.351 27.099c-5.942 6.898-16.526 7.772-23.593 1.952-6.839-5.633-7.811-15.917-1.996-22.603zm28.934 66.008-12.154-12.154 10.037-11.648zm-65.888-96.446c5.946-6.9 16.532-7.778 23.601-1.957 6.815 5.613 7.796 15.93 1.986 22.605l-23.35 27.1c-5.944 6.898-16.524 7.772-23.584 1.952-2.815-2.324-4.689-5.404-5.456-8.83 2.928-4.593 4.679-10.178 4.911-15.473zm-99.091-31.167c.521-.925 25.192-29.723 25.192-29.723 5.942-6.897 16.525-7.776 23.59-1.957 6.813 5.612 7.812 15.923 1.996 22.605l-19.906 23.103zm58.852 26.742-13.751-6.249 17.04-19.777c5.944-6.897 16.525-7.772 23.59-1.947 6.821 5.625 7.811 15.926 1.998 22.604l-15.096 17.514c-3.157-5.15-7.843-9.446-13.781-12.145zm152.476 147.209c-7.539-7.522-19.725-7.605-27.173-.172l-21.861 21.873c-7.46 7.355-7.277 19.811.173 27.172l36.579 36.579h-.17c-16.262 0-32.258-6.548-44.011-18.294-14.655-14.664-21.082-35.389-17.191-55.443.9-4.654-.563-9.422-3.899-12.738l-86.45-86.45c4.674-.21 9.128-1.443 13.113-3.531 1.894 3.582 4.506 6.802 7.762 9.49 7.357 6.074 16.64 8.296 25.639 6.802.064 9.165 4.164 17.751 11.316 23.644 10.478 8.633 25.219 9.542 36.675 2.793l19.614 19.613c3.311 3.297 8.133 4.752 12.7 3.877 20.075-3.844 40.785 2.529 55.465 17.198 11.789 11.781 18.34 27.838 18.295 44.161z" fill="#A48EF2"/>
    </g>
</svg>