<svg id="Capa_1" enable-background="new 0 0 512 512" height="512" viewBox="0 0 512 512" width="512" xmlns="http://www.w3.org/2000/svg">
    <g>
        <path
            d="m464.36 183.518c-.739.174-1.48.328-2.221.49 7.956 22.838 12.11 47.094 12.11 71.992 0 58.297-22.702 113.104-63.924 154.326-41.221 41.222-96.028 63.924-154.325 63.924s-113.104-22.702-154.326-63.924-63.924-96.029-63.924-154.326 22.702-113.104 63.924-154.326 96.029-63.924 154.326-63.924c24.891 0 49.14 4.152 71.972 12.104.159-.726.304-1.454.475-2.179 2.741-11.612 6.978-22.741 12.536-33.156-26.605-9.39-55.204-14.519-84.983-14.519-141.159 0-256 114.841-256 256s114.841 256 256 256 256-114.841 256-256c0-29.784-5.13-58.388-14.524-84.997-10.404 5.547-21.519 9.777-33.116 12.515z" fill="rgba(254, 133, 37, 1)" />
        <path
            d="m329.152 113.729c-2.797-10.806-4.261-21.875-4.38-32.971-21.314-8.394-44.514-13.008-68.772-13.008-103.801 0-188.25 84.449-188.25 188.25s84.449 188.25 188.25 188.25 188.25-84.449 188.25-188.25c0-24.28-4.622-47.5-13.03-68.829-11.073-.123-22.114-1.586-32.897-4.375l-7.128 7.128c9.795 19.958 15.305 42.385 15.305 66.076 0 82.986-67.514 150.5-150.5 150.5s-150.5-67.514-150.5-150.5 67.514-150.5 150.5-150.5c23.691 0 46.118 5.51 66.076 15.305z" fill="rgba(254, 133, 37, 1)"/>
        <path
            d="m256 135.5c-66.444 0-120.5 54.056-120.5 120.5s54.056 120.5 120.5 120.5 120.5-54.056 120.5-120.5c0-15.264-2.859-29.87-8.06-43.321l-15.943 15.943c-3.933 3.933-9.45 7.022-15.724 9.459 1.28 5.774 1.977 11.766 1.977 17.919 0 45.628-37.122 82.75-82.75 82.75s-82.75-37.122-82.75-82.75 37.122-82.75 82.75-82.75c6.154 0 12.145.696 17.919 1.977 2.437-6.275 5.526-11.791 9.459-15.724l15.943-15.943c-13.451-5.201-28.057-8.06-43.321-8.06z" fill="rgba(254, 133, 37, 1)"/>
        <path
            d="m265.142 225.645c.243-5.619.763-13.151 1.852-21.234-3.548-.755-7.224-1.161-10.994-1.161-29.086 0-52.75 23.664-52.75 52.75s23.664 52.75 52.75 52.75 52.75-23.664 52.75-52.75c0-3.77-.405-7.446-1.161-10.994-8.083 1.089-15.615 1.609-21.234 1.852l-19.748 19.748c-2.929 2.93-6.768 4.394-10.607 4.394s-7.678-1.464-10.606-4.394c-5.858-5.858-5.858-15.355 0-21.213z" fill="rgba(254, 133, 37, 1)"/>
        <path
            d="m304.591 180.715c-3.536 3.537-7.037 18.567-8.687 35.38 16.811-1.65 31.844-5.151 35.38-8.687l163.879-163.878c5.861-5.861 5.857-15.364-.008-21.221l-5.484-5.476c-5.859-5.851-15.351-5.847-21.205.008z" fill="rgba(254, 133, 37, 1)" />
        <path
            d="m424.211 156.908c31.019 2.561 61.861-8.474 84.602-31.214 4.241-4.242 4.241-11.143 0-15.385l-19.001-19.001z" fill="rgba(254, 133, 37, 1)"/>
        <path
            d="m420.656 22.224-19.001-19.001c-2.121-2.12-4.907-3.181-7.692-3.181-2.786 0-5.571 1.06-7.692 3.181-22.738 22.738-33.768 53.586-31.214 84.601z" fill="rgba(254, 133, 37, 1)"/>
    </g>
</svg>