<svg width="40" height="44" viewBox="0 0 40 44" fill="none" xmlns="http://www.w3.org/2000/svg">
<g clip-path="url(#clip0_136_3183)">
<path d="M19.9997 8.95673C21.9432 8.95673 23.5187 7.25039 23.5187 5.14551C23.5187 3.04063 21.9432 1.33429 19.9997 1.33429C18.0562 1.33429 16.4807 3.04063 16.4807 5.14551C16.4807 7.25039 18.0562 8.95673 19.9997 8.95673Z" fill="white"/>
<path d="M25.711 6.54443C25.1195 9.37389 22.7888 11.4975 20.0001 11.4975C17.2113 11.4975 14.8806 9.37389 14.2891 6.54443C12.1914 7.05067 10.6161 9.07487 10.6161 11.4975V16.5792C10.6161 17.9799 11.6688 19.12 12.9621 19.12C14.2554 19.12 15.3081 17.9799 15.3081 16.5792V14.0383H24.6921V16.5792C24.6921 17.9799 25.7448 19.12 27.0381 19.12C28.3314 19.12 29.3841 17.9799 29.3841 16.5792V11.4975C29.384 9.07487 27.8086 7.05067 25.711 6.54443Z" fill="white"/>
<path d="M38.181 32.3833C36.4978 31.3308 34.3457 31.9552 33.3739 33.7782C32.4022 35.601 32.9788 37.932 34.662 38.9843C36.3451 40.0368 38.5755 39.4122 39.5472 37.5894C40.519 35.7665 39.8641 33.4357 38.181 32.3833Z" fill="white"/>
<path d="M36.0341 23.7061L31.9708 21.1652C30.8507 20.4649 29.4128 20.8822 28.7661 22.0953C28.1195 23.3084 28.5048 24.8658 29.6249 25.5661L31.6566 26.8365L26.9646 35.6382L24.9328 34.3678C23.8128 33.6674 22.3748 34.0848 21.7281 35.2979C21.0815 36.511 21.4668 38.0683 22.5869 38.7687L26.6502 41.3095C28.5875 42.5208 30.9938 42.0553 32.4473 40.3409C30.4806 38.3714 29.9478 35.1236 31.3421 32.5077C32.7365 29.8919 35.5999 28.7679 38.1582 29.6277C38.8024 27.4072 37.9714 24.9174 36.0341 23.7061Z" fill="white"/>
<path d="M6.62616 33.7782C5.65437 31.9552 3.50226 31.3307 1.81905 32.3833C0.136005 33.4357 -0.518995 35.7665 0.45288 37.5895C1.42452 39.4123 3.65499 40.037 5.33804 38.9845C7.02124 37.932 7.59788 35.601 6.62616 33.7782Z" fill="white"/>
<path d="M18.2718 35.2979C17.6252 34.0848 16.1872 33.6676 15.0672 34.3679L13.0354 35.6383L8.34341 26.8366L10.3751 25.5662C11.4952 24.8658 11.8804 23.3084 11.2339 22.0954C10.5872 20.8823 9.14919 20.465 8.02919 21.1653L3.9659 23.7061C2.02856 24.9175 1.19762 27.4073 1.84184 29.6279C4.40004 28.7679 7.26356 29.8921 8.65794 32.5079C10.0523 35.1237 9.5195 38.3715 7.55278 40.341C9.0063 42.0554 11.4125 42.521 13.3499 41.3097L17.4132 38.7688C18.5332 38.0684 18.9185 36.511 18.2718 35.2979Z" fill="white"/>
</g>
<defs>
<clipPath id="clip0_136_3183">
<rect width="40" height="43.3218" fill="white"/>
</clipPath>
</defs>
</svg>
