<svg width="230" height="44" viewBox="0 0 230 44" fill="none" xmlns="http://www.w3.org/2000/svg">
<path d="M62.722 28L59.95 23.104H58.762V28H56.242V15.436H60.958C61.93 15.436 62.758 15.61 63.442 15.958C64.126 16.294 64.636 16.756 64.972 17.344C65.32 17.92 65.494 18.568 65.494 19.288C65.494 20.116 65.254 20.866 64.774 21.538C64.294 22.198 63.58 22.654 62.632 22.906L65.638 28H62.722ZM58.762 21.214H60.868C61.552 21.214 62.062 21.052 62.398 20.728C62.734 20.392 62.902 19.93 62.902 19.342C62.902 18.766 62.734 18.322 62.398 18.01C62.062 17.686 61.552 17.524 60.868 17.524H58.762V21.214ZM70.2933 17.47V20.62H74.5233V22.618H70.2933V25.948H75.0633V28H67.7733V15.418H75.0633V17.47H70.2933ZM85.0573 25.606H80.0533L79.2253 28H76.5793L81.0973 15.418H84.0313L88.5493 28H85.8853L85.0573 25.606ZM84.3733 23.59L82.5553 18.334L80.7373 23.59H84.3733ZM103.936 15.436V28H101.416V19.828L98.0501 28H96.1421L92.7581 19.828V28H90.2381V15.436H93.1001L97.0961 24.778L101.092 15.436H103.936ZM117.976 28L114.988 22.87H113.008V28H111.37V15.454H115.42C116.368 15.454 117.166 15.616 117.814 15.94C118.474 16.264 118.966 16.702 119.29 17.254C119.614 17.806 119.776 18.436 119.776 19.144C119.776 20.008 119.524 20.77 119.02 21.43C118.528 22.09 117.784 22.528 116.788 22.744L119.938 28H117.976ZM113.008 21.556H115.42C116.308 21.556 116.974 21.34 117.418 20.908C117.862 20.464 118.084 19.876 118.084 19.144C118.084 18.4 117.862 17.824 117.418 17.416C116.986 17.008 116.32 16.804 115.42 16.804H113.008V21.556ZM123.168 16.534C122.856 16.534 122.592 16.426 122.376 16.21C122.16 15.994 122.052 15.73 122.052 15.418C122.052 15.106 122.16 14.842 122.376 14.626C122.592 14.41 122.856 14.302 123.168 14.302C123.468 14.302 123.72 14.41 123.924 14.626C124.14 14.842 124.248 15.106 124.248 15.418C124.248 15.73 124.14 15.994 123.924 16.21C123.72 16.426 123.468 16.534 123.168 16.534ZM123.96 18.136V28H122.322V18.136H123.96ZM130.243 28.162C129.487 28.162 128.809 28.036 128.209 27.784C127.609 27.52 127.135 27.16 126.787 26.704C126.439 26.236 126.247 25.702 126.211 25.102H127.903C127.951 25.594 128.179 25.996 128.587 26.308C129.007 26.62 129.553 26.776 130.225 26.776C130.849 26.776 131.341 26.638 131.701 26.362C132.061 26.086 132.241 25.738 132.241 25.318C132.241 24.886 132.049 24.568 131.665 24.364C131.281 24.148 130.687 23.938 129.883 23.734C129.151 23.542 128.551 23.35 128.083 23.158C127.627 22.954 127.231 22.66 126.895 22.276C126.571 21.88 126.409 21.364 126.409 20.728C126.409 20.224 126.559 19.762 126.859 19.342C127.159 18.922 127.585 18.592 128.137 18.352C128.689 18.1 129.319 17.974 130.027 17.974C131.119 17.974 132.001 18.25 132.673 18.802C133.345 19.354 133.705 20.11 133.753 21.07H132.115C132.079 20.554 131.869 20.14 131.485 19.828C131.113 19.516 130.609 19.36 129.973 19.36C129.385 19.36 128.917 19.486 128.569 19.738C128.221 19.99 128.047 20.32 128.047 20.728C128.047 21.052 128.149 21.322 128.353 21.538C128.569 21.742 128.833 21.91 129.145 22.042C129.469 22.162 129.913 22.3 130.477 22.456C131.185 22.648 131.761 22.84 132.205 23.032C132.649 23.212 133.027 23.488 133.339 23.86C133.663 24.232 133.831 24.718 133.843 25.318C133.843 25.858 133.693 26.344 133.393 26.776C133.093 27.208 132.667 27.55 132.115 27.802C131.575 28.042 130.951 28.162 130.243 28.162ZM141.664 28L137.794 23.644V28H136.156V14.68H137.794V22.51L141.592 18.136H143.878L139.234 23.05L143.896 28H141.664ZM158.606 19.126C158.606 20.17 158.246 21.04 157.526 21.736C156.818 22.42 155.732 22.762 154.268 22.762H151.856V28H150.218V15.454H154.268C155.684 15.454 156.758 15.796 157.49 16.48C158.234 17.164 158.606 18.046 158.606 19.126ZM154.268 21.412C155.18 21.412 155.852 21.214 156.284 20.818C156.716 20.422 156.932 19.858 156.932 19.126C156.932 17.578 156.044 16.804 154.268 16.804H151.856V21.412H154.268ZM162.28 19.738C162.568 19.174 162.976 18.736 163.504 18.424C164.044 18.112 164.698 17.956 165.466 17.956V19.648H165.034C163.198 19.648 162.28 20.644 162.28 22.636V28H160.642V18.136H162.28V19.738ZM176.357 22.69C176.357 23.002 176.339 23.332 176.303 23.68H168.419C168.479 24.652 168.809 25.414 169.409 25.966C170.021 26.506 170.759 26.776 171.623 26.776C172.331 26.776 172.919 26.614 173.387 26.29C173.867 25.954 174.203 25.51 174.395 24.958H176.159C175.895 25.906 175.367 26.68 174.575 27.28C173.783 27.868 172.799 28.162 171.623 28.162C170.687 28.162 169.847 27.952 169.103 27.532C168.371 27.112 167.795 26.518 167.375 25.75C166.955 24.97 166.745 24.07 166.745 23.05C166.745 22.03 166.949 21.136 167.357 20.368C167.765 19.6 168.335 19.012 169.067 18.604C169.811 18.184 170.663 17.974 171.623 17.974C172.559 17.974 173.387 18.178 174.107 18.586C174.827 18.994 175.379 19.558 175.763 20.278C176.159 20.986 176.357 21.79 176.357 22.69ZM174.665 22.348C174.665 21.724 174.527 21.19 174.251 20.746C173.975 20.29 173.597 19.948 173.117 19.72C172.649 19.48 172.127 19.36 171.551 19.36C170.723 19.36 170.015 19.624 169.427 20.152C168.851 20.68 168.521 21.412 168.437 22.348H174.665ZM177.907 23.032C177.907 22.024 178.111 21.142 178.519 20.386C178.927 19.618 179.485 19.024 180.193 18.604C180.913 18.184 181.717 17.974 182.605 17.974C183.373 17.974 184.087 18.154 184.747 18.514C185.407 18.862 185.911 19.324 186.259 19.9V14.68H187.915V28H186.259V26.146C185.935 26.734 185.455 27.22 184.819 27.604C184.183 27.976 183.439 28.162 182.587 28.162C181.711 28.162 180.913 27.946 180.193 27.514C179.485 27.082 178.927 26.476 178.519 25.696C178.111 24.916 177.907 24.028 177.907 23.032ZM186.259 23.05C186.259 22.306 186.109 21.658 185.809 21.106C185.509 20.554 185.101 20.134 184.585 19.846C184.081 19.546 183.523 19.396 182.911 19.396C182.299 19.396 181.741 19.54 181.237 19.828C180.733 20.116 180.331 20.536 180.031 21.088C179.731 21.64 179.581 22.288 179.581 23.032C179.581 23.788 179.731 24.448 180.031 25.012C180.331 25.564 180.733 25.99 181.237 26.29C181.741 26.578 182.299 26.722 182.911 26.722C183.523 26.722 184.081 26.578 184.585 26.29C185.101 25.99 185.509 25.564 185.809 25.012C186.109 24.448 186.259 23.794 186.259 23.05ZM191.529 16.534C191.217 16.534 190.953 16.426 190.737 16.21C190.521 15.994 190.413 15.73 190.413 15.418C190.413 15.106 190.521 14.842 190.737 14.626C190.953 14.41 191.217 14.302 191.529 14.302C191.829 14.302 192.081 14.41 192.285 14.626C192.501 14.842 192.609 15.106 192.609 15.418C192.609 15.73 192.501 15.994 192.285 16.21C192.081 16.426 191.829 16.534 191.529 16.534ZM192.321 18.136V28H190.683V18.136H192.321ZM194.501 23.05C194.501 22.03 194.705 21.142 195.113 20.386C195.521 19.618 196.085 19.024 196.805 18.604C197.537 18.184 198.371 17.974 199.307 17.974C200.519 17.974 201.515 18.268 202.295 18.856C203.087 19.444 203.609 20.26 203.861 21.304H202.097C201.929 20.704 201.599 20.23 201.107 19.882C200.627 19.534 200.027 19.36 199.307 19.36C198.371 19.36 197.615 19.684 197.039 20.332C196.463 20.968 196.175 21.874 196.175 23.05C196.175 24.238 196.463 25.156 197.039 25.804C197.615 26.452 198.371 26.776 199.307 26.776C200.027 26.776 200.627 26.608 201.107 26.272C201.587 25.936 201.917 25.456 202.097 24.832H203.861C203.597 25.84 203.069 26.65 202.277 27.262C201.485 27.862 200.495 28.162 199.307 28.162C198.371 28.162 197.537 27.952 196.805 27.532C196.085 27.112 195.521 26.518 195.113 25.75C194.705 24.982 194.501 24.082 194.501 23.05ZM208.044 19.486V25.3C208.044 25.78 208.146 26.122 208.35 26.326C208.554 26.518 208.908 26.614 209.412 26.614H210.618V28H209.142C208.23 28 207.546 27.79 207.09 27.37C206.634 26.95 206.406 26.26 206.406 25.3V19.486H205.128V18.136H206.406V15.652H208.044V18.136H210.618V19.486H208.044ZM216.905 28.162C215.981 28.162 215.141 27.952 214.385 27.532C213.641 27.112 213.053 26.518 212.621 25.75C212.201 24.97 211.991 24.07 211.991 23.05C211.991 22.042 212.207 21.154 212.639 20.386C213.083 19.606 213.683 19.012 214.439 18.604C215.195 18.184 216.041 17.974 216.977 17.974C217.913 17.974 218.759 18.184 219.515 18.604C220.271 19.012 220.865 19.6 221.297 20.368C221.741 21.136 221.963 22.03 221.963 23.05C221.963 24.07 221.735 24.97 221.279 25.75C220.835 26.518 220.229 27.112 219.461 27.532C218.693 27.952 217.841 28.162 216.905 28.162ZM216.905 26.722C217.493 26.722 218.045 26.584 218.561 26.308C219.077 26.032 219.491 25.618 219.803 25.066C220.127 24.514 220.289 23.842 220.289 23.05C220.289 22.258 220.133 21.586 219.821 21.034C219.509 20.482 219.101 20.074 218.597 19.81C218.093 19.534 217.547 19.396 216.959 19.396C216.359 19.396 215.807 19.534 215.303 19.81C214.811 20.074 214.415 20.482 214.115 21.034C213.815 21.586 213.665 22.258 213.665 23.05C213.665 23.854 213.809 24.532 214.097 25.084C214.397 25.636 214.793 26.05 215.285 26.326C215.777 26.59 216.317 26.722 216.905 26.722ZM225.754 19.738C226.042 19.174 226.45 18.736 226.978 18.424C227.518 18.112 228.172 17.956 228.94 17.956V19.648H228.508C226.672 19.648 225.754 20.644 225.754 22.636V28H224.116V18.136H225.754V19.738Z" fill="white"/>
<g clip-path="url(#clip0_136_2838)">
<path d="M19.9997 9.07756C21.9432 9.07756 23.5187 7.3482 23.5187 5.21493C23.5187 3.08165 21.9432 1.35229 19.9997 1.35229C18.0562 1.35229 16.4807 3.08165 16.4807 5.21493C16.4807 7.3482 18.0562 9.07756 19.9997 9.07756Z" fill="white"/>
<path d="M25.711 6.63275C25.1195 9.50038 22.7888 11.6526 20.0001 11.6526C17.2113 11.6526 14.8806 9.50038 14.2892 6.63275C12.1914 7.14582 10.6161 9.19732 10.6161 11.6526V16.8029C10.6161 18.2225 11.6689 19.378 12.9621 19.378C14.2554 19.378 15.3081 18.2225 15.3081 16.8029V14.2278H24.6921V16.8029C24.6921 18.2225 25.7449 19.378 27.0381 19.378C28.3314 19.378 29.3841 18.2225 29.3841 16.8029V11.6526C29.3841 9.19732 27.8087 7.14582 25.711 6.63275Z" fill="white"/>
<path d="M38.181 32.8201C36.4978 31.7534 34.3457 32.3863 33.3739 34.2338C32.4022 36.0812 32.9788 38.4437 34.662 39.5102C36.3451 40.5769 38.5756 39.9439 39.5472 38.0965C40.519 36.249 39.8641 33.8867 38.181 32.8201Z" fill="white"/>
<path d="M36.0341 24.0259L31.9708 21.4507C30.8508 20.741 29.4128 21.1639 28.7661 22.3934C28.1195 23.6228 28.5048 25.2012 29.6249 25.911L31.6566 27.1985L26.9646 36.1189L24.9329 34.8314C23.8128 34.1216 22.3748 34.5446 21.7282 35.774C21.0815 37.0035 21.4669 38.5819 22.5869 39.2917L26.6502 41.8668C28.5876 43.0945 30.9938 42.6226 32.4473 40.8851C30.4806 38.8891 29.9478 35.5974 31.3422 32.9463C32.7365 30.2952 35.6 29.1559 38.1583 30.0274C38.8024 27.7769 37.9715 25.2535 36.0341 24.0259Z" fill="white"/>
<path d="M6.62619 34.2339C5.6544 32.3864 3.50229 31.7534 1.81908 32.8202C0.136036 33.8868 -0.518965 36.2491 0.45291 38.0967C1.42455 39.9441 3.65502 40.5771 5.33807 39.5104C7.02127 38.4437 7.59791 36.0813 6.62619 34.2339Z" fill="white"/>
<path d="M18.2718 35.7741C17.6252 34.5447 16.1872 34.1218 15.0672 34.8315L13.0354 36.119L8.34341 27.1986L10.3751 25.9111C11.4952 25.2013 11.8804 23.6228 11.2339 22.3934C10.5872 21.164 9.14919 20.7411 8.02919 21.4508L3.9659 24.0259C2.02856 25.2536 1.19762 27.777 1.84184 30.0275C4.40004 29.156 7.26356 30.2954 8.65794 32.9465C10.0523 35.5975 9.5195 38.8891 7.55278 40.8852C9.0063 42.6227 11.4125 43.0946 13.3499 41.867L17.4132 39.2918C18.5332 38.582 18.9185 37.0035 18.2718 35.7741Z" fill="white"/>
</g>
<defs>
<clipPath id="clip0_136_2838">
<rect width="40" height="43.9062" fill="white"/>
</clipPath>
</defs>
</svg>
