<svg id="Layer_1_1_" enable-background="new 0 0 64 64" height="512" viewBox="0 0 64 64" width="512" xmlns="http://www.w3.org/2000/svg"><path d="m63 21c0-4.962-4.037-9-9-9-1.892 0-3.647.59-5.097 1.59-2.333-2.139-5.076-3.834-8.018-4.955-.661-4.315-4.387-7.635-8.885-7.635s-8.224 3.32-8.885 7.636c-2.942 1.121-5.685 2.816-8.018 4.955-1.45-1.001-3.205-1.591-5.097-1.591-4.963 0-9 4.038-9 9 0 3.959 2.573 7.323 6.133 8.524-.08.823-.133 1.651-.133 2.476s.053 1.653.133 2.476c-3.56 1.201-6.133 4.565-6.133 8.524 0 4.962 4.037 9 9 9 1.892 0 3.647-.59 5.097-1.591 2.332 2.139 5.075 3.834 8.017 4.955.662 4.316 4.388 7.636 8.886 7.636s8.224-3.32 8.885-7.636c2.942-1.121 5.685-2.816 8.018-4.955 1.45 1.001 3.205 1.591 5.097 1.591 4.963 0 9-4.038 9-9 0-3.959-2.573-7.323-6.133-8.524.08-.823.133-1.651.133-2.476s-.053-1.653-.133-2.476c3.56-1.201 6.133-4.565 6.133-8.524zm-31-18c3.859 0 7 3.14 7 7 0 1.549-.512 2.978-1.368 4.139-.474-1.174-1.381-2.119-2.522-2.655.548-.685.89-1.541.89-2.484 0-2.206-1.794-4-4-4s-4 1.794-4 4c0 .943.342 1.799.889 2.484-1.141.536-2.048 1.481-2.522 2.655-.855-1.161-1.367-2.59-1.367-4.139 0-3.86 3.141-7 7-7zm-1 10h2c1.57 0 2.848 1.217 2.975 2.755-1.13.783-2.499 1.245-3.975 1.245s-2.845-.462-3.975-1.245c.127-1.538 1.405-2.755 2.975-2.755zm-1-4c0-1.103.897-2 2-2s2 .897 2 2-.897 2-2 2-2-.897-2-2zm-27 12c0-3.86 3.141-7 7-7s7 3.14 7 7-3.141 7-7 7-7-3.14-7-7zm7 29c-3.859 0-7-3.14-7-7s3.141-7 7-7 7 3.14 7 7-3.141 7-7 7zm22 11c-3.859 0-7-3.14-7-7s3.141-7 7-7 7 3.14 7 7-3.141 7-7 7zm8.959-7.814c-.413-4.582-4.271-8.186-8.959-8.186s-8.546 3.604-8.959 8.186c-2.343-.995-4.531-2.389-6.431-4.099 1.479-1.604 2.39-3.739 2.39-6.087 0-4.962-4.037-9-9-9-.304 0-.603.016-.899.046-.06-.681-.101-1.365-.101-2.046s.041-1.365.101-2.046c.296.03.595.046.899.046 4.963 0 9-4.038 9-9 0-2.349-.912-4.483-2.39-6.088 1.9-1.71 4.089-3.104 6.432-4.099.412 4.583 4.27 8.187 8.958 8.187s8.546-3.604 8.959-8.186c2.343.994 4.531 2.389 6.432 4.099-1.479 1.604-2.391 3.738-2.391 6.087 0 4.962 4.037 9 9 9 .304 0 .603-.016.899-.046.06.681.101 1.365.101 2.046s-.041 1.365-.101 2.046c-.296-.03-.595-.046-.899-.046-4.963 0-9 4.038-9 9 0 2.349.912 4.483 2.39 6.088-1.9 1.71-4.088 3.104-6.431 4.098zm20.041-10.186c0 3.86-3.141 7-7 7s-7-3.14-7-7 3.141-7 7-7 7 3.14 7 7zm-7-15c-3.859 0-7-3.14-7-7s3.141-7 7-7 7 3.14 7 7-3.141 7-7 7z"/><path d="m32 20c-6.617 0-12 5.383-12 12s5.383 12 12 12 12-5.383 12-12-5.383-12-12-12zm0 22c-5.514 0-10-4.486-10-10s4.486-10 10-10 10 4.486 10 10-4.486 10-10 10z"/><path d="m31 28h2c.552 0 1 .449 1 1h2c0-1.654-1.346-3-3-3v-1h-2v1c-1.654 0-3 1.346-3 3v1c0 1.654 1.346 3 3 3h2c.552 0 1 .449 1 1v1c0 .551-.448 1-1 1h-2c-.552 0-1-.449-1-1h-2c0 1.654 1.346 3 3 3v1h2v-1c1.654 0 3-1.346 3-3v-1c0-1.654-1.346-3-3-3h-2c-.552 0-1-.449-1-1v-1c0-.551.448-1 1-1z"/><path d="m53 20.465-2.555 1.703 1.109 1.664 3-2c.279-.186.446-.498.446-.832v-5h-2z"/><path d="m11.707 21.707 3-3-1.414-1.414-2.563 2.563-2.413-.805c-.358-.121-.756-.026-1.023.242l-3 3 1.414 1.414 2.563-2.563 2.413.805c.359.12.755.025 1.023-.242z"/><path d="m14 39h-8c-.553 0-1 .448-1 1v5c0 .552.447 1 1 1h1.586l2.707 2.707c.191.191.447.293.707.293.129 0 .259-.025.383-.076.374-.155.617-.52.617-.924v-2h2c.553 0 1-.448 1-1v-5c0-.552-.447-1-1-1zm-1 5h-2c-.553 0-1 .448-1 1v.586l-1.293-1.293c-.187-.188-.441-.293-.707-.293h-1v-3h6z"/><path d="m35.882 52.472c.174-.325.154-.72-.05-1.026l-2-3-1.664 1.109.964 1.445h-5.132v2h7c.369 0 .708-.203.882-.528z"/><path d="m28.118 55.528c-.174.325-.154.72.05 1.026l2 3 1.664-1.109-.964-1.445h5.132v-2h-7c-.369 0-.708.203-.882.528z"/><path d="m50 43h2v3h-2z"/><path d="m53 41h2v5h-2z"/><path d="m56 39h2v7h-2z"/></svg>