<svg width="25" height="26" viewBox="0 0 25 26" fill="none" xmlns="http://www.w3.org/2000/svg">
<path d="M24.3127 13.6137H15.6483C15.2696 13.6137 14.9609 13.9224 14.9609 14.301C14.9609 14.4938 15.0429 14.6675 15.1707 14.7928L21.2717 20.8938C21.397 21.0289 21.5781 21.1134 21.7758 21.1134C22.0145 21.1134 22.2243 20.9928 22.3473 20.8095C23.8473 19.0684 24.8118 16.8571 24.9856 14.4239C24.9952 14.3829 25 14.3419 25 14.3009C25.0001 13.9224 24.6937 13.6137 24.3127 13.6137Z" fill="white"/>
<path d="M13.0318 1.15833C12.6531 1.16064 12.3469 1.467 12.3469 1.84558V11.4746C12.3469 11.8557 12.6531 12.1643 13.0318 12.1643H22.6633C23.042 12.1643 23.3506 11.8557 23.3506 11.4746C23.0105 5.93315 18.5757 1.49841 13.0318 1.15833Z" fill="white"/>
<path d="M18.3249 20.3321L11.2207 13.2279C11.1002 13.1049 11.0279 12.9336 11.0279 12.748L11.0253 2.71372C11.0253 2.33513 10.7191 2.02885 10.3405 2.02885C4.56979 2.38097 0 7.17492 0 13.0326C0 19.1215 4.93641 24.0603 11.0253 24.0603C13.8034 24.0603 16.3402 23.033 18.2791 21.3376C18.4286 21.2122 18.5227 21.0242 18.5227 20.8144C18.5227 20.6286 18.4478 20.4574 18.3249 20.3321Z" fill="white"/>
</svg>
