<svg width="64" height="64" viewBox="0 0 64 64" fill="none" xmlns="http://www.w3.org/2000/svg">
<path d="M62.2403 34.5713H40.0595C39.0901 34.5713 38.2999 35.3615 38.2999 36.3307C38.2999 36.8243 38.5097 37.269 38.8369 37.5898L54.4555 53.2085C54.7763 53.5542 55.2398 53.7705 55.7461 53.7705C56.3571 53.7705 56.894 53.4617 57.2089 52.9925C61.0489 48.5352 63.5183 42.8743 63.9629 36.6454C63.9876 36.5405 63.9999 36.4356 63.9999 36.3305C64.0001 35.3615 63.2158 34.5713 62.2403 34.5713Z" fill="#CCCCCC"/>
<path d="M33.3612 2.68542C32.3918 2.69135 31.6079 3.47562 31.6079 4.4448V29.0952C31.6079 30.0707 32.3918 30.8609 33.3612 30.8609H58.0179C58.9872 30.8609 59.7772 30.0707 59.7772 29.0952C58.9066 14.909 47.5537 3.55602 33.3612 2.68542Z" fill="#CCCCCC"/>
<path d="M46.9118 51.7703L28.725 33.5836C28.4165 33.2687 28.2314 32.8303 28.2314 32.355L28.2248 6.66731C28.2248 5.69814 27.441 4.91406 26.4716 4.91406C11.6987 5.81548 0 18.088 0 33.0836C0 48.6714 12.6372 61.3145 28.2248 61.3145C35.3366 61.3145 41.831 58.6848 46.7945 54.3446C47.1773 54.0234 47.4181 53.5422 47.4181 53.005C47.4181 52.5295 47.2265 52.0912 46.9118 51.7703Z" fill="#CCCCCC"/>
</svg>
