<?xml version="1.0"?>
<svg xmlns="http://www.w3.org/2000/svg" viewBox="0 0 512 512" width="512" height="512">
    <g id="SOLID">
        <circle cx="336" cy="176" r="8" fill="rgb(255, 154, 75)"/>
        <circle cx="160" cy="200" r="8" fill="rgb(255, 154, 75)"/>
        <circle cx="208" cy="160" r="8" fill="rgb(255, 154, 75)"/>
        <circle cx="280" cy="144" r="8" fill="rgb(255, 154, 75)"/>
        <path
            d="M320,203.31348V216h64V337.97705A152.08662,152.08662,0,0,0,408,256c0-83.813-68.187-152-152-152S104,172.187,104,256a151.86124,151.86124,0,0,0,24,81.98218V248h56V235.31348l-13.65894-13.65894a24.009,24.009,0,1,1,11.31348-11.31348L200,228.68652V248h24V216h16V195.31348l-16.77509-16.77509a24.03508,24.03508,0,1,1,8.38276-14.2442L256,188.68652V216h16V166.6239a24,24,0,1,1,16,0V216h16V196.68652l10.34546-10.34546a24.009,24.009,0,1,1,11.31348,11.31348Z" fill="rgb(255, 154, 75)"/>        <path
            d="M77.69482,328.28125,54.13623,354.15674,70.1001,381.78418l34.1626-7.48389L128,398.0376V364.80591A167.80776,167.80776,0,0,1,88,256c0-92.63574,75.36426-168,168-168s168,75.36426,168,168a168.015,168.015,0,0,1-40,108.80884V398.0376l23.73682-23.73682,34.16308,7.48438,15.96387-27.62745L434.3042,328.28125l12.22656-45.64893L480,271.95361V240.0459l-33.46924-10.67822-12.22558-45.64893,23.55859-25.87549L441.8999,130.21582l-34.1626,7.48389-33.43652-33.43653,7.48438-34.16308L354.15771,54.13623,328.28125,77.6958,282.63232,65.46924,271.95361,32H240.0459L229.36768,65.46924,183.71875,77.69482,157.84326,54.13623,130.21582,70.1001l7.48389,34.1626-33.43653,33.43652L70.1001,130.21484,54.13623,157.84229,77.6958,183.71875,65.46924,229.36768,32,240.04639V271.9541l33.46924,10.67822Z" fill="rgb(255, 154, 75)"/>
        <path
            d="M368,464V232H240V464H224V264H144V464H16v16H496V464ZM192,280h16v16H192Zm0,40h16v16H192Zm0,40h16v16H192Zm0,40h16v16H192ZM160,280h16v16H160Zm0,40h16v16H160Zm0,40h16v16H160Zm0,40h16v16H160Zm0,64V440h48v24ZM336,248h16v16H336Zm0,32h16v16H336Zm0,32h16v16H336Zm0,32h16v16H336Zm0,32h16v16H336ZM296,248h16v16H296Zm0,32h16v16H296Zm0,32h16v16H296Zm0,32h16v16H296Zm0,32h16v16H296ZM256,248h16v16H256Zm0,32h16v16H256Zm0,32h16v16H256Zm0,32h16v16H256Zm0,32h16v16H256Zm0,32h96v16H256Zm16,56V440h64v24Z" fill="rgb(255, 154, 75)"/>
    </g>
</svg>