<svg width="25" height="26" viewBox="0 0 25 26" fill="none" xmlns="http://www.w3.org/2000/svg">
<g clip-path="url(#clip0_136_2674)">
<path d="M0.149894 4.37726C0.283203 3.82239 0.97441 3.62555 1.37995 4.03114L4.07817 6.73082H6.15106V4.65794L3.45641 1.9647C3.05277 1.56107 3.24731 0.870592 3.7994 0.735379C5.0736 0.423347 7.14112 0.469932 8.73961 2.06788C10.1381 3.46641 10.5874 5.55394 9.93011 7.4022L18.1758 15.6478C20.024 14.9906 22.1116 15.4398 23.5101 16.8383C25.0679 18.3961 25.1596 20.485 24.8484 21.7804C24.7151 22.3353 24.0239 22.5322 23.6184 22.1266L20.9201 19.4269H18.8472V21.4998L21.5412 24.1923C21.945 24.596 21.7502 25.2866 21.198 25.4216C19.9243 25.7331 17.8575 25.6881 16.2587 24.0898C14.8602 22.6912 14.411 20.6037 15.0682 18.7555L6.82259 10.5098C4.97433 11.1671 2.88728 10.7178 1.48826 9.31931C-0.0695539 7.7616 -0.161308 5.6727 0.149894 4.37726Z" fill="white"/>
<path d="M12.4992 18.2584L6.2503 24.5069C4.99974 25.7574 3.06211 25.9132 1.64112 24.9727L7.2865 19.3278C7.57217 19.0417 7.57217 18.5778 7.2865 18.2916C7.00035 18.006 6.53646 18.006 6.2503 18.2916L0.605409 23.937C-0.335081 22.516 -0.179798 20.5784 1.07126 19.3278L7.31971 13.0789L12.4992 18.2584Z" fill="white"/>
<path d="M24.923 2.67396L22.8511 6.81728C22.7437 7.03263 22.5376 7.18107 22.2993 7.21526L18.9158 7.6982L15.607 11.007L14.5713 9.97129L17.8796 6.66297L18.363 3.27897C18.3972 3.04068 18.5457 2.83461 18.761 2.72718L22.9043 0.655274C23.1861 0.51464 23.5269 0.569819 23.7496 0.792489L24.7858 1.82869C25.0085 2.05136 25.0637 2.3922 24.923 2.67396Z" fill="white"/>
</g>
<defs>
<clipPath id="clip0_136_2674">
<rect width="25" height="25" fill="white" transform="translate(0 0.578064)"/>
</clipPath>
</defs>
</svg>
