<svg height="512" viewBox="0 0 64 64" width="512" xmlns="http://www.w3.org/2000/svg">
    <g id="outline">
        <path
            d="m61.662 33.25a1.006 1.006 0 0 0 -.786-.242l-.25.031a13.234 13.234 0 0 1 -11.857-4.679 1.036 1.036 0 0 0 -1.538 0 13.232 13.232 0 0 1 -11.857 4.679l-.25-.031a1 1 0 0 0 -1.124.992v10.665a15 15 0 0 0 6.462 12.335l6.969 4.824a1 1 0 0 0 1.138 0l6.969-4.824a15 15 0 0 0 6.462-12.335v-10.665a1 1 0 0 0 -.338-.75zm-1.662 11.415a13 13 0 0 1 -5.6 10.688l-6.4 4.431-6.4-4.431a13 13 0 0 1 -5.6-10.688v-9.557a15.2 15.2 0 0 0 12-4.608 15.229 15.229 0 0 0 12 4.612z" fill="rgb(231, 177, 0)"/>
        <path
            d="m57.107 37.042a17.257 17.257 0 0 1 -8.507-3.356 1 1 0 0 0 -1.2 0 17.257 17.257 0 0 1 -8.506 3.356 1 1 0 0 0 -.893.994v6.629a11 11 0 0 0 4.739 9.044l4.692 3.248a1 1 0 0 0 1.138 0l4.693-3.249a11 11 0 0 0 4.737-9.043v-6.629a1 1 0 0 0 -.893-.994zm-1.107 7.623a9 9 0 0 1 -3.877 7.4l-4.123 2.853-4.122-2.854a9 9 0 0 1 -3.878-7.399v-5.752a19.257 19.257 0 0 0 8-3.195 19.257 19.257 0 0 0 8 3.195z" fill="rgb(231, 177, 0)"/>
        <path d="m43.6 46.2-1.2 1.6 4 3a1 1 0 0 0 1.389-.186l7-9-1.578-1.228-6.4 8.224z" fill="rgb(231, 177, 0)"/>
        <path
            d="m3 62h40v-2h-39v-56h33v9a1 1 0 0 0 1 1h9v12h2v-13a1 1 0 0 0 -.293-.707l-10-10a1 1 0 0 0 -.707-.293h-35a1 1 0 0 0 -1 1v58a1 1 0 0 0 1 1zm36-56.586 6.586 6.586h-6.586z" fill="rgb(231, 177, 0)"/>
        <path d="m17 7h16v2h-16z" fill="rgb(231, 177, 0)"/>
        <path d="m17 11h16v2h-16z" fill="rgb(231, 177, 0)"/>
        <path d="m8 17h15v2h-15z" fill="rgb(231, 177, 0)"/>
        <path d="m8 21h20v2h-20z" fill="rgb(231, 177, 0)"/>
        <path d="m8 25h19v2h-19z" fill="rgb(231, 177, 0)"/>
        <path d="m25 17h18v2h-18z" fill="rgb(231, 177, 0)"/>
        <path d="m30 21h13v2h-13z" fill="rgb(231, 177, 0)"/>
        <path d="m43 25h-5-8-1v2h1 8 5z" fill="rgb(231, 177, 0)"/>
        <path d="m8 29h32v2h-32z" fill="rgb(231, 177, 0)"/>
        <path d="m25 33h7v2h-7z" fill="rgb(231, 177, 0)"/>
        <path d="m8 33h15v2h-15z" fill="rgb(231, 177, 0)"/>
        <path d="m18 37h14v2h-14z" fill="rgb(231, 177, 0)"/>
        <path d="m8 44h12v2h-12z" fill="rgb(231, 177, 0)"/>
        <path d="m22 44h10v2h-10z" fill="rgb(231, 177, 0)"/>
        <path d="m8 48h24v2h-24z" fill="rgb(231, 177, 0)"/>
        <path d="m28 52h6v2h-6z" fill="rgb(231, 177, 0)"/>
        <path d="m8 37h8v2h-8z" fill="rgb(231, 177, 0)"/>
        <path d="m8 52h18v2h-18z" fill="rgb(231, 177, 0)"/>
    </g>
</svg>