<svg width="25" height="26" viewBox="0 0 25 26" fill="none" xmlns="http://www.w3.org/2000/svg">
<g clip-path="url(#clip0_136_2664)">
<path d="M0 10.9035L9.02436 16.0702L11.3688 13.1287L1.8664 8.11133L0 10.9035Z" fill="white"/>
<path d="M13.606 13.1177L15.9591 16.0703L25 10.894L23.1082 7.90756L13.606 13.1177Z" fill="white"/>
<path d="M3.23584 7.17899L12.4851 12.0627L21.7477 6.98401L12.5053 2.61832L3.23584 7.17899Z" fill="white"/>
<path d="M2.35645 18.8069L11.7601 23.7721V14.9861L9.77749 17.4736C9.55249 17.756 9.15532 17.832 8.84197 17.6526L2.35645 13.9395V18.8069Z" fill="white"/>
<path d="M13.2234 14.9861V23.7494L22.627 18.5861V13.9394L16.1415 17.6525C15.8282 17.8319 15.431 17.7559 15.206 17.4736L13.2234 14.9861Z" fill="white"/>
</g>
<defs>
<clipPath id="clip0_136_2664">
<rect width="25" height="25" fill="white" transform="translate(0 0.695251)"/>
</clipPath>
</defs>
</svg>
