<svg width="46" height="46" viewBox="0 0 46 46" fill="none" xmlns="http://www.w3.org/2000/svg">
<g clip-path="url(#clip0_105_5977)">
<path d="M10.3854 12.9531C9.82026 15.5003 9.46991 18.2662 9.36559 21.1816H1.03772C1.29326 18.2479 2.22768 15.4642 3.53669 12.9531H10.3854Z" fill="#FE8525" stroke="#FE8525"/>
<path d="M10.3854 33.0469H3.53669C2.22768 30.5358 1.29326 27.7521 1.03772 24.8184H9.3656C9.46991 27.7339 9.82034 30.4997 10.3854 33.0469Z" fill="#FE8525" stroke="#FE8525"/>
<path d="M21.6816 21.6816V12.4531H13.7397C13.0181 15.2459 12.5811 18.3838 12.4856 21.6816H21.6816Z" fill="#FE8525"/>
<path d="M21.6817 9.81641V0.5C18.7947 1.30631 16.2375 4.99499 14.5498 9.81641H21.6817Z" fill="#FE8525"/>
<path d="M21.6817 45.5V36.1836H14.5498C16.2375 41.005 18.7947 44.6937 21.6817 45.5Z" fill="#FE8525"/>
<path d="M24.3184 0.5V9.81641H31.4502C29.7626 4.99499 27.2053 1.30631 24.3184 0.5Z" fill="#FE8525"/>
<path d="M33.5144 21.6816C33.4187 18.3838 32.9818 15.2459 32.2602 12.4531H24.3184V21.6816H33.5144Z" fill="#FE8525"/>
<path d="M21.6816 24.3184H12.4856C12.5812 27.6164 13.0181 30.7541 13.7397 33.5469H21.6816V24.3184Z" fill="#FE8525"/>
<path d="M34.2509 9.81641H41.0844C38.3555 6.08343 34.5137 2.92974 30.038 1.44421C31.7581 3.47484 33.1968 6.52842 34.2509 9.81641V9.81641Z" fill="#FE8525"/>
<path d="M11.749 36.1836H4.91553C7.64444 39.9166 11.4862 43.0703 15.962 44.5558C14.2419 42.5252 12.8032 39.4716 11.749 36.1836Z" fill="#FE8525"/>
<path d="M11.749 9.81641C12.8031 6.52842 14.2419 3.47484 15.9619 1.44421C11.4862 2.92974 7.64444 6.08343 4.91553 9.81641H11.749Z" fill="#FE8525"/>
<path d="M34.2509 36.1836C33.1969 39.4716 31.7581 42.5252 30.0381 44.5558C34.5137 43.0703 38.3555 39.9166 41.0845 36.1836H34.2509Z" fill="#FE8525"/>
<path d="M24.3184 24.3184V33.5469H32.2602C32.9818 30.7541 33.4188 27.6164 33.5144 24.3184H24.3184Z" fill="#FE8525"/>
<path d="M34.9865 12.4531C35.6594 15.2713 36.0631 18.3809 36.1497 21.6816H45.5C45.3054 18.3629 44.2533 15.2318 42.7646 12.4531H34.9865Z" fill="#FE8525"/>
<path d="M24.3184 36.1836V45.5C27.2053 44.6937 29.7626 41.005 31.4502 36.1836H24.3184Z" fill="#FE8525"/>
<path d="M45.5 24.3184H36.1497C36.0631 27.6191 35.6595 30.7287 34.9865 33.5469H42.7647C44.2533 30.7682 45.3054 27.6371 45.5 24.3184Z" fill="#FE8525"/>
</g>
<defs>
<clipPath id="clip0_105_5977">
<rect width="45" height="45" fill="white" transform="translate(0.5 0.5)"/>
</clipPath>
</defs>
</svg>
