<svg width="20" height="20" viewBox="0 0 20 20" fill="none" xmlns="http://www.w3.org/2000/svg">
<g clip-path="url(#clip0_65_836)">
<path d="M12.5775 0C8.48481 0 5.15521 3.3296 5.15521 7.42228C5.15521 8.83419 5.5516 10.1552 6.23875 11.2801C2.34338 14.3418 1.913 14.772 1.76788 14.9171L0.685164 15.9998C-0.228714 16.9137 -0.228714 18.4007 0.685164 19.3146C1.1421 19.7715 1.74233 20 2.34252 20C2.94271 20 3.54294 19.7715 3.99988 19.3146L5.08259 18.2319C5.2269 18.0876 5.65832 17.656 8.70189 13.7499C9.83066 14.4438 11.1581 14.8446 12.5775 14.8446C13.6927 14.8446 14.7652 14.6031 15.7651 14.1269C16.1547 13.9414 16.3201 13.4752 16.1346 13.0856C15.949 12.696 15.4828 12.5305 15.0933 12.7162C14.3048 13.0916 13.4584 13.282 12.5775 13.282C9.34645 13.282 6.7178 10.6533 6.7178 7.42228C6.7178 4.19125 9.34645 1.56259 12.5775 1.56259C15.8085 1.56259 18.4372 4.19125 18.4372 7.42228C18.4372 8.48058 18.1523 9.51736 17.6132 10.4205C17.3921 10.791 17.5132 11.2707 17.8837 11.4918C18.2543 11.7129 18.7339 11.5918 18.955 11.2213C19.6385 10.0761 19.9998 8.76247 19.9998 7.42228C19.9998 3.3296 16.6701 0 12.5775 0ZM3.97773 17.127L2.89501 18.2097C2.59038 18.5143 2.09473 18.5143 1.79011 18.2097C1.48548 17.905 1.48548 17.4094 1.79011 17.1048L2.87282 16.0221C3.06643 15.8285 3.89006 15.1139 7.18868 12.5209C7.27794 12.6152 7.36955 12.7073 7.46358 12.7969C4.87918 16.1135 4.16961 16.9351 3.97773 17.127ZM16.521 5.71305C16.6928 6.10889 16.5111 6.56899 16.1153 6.7408C16.014 6.78475 15.9085 6.80553 15.8047 6.80553C15.5028 6.80553 15.2154 6.62958 15.0876 6.33503C14.6533 5.33435 13.6681 4.68776 12.5775 4.68776C12.146 4.68776 11.7962 4.33797 11.7962 3.90646C11.7962 3.47496 12.146 3.12517 12.5775 3.12517C14.2909 3.12517 15.8389 4.14097 16.521 5.71305Z" fill="#646464"/>
</g>
<defs>
<clipPath id="clip0_65_836">
<rect width="20" height="20" fill="white"/>
</clipPath>
</defs>
</svg>
