<svg id="&#x421;&#x43B;&#x43E;&#x439;_1" height="512" viewBox="0 0 128 128" width="512" xmlns="http://www.w3.org/2000/svg">
    <path
        d="m118.21 54.21a9.81 9.81 0 0 0 -9.58 7.79h-16.71a27.87 27.87 0 0 0 -6.77-16.32l11.85-11.83a9.78 9.78 0 1 0 -2.85-2.85l-11.83 11.85a27.87 27.87 0 0 0 -16.32-6.77v-16.71a9.79 9.79 0 1 0 -4 0v16.71a27.87 27.87 0 0 0 -16.32 6.77l-11.83-11.85a9.8 9.8 0 1 0 -2.85 2.85l11.85 11.83a27.87 27.87 0 0 0 -6.77 16.32h-16.71a9.79 9.79 0 1 0 0 4h16.71a27.87 27.87 0 0 0 6.77 16.32l-11.85 11.83a9.78 9.78 0 1 0 2.85 2.85l11.83-11.85a27.87 27.87 0 0 0 16.32 6.77v16.71a9.79 9.79 0 1 0 4 0v-16.71a27.87 27.87 0 0 0 16.32-6.77l11.83 11.85a9.78 9.78 0 1 0 2.85-2.85l-11.85-11.83a27.87 27.87 0 0 0 6.77-16.32h16.71a9.79 9.79 0 1 0 9.58-11.79zm-20-32.64a5.79 5.79 0 1 1 0 8.19 5.8 5.8 0 0 1 .03-8.19zm-40-11.78a5.79 5.79 0 1 1 5.79 5.78 5.8 5.8 0 0 1 -5.79-5.78zm-36.64 20a5.79 5.79 0 1 1 8.19 0 5.81 5.81 0 0 1 -8.19-.03zm-11.78 40a5.79 5.79 0 1 1 5.78-5.79 5.8 5.8 0 0 1 -5.78 5.79zm47.05-11.49a7.16 7.16 0 1 1 7.16 7.16 7.16 7.16 0 0 1 -7.16-7.16zm7.16 29.7a23.88 23.88 0 0 1 -14.5-4.89 14.53 14.53 0 0 1 29 0 23.88 23.88 0 0 1 -14.5 4.89zm-34.24 18.43a5.79 5.79 0 1 1 0-8.19 5.81 5.81 0 0 1 0 8.19zm40 11.78a5.79 5.79 0 1 1 -5.76-5.78 5.8 5.8 0 0 1 5.79 5.78zm36.64-20a5.79 5.79 0 1 1 -8.19 0 5.81 5.81 0 0 1 8.22.03zm-24.4-18.41a18.58 18.58 0 0 0 -10.88-12.91 11.16 11.16 0 1 0 -14.24 0 18.58 18.58 0 0 0 -10.88 12.91 24 24 0 1 1 36 0zm36.17-10a5.79 5.79 0 1 1 5.83-5.8 5.79 5.79 0 0 1 -5.79 5.79z" fill="rgb(99, 169, 208)"/>
</svg>