<svg width="20" height="20" viewBox="0 0 20 20" fill="none" xmlns="http://www.w3.org/2000/svg">
<g clip-path="url(#clip0_265_2966)">
<path d="M0 8.16662L7.21949 12.3L9.09504 9.94675L1.49312 5.93286L0 8.16662Z" fill="#70D978"/>
<path d="M10.8848 9.93796L12.7673 12.3L20 8.15902L18.4866 5.76984L10.8848 9.93796Z" fill="#70D978"/>
<path d="M2.58862 5.187L9.98807 9.09397L17.3981 5.03102L10.0042 1.53845L2.58862 5.187Z" fill="#70D978"/>
<path d="M1.88501 14.4894L9.40792 18.4616V11.4327L7.82185 13.4227C7.64185 13.6486 7.32411 13.7095 7.07343 13.5659L1.88501 10.5954V14.4894Z" fill="#70D978"/>
<path d="M10.5786 11.4327V18.4433L18.1015 14.3127V10.5953L12.9131 13.5659C12.6625 13.7093 12.3447 13.6485 12.1647 13.4227L10.5786 11.4327Z" fill="#70D978"/>
</g>
<defs>
<clipPath id="clip0_265_2966">
<rect width="20" height="20" fill="white"/>
</clipPath>
</defs>
</svg>
