<svg width="20" height="20" viewBox="0 0 20 20" fill="none" xmlns="http://www.w3.org/2000/svg">
<path d="M12.2365 10.9429C13.0303 12.9501 13.624 15.0309 14.009 17.1548C14.564 16.8159 15.0767 16.4122 15.5362 15.952C16.7332 14.7617 17.5265 13.2257 17.8042 11.5606C16.5814 11.0549 15.2708 10.7953 13.9475 10.7966C13.3738 10.7966 12.8011 10.8453 12.2357 10.9421L12.2365 10.9429ZM15.5434 4.46964L15.5362 4.46325C14.7835 3.70638 13.8882 3.10632 12.902 2.6978C11.9158 2.28929 10.8584 2.08044 9.79102 2.08334C8.94231 2.08334 8.11357 2.21361 7.32799 2.46295C8.58651 4.03943 9.69749 5.72824 10.6469 7.50806C12.4248 6.75226 14.0759 5.72777 15.5426 4.47044L15.5434 4.46964ZM16.1811 5.18889C14.6554 6.50051 12.9375 7.57026 11.0873 8.36077C11.3606 8.91219 11.6195 9.47241 11.864 10.0414C13.889 9.65644 15.9812 9.84125 17.9073 10.5753C18.0012 8.63027 17.388 6.71702 16.1811 5.18889ZM4.79065 16.6121C6.21693 17.7314 7.97882 18.3373 9.79182 18.3319C10.9586 18.3319 12.0878 18.0874 13.1211 17.6231C12.739 15.4078 12.1239 13.2391 11.2863 11.153C9.87421 11.5414 8.56275 12.2302 7.44164 13.1725C6.32052 14.1147 5.41623 15.288 4.79065 16.6121Z" fill="#344569"/>
<path d="M9.63785 10.7159C10.0539 10.5399 10.4804 10.3897 10.9149 10.266C10.6864 9.74334 10.4434 9.22708 10.1893 8.71961C7.98966 9.53562 5.66176 9.95135 3.31567 9.94712C2.76425 9.94712 2.21762 9.92475 1.67419 9.87999C1.62561 11.0016 1.81154 12.121 2.22009 13.1666C2.62864 14.2123 3.25083 15.1613 4.0469 15.9528L4.0485 15.9544C4.58 14.8939 5.2789 13.926 6.11833 13.0878C7.127 12.0769 8.32227 11.2714 9.63785 10.7159ZM9.74334 7.8645C8.78229 6.08479 7.6564 4.39916 6.38046 2.82977C5.51253 3.23268 4.72255 3.78567 4.0469 4.46326C2.83119 5.67235 2.03252 7.23748 1.76689 8.93139C2.28207 8.97373 2.79875 8.99506 3.31567 8.99532C5.57171 8.99532 7.73744 8.59574 9.74414 7.8637L9.74334 7.8645Z" fill="#344569"/>
</svg>
