<svg width="21" height="20" viewBox="0 0 21 20" fill="none" xmlns="http://www.w3.org/2000/svg">
<g clip-path="url(#clip0_154_8212)">
<path d="M1.0829 3.03937C1.18955 2.59548 1.74252 2.43801 2.06695 2.76248L4.22553 4.92223H5.88384V3.26392L3.72811 1.10933C3.4052 0.786415 3.56084 0.234035 4.00251 0.125864C5.02187 -0.123761 6.67588 -0.0864932 7.95467 1.19187C9.0735 2.31069 9.43289 3.98072 8.90708 5.45933L15.5036 12.0559C16.9822 11.53 18.6522 11.8894 19.7711 13.0083C21.0173 14.2545 21.0907 15.9256 20.8417 16.9619C20.7351 17.4058 20.1821 17.5633 19.8577 17.2388L17.6991 15.0791H16.0408V16.7374L18.196 18.8914C18.5189 19.2144 18.3632 19.7669 17.9214 19.8749C16.9024 20.1241 15.249 20.088 13.97 18.8094C12.8512 17.6906 12.4918 16.0206 13.0176 14.5419L6.42106 7.94543C4.94245 8.47125 3.27281 8.11185 2.1536 6.99303C0.907345 5.74685 0.833942 4.07573 1.0829 3.03937Z" fill="#28C4E7"/>
<path d="M10.9623 14.1444L5.96313 19.1431C4.96268 20.1436 3.41258 20.2682 2.27579 19.5158L6.79209 14.9999C7.02062 14.771 7.02062 14.3998 6.79209 14.1709C6.56317 13.9424 6.19206 13.9424 5.96313 14.1709L1.44722 18.6872C0.694826 17.5504 0.819053 16.0003 1.8199 14.9999L6.81866 10.0007L10.9623 14.1444Z" fill="#28C4E7"/>
<path d="M20.9013 1.67676L19.2437 4.99143C19.1578 5.16371 18.9929 5.28247 18.8023 5.30981L16.0955 5.69617L13.4484 8.34321L12.6199 7.51464L15.2665 4.86799L15.6533 2.16078C15.6806 1.97014 15.7994 1.80529 15.9716 1.71935L19.2863 0.0618169C19.5117 -0.0506904 19.7844 -0.00654695 19.9625 0.17159L20.7915 1.00055C20.9696 1.17869 21.0138 1.45136 20.9013 1.67676Z" fill="#28C4E7"/>
</g>
<defs>
<clipPath id="clip0_154_8212">
<rect width="20" height="20" fill="white" transform="translate(0.962891)"/>
</clipPath>
</defs>
</svg>
