<svg width="24" height="24" viewBox="0 0 24 24" fill="none" xmlns="http://www.w3.org/2000/svg">
<path d="M11.625 0.375C5.20312 0.375 0 5.57812 0 12C0 18.4219 5.20312 23.625 11.625 23.625C18.0469 23.625 23.25 18.4219 23.25 12C23.25 5.57812 18.0469 0.375 11.625 0.375ZM11.625 4.875C13.875 4.875 15.75 6.75 15.75 9C15.75 11.2969 13.875 13.125 11.625 13.125C9.32812 13.125 7.5 11.2969 7.5 9C7.5 6.75 9.32812 4.875 11.625 4.875ZM11.625 21C8.85938 21 6.375 19.7812 4.73438 17.8125C5.625 16.1719 7.35938 15 9.375 15C9.46875 15 9.5625 15.0469 9.70312 15.0938C10.3125 15.2812 10.9219 15.375 11.625 15.375C12.2812 15.375 12.9375 15.2812 13.5 15.0938C13.6406 15.0469 13.7344 15 13.875 15C15.8438 15 17.5781 16.1719 18.4688 17.8125C16.8281 19.7812 14.3438 21 11.625 21Z" fill="#1E3058"/>
</svg>
