<svg width="25" height="26" viewBox="0 0 25 26" fill="none" xmlns="http://www.w3.org/2000/svg">
<g clip-path="url(#clip0_136_2694)">
<path d="M23.9882 8.67233L14.0982 0.949148C13.7655 0.697432 13.316 0.697432 12.9833 0.949148L3.09331 8.67233C2.87754 8.84316 2.75171 9.10387 2.75171 9.38259V22.2126C2.75171 22.5902 3.05737 22.8959 3.43497 22.8959H5.50292C5.88052 22.8959 6.18618 22.5902 6.18618 22.2126V13.3386C6.18618 12.844 6.59078 12.4395 7.08527 12.4395H19.9962C20.4907 12.4395 20.8953 12.844 20.8953 13.3386V22.2126C20.8953 22.5902 21.201 22.8959 21.5786 22.8959H23.6465C24.0241 22.8959 24.3298 22.5902 24.3298 22.2126V9.38259C24.3298 9.10387 24.2039 8.84316 23.9882 8.67233ZM13.5408 8.59139C12.5517 8.59139 11.7426 7.78224 11.7426 6.78421C11.7426 5.79524 12.5517 4.98604 13.5408 4.98604C14.5297 4.98604 15.339 5.79524 15.339 6.78421C15.339 7.78224 14.5297 8.59139 13.5408 8.59139Z" fill="white"/>
<path d="M12.9173 20.6571V21.9968C12.9173 22.4913 12.5128 22.8959 12.0182 22.8959H9.22209C8.7276 22.8959 8.323 22.4913 8.323 21.9968V20.6571C8.323 20.1626 8.7276 19.758 9.22209 19.758H12.0182C12.5128 19.758 12.9173 20.1626 12.9173 20.6571V20.6571Z" fill="white"/>
<path d="M18.8602 20.6571V21.9968C18.8602 22.4913 18.4556 22.8959 17.9611 22.8959H15.165C14.6705 22.8959 14.2659 22.4913 14.2659 21.9968V20.6571C14.2659 20.1626 14.6705 19.758 15.165 19.758H17.9611C18.4556 19.758 18.8602 20.1626 18.8602 20.6571Z" fill="white"/>
<path d="M15.889 16.1706V17.5103C15.889 18.0048 15.4845 18.4094 14.9899 18.4094H12.1938C11.6993 18.4094 11.2947 18.0048 11.2947 17.5103V16.1706C11.2947 15.6762 11.6993 15.2716 12.1938 15.2716H14.9899C15.4845 15.2716 15.889 15.6762 15.889 16.1706Z" fill="white"/>
</g>
<defs>
<clipPath id="clip0_136_2694">
<rect width="25" height="25" fill="white" transform="translate(0 0.343689)"/>
</clipPath>
</defs>
</svg>
